{
.appVersion = "948";
classes = (
{
automatic = 1;
code = "A Aacute Acircumflex Adieresis Agrave Amacron Aogonek Aring Atilde AE B C Cacute Ccaron Ccedilla D Eth E Eacute Ecircumflex Edieresis Edotaccent Egrave Emacron Eogonek F G Gbreve Gcommaaccent H I Iacute Icircumflex Idieresis Idotaccent Igrave Imacron Iogonek Itilde J Jcircumflex K Kcommaaccent L Lcommaaccent Lslash M N Nacute Ncommaaccent Ntilde O Oacute Ocircumflex Odieresis Ograve Omacron Oslash Otilde OE P Thorn Q R Racute Rcaron Rcommaaccent S Sacute Scaron Scedilla T U Uacute Ucircumflex Udieresis Ugrave Umacron Uogonek V W X Y Yacute Ydieresis Z Zacute Zcaron Zdotaccent A-cy Be-cy Ve-cy Ge-cy Gje-cy Gheupturn-cy De-cy Ie-cy Iegrave-cy Io-cy Zhe-cy Ze-cy Ii-cy Iishort-cy Iigrave-cy Ka-cy Kje-cy El-cy Em-cy En-cy O-cy Pe-cy Er-cy Es-cy Te-cy U-cy Ushort-cy Ef-cy Ha-cy Che-cy Tse-cy Sha-cy Shcha-cy Dzhe-cy Softsign-cy Hardsign-cy Yeru-cy Lje-cy Nje-cy Dze-cy E-cy Ereversed-cy I-cy Yi-cy Je-cy Tshe-cy Iu-cy Ia-cy Dje-cy Yat-cy Yusbig-cy Fita-cy Izhitsa-cy Ghestroke-cy Ghemiddlehook-cy Zhedescender-cy Zedescender-cy Kadescender-cy Kaverticalstroke-cy Kabashkir-cy Endescender-cy Pedescender-cy Esdescender-cy Ustrait-cy Ustraitstroke-cy Chedescender-cy Cheverticalstroke-cy Shha-cy Palochka-cy Zhebreve-cy Chekhakassian-cy Abreve-cy Adieresis-cy Iebreve-cy Schwa-cy Zhedieresis-cy Zedieresis-cy Imacron-cy Idieresis-cy Odieresis-cy Obarred-cy Umacron-cy Udieresis-cy Uhungarumlaut-cy Chedieresis-cy Gedescender-cy Yerudieresis-cy Qa-cy We-cy";
name = Uppercase;
}
);
copyright = "Copyright 2010 The Cuprum Project Authors (lemonad@jovanny.ru), with Reserved Font Name \"Cuprum\".";
customParameters = (
{
name = licenseURL;
value = "http://scripts.sil.org/OFL";
},
{
name = trademark;
value = "Cuprum is a trademark of Jovanny Lemonad.";
},
{
name = license;
value = "This Font Software is licensed under the SIL Open Font License, Version 1.1. This license is available with a FAQ at: http://scripts.sil.org/OFL";
},
{

glyphs = (
{
glyphname = A;
layers = (
{
anchors = (
{
name = bottom;
position = "{269, 0}";
},
{
name = ogonek;
position = "{415, 10}";
},
{
name = top;
position = "{376, 700}";
}
);
hints = (
{
place = "{373, 93}";
},
{
place = "{393, 73}";
},
{
horizontal = 1;
place = "{180, 70}";
},
{
horizontal = 1;
place = "{0, 21}";
target = up;
type = BottomGhost;
},
{
horizontal = 1;
place = "{700, -20}";
target = down;
type = TopGhost;
}
);
layerId = UUID0;
paths = (
{
closed = 1;
nodes = (
"110 0 LINE",
"186 180 LINE",
"386 180 LINE",
"400 0 LINE",
"490 0 LINE",
"443 700 LINE",
"313 700 LINE",
"20 0 LINE"
);
},
{
closed = 1;
nodes = (
"358 600 LINE",
"362 600 LINE",
"384 250 LINE",
"214 250 LINE"
);
}
);
width = 510;
},
{
anchors = (
{
name = bottom;
position = "{226, 0}";
},
{
name = ogonek;
position = "{442, 10}";
},
{
name = top;
position = "{390, 700}";
}
);
hints = (
{
horizontal = 1;
place = "{175, 80}";
},
{
horizontal = 1;
place = "{0, 21}";
target = up;
type = BottomGhost;
},
{
horizontal = 1;
place = "{700, -20}";
target = down;
type = TopGhost;
}
);
layerId = "97C2AB1A-35E1-4EAE-9807-DD7336879977";
paths = (
{
closed = 1;
nodes = (
"140 0 LINE",
"214 175 LINE",
"386 175 LINE",
"400 0 LINE",
"525 0 LINE",
"468 700 LINE",
"318 700 LINE",
"15 0 LINE"
);
},
{
closed = 1;
nodes = (
"363 540 LINE",
"367 540 LINE",
"383 255 LINE",
"244 255 LINE"
);
}
);
width = 540;
}
);
leftKerningGroup = A;
rightKerningGroup = A;
unicode = 0041;
},
{
color = 9;
glyphname = Aacute;
layers = (
{
hints = (
{
place = "{373, 93}";
},
{
place = "{393, 73}";
},
{
horizontal = 1;
place = "{180, 70}";
},
{
horizontal = 1;
place = "{0, 21}";
target = up;
type = BottomGhost;
},
{
horizontal = 1;
place = "{700, -20}";
target = down;
type = TopGhost;
},
{
horizontal = 1;
place = "{880, -20}";
target = down;
type = TopGhost;
}
);
layerId = UUID0;
paths = (
{
closed = 1;
nodes = (
"110 0 LINE",
"186 180 LINE",
"386 180 LINE",
"400 0 LINE",
"490 0 LINE",
"443 700 LINE",
"313 700 LINE",
"20 0 LINE"
);
},
{
closed = 1;
nodes = (
"358 600 LINE",
"362 600 LINE",
"384 250 LINE",
"214 250 LINE"
);
},
{
closed = 1;
nodes = (
"412 750 LINE",
"505 880 LINE",
"410 880 LINE",
"352 750 LINE"
);
}
);
width = 510;
},
{
hints = (
{
horizontal = 1;
place = "{175, 80}";
},
{
horizontal = 1;
place = "{750, 130}";
},
{
horizontal = 1;
place = "{0, 21}";
target = up;
type = BottomGhost;
},
{
horizontal = 1;
place = "{700, -20}";
target = down;
type = TopGhost;
}
);
layerId = "97C2AB1A-35E1-4EAE-9807-DD7336879977";
paths = (
{
closed = 1;
nodes = (
"140 0 LINE",
"214 175 LINE",
"386 175 LINE",
"400 0 LINE",
"525 0 LINE",
"468 700 LINE",
"318 700 LINE",
"15 0 LINE"
);
},
{
closed = 1;
nodes = (
"363 540 LINE",
"367 540 LINE",
"383 255 LINE",
"244 255 LINE"
);
},
{
closed = 1;
nodes = (
"437 750 LINE",
"535 880 LINE",
"420 880 LINE",
"362 750 LINE"
);
}
);
width = 540;
}
);
leftKerningGroup = A;
rightKerningGroup = A;
unicode = 00C1;
},
{
color = 9;
glyphname = Acircumflex;
layers = (
{
hints = (
{
place = "{373, 93}";
},
{
place = "{393, 73}";
},
{
horizontal = 1;
place = "{180, 70}";
},
{
horizontal = 1;
place = "{750, 130}";
},
{
horizontal = 1;
place = "{0, 21}";
target = up;
type = BottomGhost;
},
{
horizontal = 1;
place = "{700, -20}";
target = down;
type = TopGhost;
}
);
layerId = UUID0;
paths = (
{
closed = 1;
nodes = (
"110 0 LINE",
"186 180 LINE",
"386 180 LINE",
"400 0 LINE",
"490 0 LINE",
"443 700 LINE",
"313 700 LINE",
"20 0 LINE"
);
},
{
closed = 1;
nodes = (
"358 600 LINE",
"362 600 LINE",
"384 250 LINE",
"214 250 LINE"
);
},
{
closed = 1;
nodes = (
"325 750 LINE",
"400 824 LINE",
"450 750 LINE",
"510 750 LINE",
"458 880 LINE",
"363 880 LINE",
"265 750 LINE"
);
}
);
width = 510;
},
{
hints = (
{
horizontal = 1;
place = "{175, 80}";
},
{
horizontal = 1;
place = "{750, 130}";
},
{
horizontal = 1;
place = "{0, 21}";
target = up;
type = BottomGhost;
},
{
horizontal = 1;
place = "{700, -20}";
target = down;
type = TopGhost;
}
);
layerId = "97C2AB1A-35E1-4EAE-9807-DD7336879977";
paths = (
{
closed = 1;
nodes = (
"140 0 LINE",
"214 175 LINE",
"386 175 LINE",
"400 0 LINE",
"525 0 LINE",
"468 700 LINE",
"318 700 LINE",
"15 0 LINE"
);
},
{
closed = 1;
nodes = (
"363 540 LINE",
"367 540 LINE",
"383 255 LINE",
"244 255 LINE"
);
},
{
closed = 1;
nodes = (
"346 750 LINE",
"414 820 LINE",
"458 750 LINE",
"535 750 LINE",
"478 880 LINE",
"373 880 LINE",
"270 750 LINE"
);
}
);
width = 540;
}
);
leftKerningGroup = A;
rightKerningGroup = A;
unicode = 00C2;
},
{
glyphname = Adieresis;
layers = (
{
hints = (
{
place = "{373, 93}";
},
{
place = "{393, 73}";
},
{
horizontal = 1;
place = "{180, 70}";
},
{
horizontal = 1;
place = "{760, 110}";
},
{
horizontal = 1;
place = "{0, 21}";
target = up;
type = BottomGhost;
},
{
horizontal = 1;
place = "{700, -20}";
target = down;
type = TopGhost;
}
);
layerId = UUID0;
paths = (
{
closed = 1;
nodes = (
"110 0 LINE",
"186 180 LINE",
"386 180 LINE",
"400 0 LINE",
"490 0 LINE",
"443 700 LINE",
"313 700 LINE",
"20 0 LINE"
);
},
{
closed = 1;
nodes = (
"358 600 LINE",
"362 600 LINE",
"384 250 LINE",
"214 250 LINE"
);
},
{
closed = 1;
nodes = (
"354 760 LINE",
"373 870 LINE",
"283 870 LINE",
"264 760 LINE"
);
},
{
closed = 1;
nodes = (
"514 760 LINE",
"533 870 LINE",
"443 870 LINE",
"424 760 LINE"
);
}
);
width = 510;
},
{
hints = (
{
horizontal = 1;
place = "{175, 80}";
},
{
horizontal = 1;
place = "{750, 120}";
},
{
horizontal = 1;
place = "{0, 21}";
target = up;
type = BottomGhost;
},
{
horizontal = 1;
place = "{700, -20}";
target = down;
type = TopGhost;
}
);
layerId = "97C2AB1A-35E1-4EAE-9807-DD7336879977";
paths = (
{
closed = 1;
nodes = (
"140 0 LINE",
"214 175 LINE",
"386 175 LINE",
"400 0 LINE",
"525 0 LINE",
"468 700 LINE",
"318 700 LINE",
"15 0 LINE"
);
},
{
closed = 1;
nodes = (
"363 540 LINE",
"367 540 LINE",
"383 255 LINE",
"244 255 LINE"
);
},
{
closed = 1;
nodes = (
"377 750 LINE",
"398 870 LINE",
"288 870 LINE",
"267 750 LINE"
);
},
{
closed = 1;
nodes = (
"537 750 LINE",
"558 870 LINE",
"448 870 LINE",
"427 750 LINE"
);
}
);
width = 540;
}
);
leftKerningGroup = A;
rightKerningGroup = A;
unicode = 00C4;
},
{
color = 9;
glyphname = Agrave;
layers = (
{
hints = (
{
place = "{373, 93}";
},
{
place = "{393, 73}";
},
{
horizontal = 1;
place = "{180, 70}";
},
{
horizontal = 1;
place = "{750, 130}";
},
{
horizontal = 1;
place = "{0, 21}";
target = up;
type = BottomGhost;
},
{
horizontal = 1;
place = "{700, -20}";
target = down;
type = TopGhost;
}
);
layerId = UUID0;
paths = (
{
closed = 1;
nodes = (
"110 0 LINE",
"186 180 LINE",
"386 180 LINE",
"400 0 LINE",
"490 0 LINE",
"443 700 LINE",
"313 700 LINE",
"20 0 LINE"
);
},
{
closed = 1;
nodes = (
"358 600 LINE",
"362 600 LINE",
"384 250 LINE",
"214 250 LINE"
);
},
{
closed = 1;
nodes = (
"422 750 LINE",
"410 880 LINE",
"315 880 LINE",
"362 750 LINE"
);
}
);
width = 510;
},
{
hints = (
{
horizontal = 1;
place = "{175, 80}";
},
{
horizontal = 1;
place = "{750, 130}";
},
{
horizontal = 1;
place = "{0, 21}";
target = up;
type = BottomGhost;
},
{
horizontal = 1;
place = "{700, -20}";
target = down;
type = TopGhost;
}
);
layerId = "97C2AB1A-35E1-4EAE-9807-DD7336879977";
paths = (
{
closed = 1;
nodes = (
"140 0 LINE",
"214 175 LINE",
"386 175 LINE",
"400 0 LINE",
"525 0 LINE",
"468 700 LINE",
"318 700 LINE",
"15 0 LINE"
);
},
{
closed = 1;
nodes = (
"363 540 LINE",
"367 540 LINE",
"383 255 LINE",
"244 255 LINE"
);
},
{
closed = 1;
nodes = (
"447 750 LINE",
"435 880 LINE",
"320 880 LINE",
"372 750 LINE"
);
}
);
width = 540;
}
);
leftKerningGroup = A;
rightKerningGroup = A;
unicode = 00C0;
},
{
glyphname = Amacron;
layers = (
{
hints = (
{
place = "{373, 93}";
},
{
place = "{393, 73}";
},
{
horizontal = 1;
place = "{180, 70}";
},
{
horizontal = 1;
place = "{770, 60}";
},
{
horizontal = 1;
place = "{0, 21}";
target = up;
type = BottomGhost;
},
{
horizontal = 1;
place = "{700, -20}";
target = down;
type = TopGhost;
}
);
layerId = UUID0;
paths = (
{
closed = 1;
nodes = (
"110 0 LINE",
"186 180 LINE",
"386 180 LINE",
"400 0 LINE",
"490 0 LINE",
"443 700 LINE",
"313 700 LINE",
"20 0 LINE"
);
},
{
closed = 1;
nodes = (
"358 600 LINE",
"362 600 LINE",
"384 250 LINE",
"214 250 LINE"
);
},
{
closed = 1;
nodes = (
"505 770 LINE",
"516 830 LINE",
"286 830 LINE",
"275 770 LINE"
);
}
);
width = 510;
},
{
hints = (
{
horizontal = 1;
place = "{175, 80}";
},
{
horizontal = 1;
place = "{760, 70}";
},
{
horizontal = 1;
place = "{0, 21}";
target = up;
type = BottomGhost;
},
{
horizontal = 1;
place = "{700, -20}";
target = down;
type = TopGhost;
}
);
layerId = "97C2AB1A-35E1-4EAE-9807-DD7336879977";
paths = (
{
closed = 1;
nodes = (
"140 0 LINE",
"214 175 LINE",
"386 175 LINE",
"400 0 LINE",
"525 0 LINE",
"468 700 LINE",
"318 700 LINE",
"15 0 LINE"
);
},
{
closed = 1;
nodes = (
"363 540 LINE",
"367 540 LINE",
"383 255 LINE",
"244 255 LINE"
);
},
{
closed = 1;
nodes = (
"524 760 LINE",
"536 830 LINE",
"296 830 LINE",
"284 760 LINE"
);
}
);
width = 540;
}
);
leftKerningGroup = A;
rightKerningGroup = A;
unicode = 0100;
},
{
glyphname = Aogonek;
layers = (
{
hints = (
{
place = "{373, 93}";
},
{
place = "{393, 73}";
},
{
horizontal = 1;
place = "{-160, 56}";
},
{
horizontal = 1;
place = "{180, 70}";
},
{
horizontal = 1;
place = "{0, 21}";
target = up;
type = BottomGhost;
},
{
horizontal = 1;
place = "{700, -20}";
target = down;
type = TopGhost;
}
);
layerId = UUID0;
paths = (
{
closed = 1;
nodes = (
"486 -160 OFFCURVE",
"519 -145 OFFCURVE",
"519 -145 CURVE",
"526 -104 LINE",
"491 -104 LINE SMOOTH",
"446 -104 OFFCURVE",
"434 -90 OFFCURVE",
"442 -45 CURVE SMOOTH",
"450 0 LINE",
"490 0 LINE",
"443 700 LINE",
"313 700 LINE",
"20 0 LINE",
"110 0 LINE",
"186 180 LINE",
"386 180 LINE",
"400 0 LINE",
"410 0 LINE",
"410 0 OFFCURVE",
"378 -35 OFFCURVE",
"370 -80 CURVE SMOOTH",
"362 -130 OFFCURVE",
"386 -160 OFFCURVE",
"441 -160 CURVE SMOOTH"
);
},
{
closed = 1;
nodes = (
"358 600 LINE",
"362 600 LINE",
"384 250 LINE",
"214 250 LINE"
);
}
);
width = 510;
},
{
hints = (
{
horizontal = 1;
place = "{-160, 60}";
},
{
horizontal = 1;
place = "{175, 80}";
},
{
horizontal = 1;
place = "{0, 21}";
target = up;
type = BottomGhost;
},
{
horizontal = 1;
place = "{700, -20}";
target = down;
type = TopGhost;
}
);
layerId = "97C2AB1A-35E1-4EAE-9807-DD7336879977";
paths = (
{
closed = 1;
nodes = (
"499 -160 OFFCURVE",
"533 -145 OFFCURVE",
"533 -145 CURVE",
"541 -100 LINE",
"505 -100 LINE SMOOTH",
"470 -100 OFFCURVE",
"454 -80 OFFCURVE",
"461 -45 CURVE SMOOTH",
"469 0 LINE",
"524 0 LINE",
"467 700 LINE",
"317 700 LINE",
"14 0 LINE",
"139 0 LINE",
"213 175 LINE",
"385 175 LINE",
"399 0 LINE",
"419 0 LINE",
"419 0 OFFCURVE",
"387 -30 OFFCURVE",
"378 -80 CURVE SMOOTH",
"370 -125 OFFCURVE",
"399 -160 OFFCURVE",
"454 -160 CURVE SMOOTH"
);
},
{
closed = 1;
nodes = (
"362 540 LINE",
"366 540 LINE",
"382 255 LINE",
"243 255 LINE"
);
}
);
width = 540;
}
);
leftKerningGroup = A;
rightKerningGroup = A;
unicode = 0104;
},
{
glyphname = Aring;
layers = (
{
hints = (
{
place = "{373, 93}";
},
{
place = "{393, 73}";
},
{
horizontal = 1;
place = "{180, 70}";
},
{
horizontal = 1;
place = "{730, 45}";
},
{
horizontal = 1;
place = "{845, 45}";
},
{
horizontal = 1;
place = "{0, 21}";
target = up;
type = BottomGhost;
},
{
horizontal = 1;
place = "{700, -20}";
target = down;
type = TopGhost;
}
);
layerId = UUID0;
paths = (
{
closed = 1;
nodes = (
"110 0 LINE",
"186 180 LINE",
"386 180 LINE",
"400 0 LINE",
"490 0 LINE",
"443 700 LINE",
"313 700 LINE",
"20 0 LINE"
);
},
{
closed = 1;
nodes = (
"358 600 LINE",
"362 600 LINE",
"384 250 LINE",
"214 250 LINE"
);
},
{
closed = 1;
nodes = (
"433 730 OFFCURVE",
"474 760 OFFCURVE",
"482 810 CURVE",
"491 860 OFFCURVE",
"461 890 OFFCURVE",
"411 890 CURVE SMOOTH",
"361 890 OFFCURVE",
"321 860 OFFCURVE",
"312 810 CURVE",
"304 760 OFFCURVE",
"333 730 OFFCURVE",
"383 730 CURVE"
);
},
{
closed = 1;
nodes = (
"371 775 OFFCURVE",
"358 785 OFFCURVE",
"362 810 CURVE",
"367 835 OFFCURVE",
"383 845 OFFCURVE",
"403 845 CURVE SMOOTH",
"423 845 OFFCURVE",
"437 835 OFFCURVE",
"432 810 CURVE",
"428 785 OFFCURVE",
"411 775 OFFCURVE",
"391 775 CURVE"
);
}
);
width = 510;
},
{
hints = (
{
horizontal = 1;
place = "{175, 80}";
},
{
horizontal = 1;
place = "{725, 55}";
},
{
horizontal = 1;
place = "{840, 55}";
},
{
horizontal = 1;
place = "{0, 21}";
target = up;
type = BottomGhost;
},
{
horizontal = 1;
place = "{700, -20}";
target = down;
type = TopGhost;
}
);
layerId = "97C2AB1A-35E1-4EAE-9807-DD7336879977";
paths = (
{
closed = 1;
nodes = (
"140 0 LINE",
"214 175 LINE",
"386 175 LINE",
"400 0 LINE",
"525 0 LINE",
"468 700 LINE",
"318 700 LINE",
"15 0 LINE"
);
},
{
closed = 1;
nodes = (
"363 540 LINE",
"367 540 LINE",
"383 255 LINE",
"244 255 LINE"
);
},
{
closed = 1;
nodes = (
"452 725 OFFCURVE",
"499 760 OFFCURVE",
"507 810 CURVE SMOOTH",
"516 860 OFFCURVE",
"482 895 OFFCURVE",
"427 895 CURVE SMOOTH",
"372 895 OFFCURVE",
"326 860 OFFCURVE",
"317 810 CURVE SMOOTH",
"309 760 OFFCURVE",
"342 725 OFFCURVE",
"397 725 CURVE SMOOTH"
);
},
{
closed = 1;
nodes = (
"392 780 OFFCURVE",
"379 790 OFFCURVE",
"382 810 CURVE SMOOTH",
"386 830 OFFCURVE",
"403 840 OFFCURVE",
"418 840 CURVE SMOOTH",
"433 840 OFFCURVE",
"446 830 OFFCURVE",
"442 810 CURVE SMOOTH",
"439 790 OFFCURVE",
"422 780 OFFCURVE",
"407 780 CURVE SMOOTH"
);
}
);
width = 540;
}
);
leftKerningGroup = A;
rightKerningGroup = A;
unicode = 00C5;
},
{
glyphname = AE;
layers = (
{
hints = (
{
horizontal = 1;
place = "{0, 70}";
},
{
horizontal = 1;
place = "{180, 70}";
},
{
horizontal = 1;
place = "{330, 70}";
},
{
horizontal = 1;
place = "{630, 70}";
}
);
layerId = UUID0;
paths = (
{
closed = 1;
nodes = (
"90 0 LINE",
"183 180 LINE",
"382 180 LINE",
"351 0 LINE",
"691 0 LINE",
"703 70 LINE",
"453 70 LINE",
"499 330 LINE",
"719 330 LINE",
"731 400 LINE",
"511 400 LINE",
"552 630 LINE",
"802 630 LINE",
"814 700 LINE",
"363 700 LINE",
"0 0 LINE"
);
},
{
closed = 1;
nodes = (
"417 630 LINE",
"462 630 LINE",
"395 250 LINE",
"220 250 LINE"
);
}
);
width = 731;
},
{
hints = (
{
horizontal = 1;
place = "{0, 80}";
},
{
horizontal = 1;
place = "{175, 80}";
},
{
horizontal = 1;
place = "{325, 80}";
},
{
horizontal = 1;
place = "{620, 80}";
}
);
layerId = "97C2AB1A-35E1-4EAE-9807-DD7336879977";
paths = (
{
closed = 1;
nodes = (
"119 0 LINE",
"210 175 LINE",
"380 175 LINE",
"350 0 LINE",
"715 0 LINE",
"729 80 LINE",
"484 80 LINE",
"527 325 LINE",
"742 325 LINE",
"756 405 LINE",
"541 405 LINE",
"579 620 LINE",
"824 620 LINE",
"838 700 LINE",
"363 700 LINE",
"0 0 LINE"
);
},
{
closed = 1;
nodes = (
"440 620 LINE",
"459 620 LINE",
"394 255 LINE",
"251 255 LINE"
);
}
);
width = 755;
}
);
leftKerningGroup = A;
rightKerningGroup = E;
unicode = 00C6;
},
{
glyphname = B;
layers = (
{
hints = (
{
horizontal = 1;
place = "{-10, 65}";
},
{
horizontal = 1;
place = "{335, 65}";
},
{
horizontal = 1;
place = "{645, 65}";
}
);
layerId = UUID0;
paths = (
{
closed = 1;
nodes = (
"398 -10 OFFCURVE",
"468 50 OFFCURVE",
"493 190 CURVE SMOOTH",
"509 280 OFFCURVE",
"491 350 OFFCURVE",
"415 373 CURVE",
"416 377 LINE",
"482 410 OFFCURVE",
"511 465 OFFCURVE",
"522 525 CURVE SMOOTH",
"544 650 OFFCURVE",
"495 710 OFFCURVE",
"355 710 CURVE SMOOTH",
"295 710 OFFCURVE",
"244 705 OFFCURVE",
"191 690 CURVE",
"71 10 LINE",
"119 -5 OFFCURVE",
"168 -10 OFFCURVE",
"228 -10 CURVE SMOOTH"
);
},
{
closed = 1;
nodes = (
"219 335 LINE",
"289 335 LINE",
"389 335 OFFCURVE",
"422 295 OFFCURVE",
"403 190 CURVE SMOOTH",
"386 94 OFFCURVE",
"339 55 OFFCURVE",
"239 55 CURVE SMOOTH",
"169 55 LINE"
);
},
{
closed = 1;
nodes = (
"273 645 LINE",
"333 645 LINE SMOOTH",
"413 645 OFFCURVE",
"446 605 OFFCURVE",
"432 525 CURVE SMOOTH",
"417 440 OFFCURVE",
"370 400 OFFCURVE",
"290 400 CURVE SMOOTH",
"230 400 LINE"
);
}
);
width = 500;
},
{
hints = (
{
horizontal = 1;
place = "{-10, 75}";
},
{
horizontal = 1;
place = "{330, 75}";
},
{
horizontal = 1;
place = "{635, 75}";
}
);
layerId = "97C2AB1A-35E1-4EAE-9807-DD7336879977";
paths = (
{
closed = 1;
nodes = (
"423 -10 OFFCURVE",
"505 60 OFFCURVE",
"528 190 CURVE SMOOTH",
"544 280 OFFCURVE",
"510 345 OFFCURVE",
"435 373 CURVE",
"436 377 LINE",
"501 405 OFFCURVE",
"546 465 OFFCURVE",
"557 525 CURVE SMOOTH",
"577 640 OFFCURVE",
"520 710 OFFCURVE",
"370 710 CURVE SMOOTH",
"295 710 OFFCURVE",
"244 705 OFFCURVE",
"191 690 CURVE",
"71 10 LINE",
"119 -5 OFFCURVE",
"168 -10 OFFCURVE",
"243 -10 CURVE SMOOTH"
);
},
{
closed = 1;
nodes = (
"248 330 LINE",
"303 330 LINE",
"388 330 OFFCURVE",
"421 290 OFFCURVE",
"404 195 CURVE SMOOTH",
"388 105 OFFCURVE",
"341 65 OFFCURVE",
"256 65 CURVE SMOOTH",
"201 65 LINE"
);
},
{
closed = 1;
nodes = (
"301 635 LINE",
"346 635 LINE SMOOTH",
"411 635 OFFCURVE",
"444 595 OFFCURVE",
"431 520 CURVE SMOOTH",
"418 445 OFFCURVE",
"371 405 OFFCURVE",
"306 405 CURVE SMOOTH",
"261 405 LINE"
);
}
);
width = 530;
}
);
leftKerningGroup = H;
rightKerningGroup = B;
unicode = 0042;
},
{
glyphname = C;
layers = (
{
hints = (
{
horizontal = 1;
place = "{-10, 65}";
},
{
horizontal = 1;
place = "{645, 65}";
}
);
layerId = UUID0;
paths = (
{
closed = 1;
nodes = (
"328 -10 OFFCURVE",
"390 0 OFFCURVE",
"421 10 CURVE",
"429 55 LINE",
"299 55 LINE SMOOTH",
"209 55 OFFCURVE",
"160 115 OFFCURVE",
"201 350 CURVE SMOOTH",
"243 585 OFFCURVE",
"313 645 OFFCURVE",
"393 645 CURVE SMOOTH",
"523 645 LINE",
"531 690 LINE",
"503 700 OFFCURVE",
"445 710 OFFCURVE",
"385 710 CURVE SMOOTH",
"255 710 OFFCURVE",
"161 630 OFFCURVE",
"111 350 CURVE SMOOTH",
"62 70 OFFCURVE",
"128 -10 OFFCURVE",
"268 -10 CURVE SMOOTH"
);
}
);
width = 435;
},
{
hints = (
{
horizontal = 1;
place = "{-10, 75}";
},
{
horizontal = 1;
place = "{635, 75}";
}
);
layerId = "97C2AB1A-35E1-4EAE-9807-DD7336879977";
paths = (
{
closed = 1;
nodes = (
"348 -10 OFFCURVE",
"410 0 OFFCURVE",
"441 10 CURVE",
"451 65 LINE",
"331 65 LINE SMOOTH",
"236 65 OFFCURVE",
"187 125 OFFCURVE",
"226 350 CURVE SMOOTH",
"266 575 OFFCURVE",
"336 635 OFFCURVE",
"421 635 CURVE SMOOTH",
"541 635 LINE",
"551 690 LINE",
"523 700 OFFCURVE",
"465 710 OFFCURVE",
"395 710 CURVE SMOOTH",
"250 710 OFFCURVE",
"156 630 OFFCURVE",
"106 350 CURVE SMOOTH",
"57 70 OFFCURVE",
"123 -10 OFFCURVE",
"278 -10 CURVE SMOOTH"
);
}
);
width = 455;
}
);
leftKerningGroup = O;
rightKerningGroup = C;
unicode = 0043;
},
{
glyphname = Cacute;
layers = (
{
hints = (
{
horizontal = 1;
place = "{-10, 65}";
},
{
horizontal = 1;
place = "{645, 65}";
},
{
horizontal = 1;
place = "{645, 235}";
}
);
layerId = UUID0;
paths = (
{
closed = 1;
nodes = (
"328 -10 OFFCURVE",
"390 0 OFFCURVE",
"421 10 CURVE",
"429 55 LINE",
"299 55 LINE SMOOTH",
"209 55 OFFCURVE",
"160 115 OFFCURVE",
"201 350 CURVE SMOOTH",
"243 585 OFFCURVE",
"313 645 OFFCURVE",
"393 645 CURVE SMOOTH",
"523 645 LINE",
"531 690 LINE",
"503 700 OFFCURVE",
"445 710 OFFCURVE",
"385 710 CURVE SMOOTH",
"255 710 OFFCURVE",
"161 630 OFFCURVE",
"111 350 CURVE SMOOTH",
"62 70 OFFCURVE",
"128 -10 OFFCURVE",
"268 -10 CURVE SMOOTH"
);
},
{
closed = 1;
nodes = (
"422 750 LINE",
"515 880 LINE",
"420 880 LINE",
"362 750 LINE"
);
}
);
width = 435;
},
{
hints = (
{
horizontal = 1;
place = "{-10, 75}";
},
{
horizontal = 1;
place = "{635, 75}";
},
{
horizontal = 1;
place = "{750, 130}";
}
);
layerId = "97C2AB1A-35E1-4EAE-9807-DD7336879977";
paths = (
{
closed = 1;
nodes = (
"348 -10 OFFCURVE",
"410 0 OFFCURVE",
"441 10 CURVE",
"451 65 LINE",
"331 65 LINE SMOOTH",
"236 65 OFFCURVE",
"187 125 OFFCURVE",
"226 350 CURVE SMOOTH",
"266 575 OFFCURVE",
"336 635 OFFCURVE",
"421 635 CURVE SMOOTH",
"541 635 LINE",
"551 690 LINE",
"523 700 OFFCURVE",
"465 710 OFFCURVE",
"395 710 CURVE SMOOTH",
"250 710 OFFCURVE",
"156 630 OFFCURVE",
"106 350 CURVE SMOOTH",
"57 70 OFFCURVE",
"123 -10 OFFCURVE",
"278 -10 CURVE SMOOTH"
);
},
{
closed = 1;
nodes = (
"432 750 LINE",
"530 880 LINE",
"415 880 LINE",
"357 750 LINE"
);
}
);
width = 455;
}
);
leftKerningGroup = O;
rightKerningGroup = C;
unicode = 0106;
},
{
glyphname = Ccaron;
layers = (
{
hints = (
{
horizontal = 1;
place = "{-10, 65}";
},
{
horizontal = 1;
place = "{645, 65}";
},
{
horizontal = 1;
place = "{760, 130}";
}
);
layerId = UUID0;
paths = (
{
closed = 1;
nodes = (
"328 -10 OFFCURVE",
"390 0 OFFCURVE",
"421 10 CURVE",
"429 55 LINE",
"299 55 LINE SMOOTH",
"209 55 OFFCURVE",
"160 115 OFFCURVE",
"201 350 CURVE SMOOTH",
"243 585 OFFCURVE",
"313 645 OFFCURVE",
"393 645 CURVE SMOOTH",
"523 645 LINE",
"531 690 LINE",
"503 700 OFFCURVE",
"445 710 OFFCURVE",
"385 710 CURVE SMOOTH",
"255 710 OFFCURVE",
"161 630 OFFCURVE",
"111 350 CURVE SMOOTH",
"62 70 OFFCURVE",
"128 -10 OFFCURVE",
"268 -10 CURVE SMOOTH"
);
},
{
closed = 1;
nodes = (
"437 760 LINE",
"534 890 LINE",
"474 890 LINE",
"398 816 LINE",
"349 890 LINE",
"289 890 LINE",
"342 760 LINE"
);
}
);
width = 435;
},
{
hints = (
{
horizontal = 1;
place = "{-10, 75}";
},
{
horizontal = 1;
place = "{635, 75}";
},
{
horizontal = 1;
place = "{760, 130}";
}
);
layerId = "97C2AB1A-35E1-4EAE-9807-DD7336879977";
paths = (
{
closed = 1;
nodes = (
"348 -10 OFFCURVE",
"410 0 OFFCURVE",
"441 10 CURVE",
"451 65 LINE",
"331 65 LINE SMOOTH",
"236 65 OFFCURVE",
"187 125 OFFCURVE",
"226 350 CURVE SMOOTH",
"266 575 OFFCURVE",
"336 635 OFFCURVE",
"421 635 CURVE SMOOTH",
"541 635 LINE",
"551 690 LINE",
"523 700 OFFCURVE",
"465 710 OFFCURVE",
"395 710 CURVE SMOOTH",
"250 710 OFFCURVE",
"156 630 OFFCURVE",
"106 350 CURVE SMOOTH",
"57 70 OFFCURVE",
"123 -10 OFFCURVE",
"278 -10 CURVE SMOOTH"
);
},
{
closed = 1;
nodes = (
"452 760 LINE",
"554 890 LINE",
"477 890 LINE",
"409 820 LINE",
"365 890 LINE",
"289 890 LINE",
"347 760 LINE"
);
}
);
width = 455;
}
);
leftKerningGroup = O;
rightKerningGroup = C;
unicode = 010C;
},
{
glyphname = Ccedilla;
layers = (
{
hints = (
{
horizontal = 1;
place = "{-165, 45}";
},
{
horizontal = 1;
place = "{-70, 45}";
},
{
horizontal = 1;
place = "{-10, 65}";
},
{
horizontal = 1;
place = "{645, 65}";
}
);
layerId = UUID0;
paths = (
{
closed = 1;
nodes = (
"310 -165 OFFCURVE",
"346 -135 OFFCURVE",
"353 -95 CURVE SMOOTH",
"360 -55 OFFCURVE",
"335 -25 OFFCURVE",
"280 -25 CURVE SMOOTH",
"265 -25 LINE",
"268 -10 LINE",
"328 -10 OFFCURVE",
"390 0 OFFCURVE",
"421 10 CURVE",
"429 55 LINE",
"299 55 LINE SMOOTH",
"209 55 OFFCURVE",
"160 115 OFFCURVE",
"201 350 CURVE SMOOTH",
"243 585 OFFCURVE",
"313 645 OFFCURVE",
"393 645 CURVE SMOOTH",
"523 645 LINE",
"531 690 LINE",
"503 700 OFFCURVE",
"445 710 OFFCURVE",
"385 710 CURVE SMOOTH",
"255 710 OFFCURVE",
"161 630 OFFCURVE",
"111 350 CURVE SMOOTH",
"68 105 OFFCURVE",
"113 13 OFFCURVE",
"218 -6 CURVE",
"207 -70 LINE",
"262 -70 LINE SMOOTH",
"282 -70 OFFCURVE",
"290 -80 OFFCURVE",
"288 -95 CURVE SMOOTH",
"285 -110 OFFCURVE",
"273 -120 OFFCURVE",
"243 -120 CURVE SMOOTH",
"178 -120 LINE",
"173 -150 LINE",
"173 -150 OFFCURVE",
"200 -165 OFFCURVE",
"245 -165 CURVE SMOOTH"
);
}
);
width = 435;
},
{
hints = (
{
horizontal = 1;
place = "{-170, 49}";
},
{
horizontal = 1;
place = "{-79, 49}";
},
{
horizontal = 1;
place = "{-10, 75}";
},
{
horizontal = 1;
place = "{635, 75}";
}
);
layerId = "97C2AB1A-35E1-4EAE-9807-DD7336879977";
paths = (
{
closed = 1;
nodes = (
"315 -170 OFFCURVE",
"355 -140 OFFCURVE",
"362 -100 CURVE SMOOTH",
"369 -60 OFFCURVE",
"344 -30 OFFCURVE",
"284 -30 CURVE SMOOTH",
"269 -30 LINE",
"273 -10 LINE",
"283 -10 LINE SMOOTH",
"353 -10 OFFCURVE",
"410 0 OFFCURVE",
"441 10 CURVE",
"451 65 LINE",
"331 65 LINE SMOOTH",
"236 65 OFFCURVE",
"187 125 OFFCURVE",
"226 350 CURVE SMOOTH",
"266 575 OFFCURVE",
"336 635 OFFCURVE",
"421 635 CURVE SMOOTH",
"541 635 LINE",
"551 690 LINE",
"523 700 OFFCURVE",
"465 710 OFFCURVE",
"395 710 CURVE SMOOTH",
"250 710 OFFCURVE",
"156 630 OFFCURVE",
"106 350 CURVE SMOOTH",
"64 112 OFFCURVE",
"109 18 OFFCURVE",
"219 -4 CURVE",
"206 -79 LINE",
"261 -79 LINE SMOOTH",
"286 -79 OFFCURVE",
"289 -90 OFFCURVE",
"287 -100 CURVE SMOOTH",
"285 -111 OFFCURVE",
"278 -121 OFFCURVE",
"248 -121 CURVE SMOOTH",
"183 -121 LINE",
"177 -155 LINE",
"177 -155 OFFCURVE",
"200 -170 OFFCURVE",
"250 -170 CURVE SMOOTH"
);
}
);
width = 455;
}
);
leftKerningGroup = O;
rightKerningGroup = C;
unicode = 00C7;
},
{
glyphname = D;
layers = (
{
hints = (
{
horizontal = 1;
place = "{-10, 65}";
},
{
horizontal = 1;
place = "{645, 65}";
}
);
layerId = UUID0;
paths = (
{
closed = 1;
nodes = (
"388 -10 OFFCURVE",
"482 70 OFFCURVE",
"531 350 CURVE SMOOTH",
"581 630 OFFCURVE",
"515 710 OFFCURVE",
"355 710 CURVE SMOOTH",
"295 710 OFFCURVE",
"244 705 OFFCURVE",
"191 690 CURVE",
"71 10 LINE",
"119 -5 OFFCURVE",
"168 -10 OFFCURVE",
"228 -10 CURVE SMOOTH"
);
},
{
closed = 1;
nodes = (
"273 645 LINE",
"343 645 LINE SMOOTH",
"433 645 OFFCURVE",
"483 585 OFFCURVE",
"441 350 CURVE SMOOTH",
"400 115 OFFCURVE",
"329 55 OFFCURVE",
"239 55 CURVE SMOOTH",
"169 55 LINE"
);
}
);
width = 520;
},
{
hints = (
{
horizontal = 1;
place = "{-10, 75}";
},
{
horizontal = 1;
place = "{635, 75}";
}
);
layerId = "97C2AB1A-35E1-4EAE-9807-DD7336879977";
paths = (
{
closed = 1;
nodes = (
"408 -10 OFFCURVE",
"514 80 OFFCURVE",
"561 350 CURVE SMOOTH",
"609 620 OFFCURVE",
"535 710 OFFCURVE",
"370 710 CURVE SMOOTH",
"295 710 OFFCURVE",
"244 705 OFFCURVE",
"191 690 CURVE",
"71 10 LINE",
"119 -5 OFFCURVE",
"168 -10 OFFCURVE",
"243 -10 CURVE SMOOTH"
);
},
{
closed = 1;
nodes = (
"301 635 LINE",
"356 635 LINE SMOOTH",
"436 635 OFFCURVE",
"481 575 OFFCURVE",
"441 350 CURVE SMOOTH",
"402 125 OFFCURVE",
"336 65 OFFCURVE",
"256 65 CURVE SMOOTH",
"201 65 LINE"
);
}
);
width = 545;
}
);
leftKerningGroup = H;
rightKerningGroup = O;
unicode = 0044;
},
{
glyphname = Eth;
layers = (
{
hints = (
{
horizontal = 1;
place = "{-10, 65}";
},
{
horizontal = 1;
place = "{320, 70}";
},
{
horizontal = 1;
place = "{645, 65}";
}
);
layerId = UUID0;
paths = (
{
closed = 1;
nodes = (
"408 -10 OFFCURVE",
"502 70 OFFCURVE",
"551 350 CURVE SMOOTH",
"601 630 OFFCURVE",
"535 710 OFFCURVE",
"375 710 CURVE SMOOTH",
"315 710 OFFCURVE",
"264 705 OFFCURVE",
"211 690 CURVE",
"158 390 LINE",
"78 390 LINE",
"66 320 LINE",
"146 320 LINE",
"91 10 LINE",
"139 -5 OFFCURVE",
"188 -10 OFFCURVE",
"248 -10 CURVE SMOOTH"
);
},
{
closed = 1;
nodes = (
"236 320 LINE",
"346 320 LINE",
"358 390 LINE",
"248 390 LINE",
"293 645 LINE",
"363 645 LINE SMOOTH",
"453 645 OFFCURVE",
"503 585 OFFCURVE",
"461 350 CURVE SMOOTH",
"420 115 OFFCURVE",
"349 55 OFFCURVE",
"259 55 CURVE SMOOTH",
"189 55 LINE"
);
}
);
width = 540;
},
{
hints = (
{
horizontal = 1;
place = "{-10, 75}";
},
{
horizontal = 1;
place = "{315, 80}";
},
{
horizontal = 1;
place = "{635, 75}";
}
);
layerId = "97C2AB1A-35E1-4EAE-9807-DD7336879977";
paths = (
{
closed = 1;
nodes = (
"423 -10 OFFCURVE",
"529 80 OFFCURVE",
"576 350 CURVE SMOOTH",
"624 620 OFFCURVE",
"550 710 OFFCURVE",
"385 710 CURVE SMOOTH",
"310 710 OFFCURVE",
"259 705 OFFCURVE",
"206 690 CURVE",
"154 395 LINE",
"79 395 LINE",
"65 315 LINE",
"140 315 LINE",
"86 10 LINE",
"134 -5 OFFCURVE",
"183 -10 OFFCURVE",
"258 -10 CURVE SMOOTH"
);
},
{
closed = 1;
nodes = (
"260 315 LINE",
"365 315 LINE",
"379 395 LINE",
"274 395 LINE",
"316 635 LINE",
"371 635 LINE",
"451 635 OFFCURVE",
"496 575 OFFCURVE",
"456 350 CURVE SMOOTH",
"417 125 OFFCURVE",
"351 65 OFFCURVE",
"271 65 CURVE",
"216 65 LINE"
);
}
);
width = 560;
}
);
leftKerningGroup = Hbar;
rightKerningGroup = E;
unicode = 00D0;
},
{
glyphname = E;
layers = (
{
anchors = (
{
name = bottom;
position = "{240, 0}";
},
{
name = ogonek;
position = "{361, 10}";
},
{
name = top;
position = "{370, 700}";
},
{
name = topleft;
position = "{99, 700}";
}
);
hints = (
{
horizontal = 1;
place = "{0, 70}";
},
{
horizontal = 1;
place = "{330, 70}";
},
{
horizontal = 1;
place = "{630, 70}";
}
);
layerId = UUID0;
paths = (
{
closed = 1;
nodes = (
"410 0 LINE",
"422 70 LINE",
"172 70 LINE",
"218 330 LINE",
"438 330 LINE",
"450 400 LINE",
"230 400 LINE",
"271 630 LINE",
"521 630 LINE",
"533 700 LINE",
"193 700 LINE",
"70 0 LINE"
);
}
);
width = 450;
},
{
anchors = (
{
name = bottom;
position = "{247, 0}";
},
{
name = ogonek;
position = "{383, 10}";
},
{
name = top;
position = "{369, 700}";
},
{
name = topleft;
position = "{99, 700}";
}
);
hints = (
{
horizontal = 1;
place = "{0, 80}";
},
{
horizontal = 1;
place = "{325, 80}";
},
{
horizontal = 1;
place = "{620, 80}";
}
);
layerId = "97C2AB1A-35E1-4EAE-9807-DD7336879977";
paths = (
{
closed = 1;
nodes = (
"435 0 LINE",
"449 80 LINE",
"204 80 LINE",
"247 325 LINE",
"462 325 LINE",
"476 405 LINE",
"261 405 LINE",
"299 620 LINE",
"544 620 LINE",
"558 700 LINE",
"193 700 LINE",
"70 0 LINE"
);
}
);
width = 475;
}
);
leftKerningGroup = H;
rightKerningGroup = E;
unicode = 0045;
},
{
color = 9;
glyphname = Eacute;
layers = (
{
hints = (
{
horizontal = 1;
place = "{0, 70}";
},
{
horizontal = 1;
place = "{330, 70}";
},
{
horizontal = 1;
place = "{630, 70}";
},
{
horizontal = 1;
place = "{630, 250}";
}
);
layerId = UUID0;
paths = (
{
closed = 1;
nodes = (
"410 0 LINE",
"422 70 LINE",
"172 70 LINE",
"218 330 LINE",
"438 330 LINE",
"450 400 LINE",
"230 400 LINE",
"271 630 LINE",
"521 630 LINE",
"533 700 LINE",
"193 700 LINE",
"70 0 LINE"
);
},
{
closed = 1;
nodes = (
"402 750 LINE",
"495 880 LINE",
"400 880 LINE",
"342 750 LINE"
);
}
);
width = 450;
},
{
hints = (
{
horizontal = 1;
place = "{0, 80}";
},
{
horizontal = 1;
place = "{325, 80}";
},
{
horizontal = 1;
place = "{620, 80}";
},
{
horizontal = 1;
place = "{750, 130}";
}
);
layerId = "97C2AB1A-35E1-4EAE-9807-DD7336879977";
paths = (
{
closed = 1;
nodes = (
"435 0 LINE",
"449 80 LINE",
"204 80 LINE",
"247 325 LINE",
"462 325 LINE",
"476 405 LINE",
"261 405 LINE",
"299 620 LINE",
"544 620 LINE",
"558 700 LINE",
"193 700 LINE",
"70 0 LINE"
);
},
{
closed = 1;
nodes = (
"422 750 LINE",
"520 880 LINE",
"405 880 LINE",
"347 750 LINE"
);
}
);
width = 475;
}
);
leftKerningGroup = H;
rightKerningGroup = E;
unicode = 00C9;
},
{
color = 9;
glyphname = Ecircumflex;
layers = (
{
hints = (
{
horizontal = 1;
place = "{0, 70}";
},
{
horizontal = 1;
place = "{330, 70}";
},
{
horizontal = 1;
place = "{630, 70}";
},
{
horizontal = 1;
place = "{750, 130}";
}
);
layerId = UUID0;
paths = (
{
closed = 1;
nodes = (
"410 0 LINE",
"422 70 LINE",
"172 70 LINE",
"218 330 LINE",
"438 330 LINE",
"450 400 LINE",
"230 400 LINE",
"271 630 LINE",
"521 630 LINE",
"533 700 LINE",
"193 700 LINE",
"70 0 LINE"
);
},
{
closed = 1;
nodes = (
"307 750 LINE",
"382 824 LINE",
"432 750 LINE",
"492 750 LINE",
"440 880 LINE",
"345 880 LINE",
"247 750 LINE"
);
}
);
width = 450;
},
{
hints = (
{
horizontal = 1;
place = "{0, 80}";
},
{
horizontal = 1;
place = "{325, 80}";
},
{
horizontal = 1;
place = "{620, 80}";
},
{
horizontal = 1;
place = "{750, 130}";
}
);
layerId = "97C2AB1A-35E1-4EAE-9807-DD7336879977";
paths = (
{
closed = 1;
nodes = (
"435 0 LINE",
"449 80 LINE",
"204 80 LINE",
"247 325 LINE",
"462 325 LINE",
"476 405 LINE",
"261 405 LINE",
"299 620 LINE",
"544 620 LINE",
"558 700 LINE",
"193 700 LINE",
"70 0 LINE"
);
},
{
closed = 1;
nodes = (
"328 750 LINE",
"396 820 LINE",
"440 750 LINE",
"517 750 LINE",
"460 880 LINE",
"355 880 LINE",
"252 750 LINE"
);
}
);
width = 475;
}
);
leftKerningGroup = H;
rightKerningGroup = E;
unicode = 00CA;
},
{
glyphname = Edieresis;
layers = (
{
hints = (
{
horizontal = 1;
place = "{0, 70}";
},
{
horizontal = 1;
place = "{330, 70}";
},
{
horizontal = 1;
place = "{630, 70}";
},
{
horizontal = 1;
place = "{770, 110}";
}
);
layerId = UUID0;
paths = (
{
closed = 1;
nodes = (
"410 0 LINE",
"422 70 LINE",
"172 70 LINE",
"218 330 LINE",
"438 330 LINE",
"450 400 LINE",
"230 400 LINE",
"271 630 LINE",
"521 630 LINE",
"533 700 LINE",
"193 700 LINE",
"70 0 LINE"
);
},
{
closed = 1;
nodes = (
"335 770 LINE",
"355 880 LINE",
"265 880 LINE",
"245 770 LINE"
);
},
{
closed = 1;
nodes = (
"495 770 LINE",
"515 880 LINE",
"425 880 LINE",
"405 770 LINE"
);
}
);
width = 450;
},
{
hints = (
{
horizontal = 1;
place = "{0, 80}";
},
{
horizontal = 1;
place = "{325, 80}";
},
{
horizontal = 1;
place = "{620, 80}";
},
{
horizontal = 1;
place = "{760, 120}";
}
);
layerId = "97C2AB1A-35E1-4EAE-9807-DD7336879977";
paths = (
{
closed = 1;
nodes = (
"435 0 LINE",
"449 80 LINE",
"204 80 LINE",
"247 325 LINE",
"462 325 LINE",
"476 405 LINE",
"261 405 LINE",
"299 620 LINE",
"544 620 LINE",
"558 700 LINE",
"193 700 LINE",
"70 0 LINE"
);
},
{
closed = 1;
nodes = (
"359 760 LINE",
"380 880 LINE",
"270 880 LINE",
"249 760 LINE"
);
},
{
closed = 1;
nodes = (
"519 760 LINE",
"540 880 LINE",
"430 880 LINE",
"409 760 LINE"
);
}
);
width = 475;
}
);
leftKerningGroup = H;
rightKerningGroup = E;
unicode = 00CB;
},
{
glyphname = Edotaccent;
layers = (
{
hints = (
{
horizontal = 1;
place = "{0, 70}";
},
{
horizontal = 1;
place = "{330, 70}";
},
{
horizontal = 1;
place = "{630, 70}";
},
{
horizontal = 1;
place = "{770, 110}";
}
);
layerId = UUID0;
paths = (
{
closed = 1;
nodes = (
"410 0 LINE",
"422 70 LINE",
"172 70 LINE",
"218 330 LINE",
"438 330 LINE",
"450 400 LINE",
"230 400 LINE",
"271 630 LINE",
"521 630 LINE",
"533 700 LINE",
"193 700 LINE",
"70 0 LINE"
);
},
{
closed = 1;
nodes = (
"425 770 LINE",
"445 880 LINE",
"355 880 LINE",
"335 770 LINE"
);
}
);
width = 450;
},
{
hints = (
{
horizontal = 1;
place = "{0, 80}";
},
{
horizontal = 1;
place = "{325, 80}";
},
{
horizontal = 1;
place = "{620, 80}";
},
{
horizontal = 1;
place = "{760, 120}";
}
);
layerId = "97C2AB1A-35E1-4EAE-9807-DD7336879977";
paths = (
{
closed = 1;
nodes = (
"435 0 LINE",
"449 80 LINE",
"204 80 LINE",
"247 325 LINE",
"462 325 LINE",
"476 405 LINE",
"261 405 LINE",
"299 620 LINE",
"544 620 LINE",
"558 700 LINE",
"193 700 LINE",
"70 0 LINE"
);
},
{
closed = 1;
nodes = (
"449 760 LINE",
"470 880 LINE",
"360 880 LINE",
"339 760 LINE"
);
}
);
width = 475;
}
);
leftKerningGroup = H;
rightKerningGroup = E;
unicode = 0116;
},
{
color = 9;
glyphname = Egrave;
layers = (
{
hints = (
{
horizontal = 1;
place = "{0, 70}";
},
{
horizontal = 1;
place = "{330, 70}";
},
{
horizontal = 1;
place = "{630, 70}";
},
{
horizontal = 1;
place = "{750, 130}";
}
);
layerId = UUID0;
paths = (
{
closed = 1;
nodes = (
"410 0 LINE",
"422 70 LINE",
"172 70 LINE",
"218 330 LINE",
"438 330 LINE",
"450 400 LINE",
"230 400 LINE",
"271 630 LINE",
"521 630 LINE",
"533 700 LINE",
"193 700 LINE",
"70 0 LINE"
);
},
{
closed = 1;
nodes = (
"412 750 LINE",
"400 880 LINE",
"305 880 LINE",
"352 750 LINE"
);
}
);
width = 450;
},
{
hints = (
{
horizontal = 1;
place = "{0, 80}";
},
{
horizontal = 1;
place = "{325, 80}";
},
{
horizontal = 1;
place = "{620, 80}";
},
{
horizontal = 1;
place = "{750, 130}";
}
);
layerId = "97C2AB1A-35E1-4EAE-9807-DD7336879977";
paths = (
{
closed = 1;
nodes = (
"435 0 LINE",
"449 80 LINE",
"204 80 LINE",
"247 325 LINE",
"462 325 LINE",
"476 405 LINE",
"261 405 LINE",
"299 620 LINE",
"544 620 LINE",
"558 700 LINE",
"193 700 LINE",
"70 0 LINE"
);
},
{
closed = 1;
nodes = (
"437 750 LINE",
"425 880 LINE",
"310 880 LINE",
"362 750 LINE"
);
}
);
width = 475;
}
);
leftKerningGroup = H;
rightKerningGroup = E;
unicode = 00C8;
},
{
glyphname = Emacron;
layers = (
{
hints = (
{
horizontal = 1;
place = "{0, 70}";
},
{
horizontal = 1;
place = "{330, 70}";
},
{
horizontal = 1;
place = "{630, 70}";
},
{
horizontal = 1;
place = "{770, 60}";
}
);
layerId = UUID0;
paths = (
{
closed = 1;
nodes = (
"410 0 LINE",
"422 70 LINE",
"172 70 LINE",
"218 330 LINE",
"438 330 LINE",
"450 400 LINE",
"230 400 LINE",
"271 630 LINE",
"521 630 LINE",
"533 700 LINE",
"193 700 LINE",
"70 0 LINE"
);
},
{
closed = 1;
nodes = (
"489 770 LINE",
"500 830 LINE",
"270 830 LINE",
"259 770 LINE"
);
}
);
width = 450;
},
{
hints = (
{
horizontal = 1;
place = "{0, 80}";
},
{
horizontal = 1;
place = "{325, 80}";
},
{
horizontal = 1;
place = "{620, 80}";
},
{
horizontal = 1;
place = "{760, 70}";
}
);
layerId = "97C2AB1A-35E1-4EAE-9807-DD7336879977";
paths = (
{
closed = 1;
nodes = (
"435 0 LINE",
"449 80 LINE",
"204 80 LINE",
"247 325 LINE",
"462 325 LINE",
"476 405 LINE",
"261 405 LINE",
"299 620 LINE",
"544 620 LINE",
"558 700 LINE",
"193 700 LINE",
"70 0 LINE"
);
},
{
closed = 1;
nodes = (
"509 760 LINE",
"521 830 LINE",
"281 830 LINE",
"269 760 LINE"
);
}
);
width = 475;
}
);
leftKerningGroup = H;
rightKerningGroup = E;
unicode = 0112;
},
{
glyphname = Eogonek;
layers = (
{
hints = (
{
horizontal = 1;
place = "{-160, 56}";
},
{
horizontal = 1;
place = "{0, 70}";
},
{
horizontal = 1;
place = "{330, 70}";
},
{
horizontal = 1;
place = "{630, 70}";
}
);
layerId = UUID0;
paths = (
{
closed = 1;
nodes = (
"401 -160 OFFCURVE",
"434 -145 OFFCURVE",
"434 -145 CURVE",
"441 -104 LINE",
"406 -104 LINE SMOOTH",
"361 -104 OFFCURVE",
"349 -90 OFFCURVE",
"357 -45 CURVE SMOOTH",
"365 0 LINE",
"410 0 LINE",
"422 70 LINE",
"172 70 LINE",
"218 330 LINE",
"438 330 LINE",
"450 400 LINE",
"230 400 LINE",
"271 630 LINE",
"521 630 LINE",
"533 700 LINE",
"193 700 LINE",
"70 0 LINE",
"325 0 LINE",
"325 0 OFFCURVE",
"293 -35 OFFCURVE",
"285 -80 CURVE SMOOTH",
"277 -130 OFFCURVE",
"301 -160 OFFCURVE",
"356 -160 CURVE SMOOTH"
);
}
);
width = 450;
},
{
hints = (
{
horizontal = 1;
place = "{-160, 60}";
},
{
horizontal = 1;
place = "{0, 80}";
},
{
horizontal = 1;
place = "{325, 80}";
},
{
horizontal = 1;
place = "{620, 80}";
}
);
layerId = "97C2AB1A-35E1-4EAE-9807-DD7336879977";
paths = (
{
closed = 1;
nodes = (
"415 -160 OFFCURVE",
"449 -145 OFFCURVE",
"449 -145 CURVE",
"457 -100 LINE",
"421 -100 LINE SMOOTH",
"386 -100 OFFCURVE",
"370 -80 OFFCURVE",
"377 -45 CURVE SMOOTH",
"385 0 LINE",
"435 0 LINE",
"449 80 LINE",
"204 80 LINE",
"247 325 LINE",
"462 325 LINE",
"476 405 LINE",
"261 405 LINE",
"299 620 LINE",
"544 620 LINE",
"558 700 LINE",
"193 700 LINE",
"70 0 LINE",
"335 0 LINE",
"335 0 OFFCURVE",
"303 -30 OFFCURVE",
"294 -80 CURVE SMOOTH",
"286 -125 OFFCURVE",
"315 -160 OFFCURVE",
"370 -160 CURVE SMOOTH"
);
}
);
width = 465;
}
);
leftKerningGroup = H;
rightKerningGroup = E;
unicode = 0118;
},
{
glyphname = F;
layers = (
{
hints = (
{
horizontal = 1;
place = "{630, 70}";
},
{
horizontal = 1;
place = "{315, 70}";
},
{
horizontal = 1;
place = "{0, 21}";
target = up;
type = BottomGhost;
}
);
layerId = UUID0;
paths = (
{
closed = 1;
nodes = (
"160 0 LINE",
"215 315 LINE",
"425 315 LINE",
"437 385 LINE",
"227 385 LINE",
"271 630 LINE",
"521 630 LINE",
"533 700 LINE",
"193 700 LINE",
"70 0 LINE"
);
}
);
width = 430;
},
{
hints = (
{
horizontal = 1;
place = "{620, 80}";
},
{
horizontal = 1;
place = "{310, 80}";
},
{
horizontal = 1;
place = "{0, 21}";
target = up;
type = BottomGhost;
}
);
layerId = "97C2AB1A-35E1-4EAE-9807-DD7336879977";
paths = (
{
closed = 1;
nodes = (
"190 0 LINE",
"244 310 LINE",
"449 310 LINE",
"463 390 LINE",
"258 390 LINE",
"299 620 LINE",
"544 620 LINE",
"558 700 LINE",
"193 700 LINE",
"70 0 LINE"
);
}
);
width = 455;
}
);
leftKerningGroup = H;
rightKerningGroup = F;
unicode = 0046;
},
{
glyphname = G;
layers = (
{
hints = (
{
horizontal = 1;
place = "{-10, 65}";
},
{
horizontal = 1;
place = "{645, 65}";
}
);
layerId = UUID0;
paths = (
{
closed = 1;
nodes = (
"348 -10 OFFCURVE",
"410 0 OFFCURVE",
"441 10 CURVE",
"507 380 LINE",
"417 380 LINE",
"359 55 LINE",
"319 55 LINE SMOOTH",
"209 55 OFFCURVE",
"160 115 OFFCURVE",
"201 350 CURVE SMOOTH",
"243 585 OFFCURVE",
"313 645 OFFCURVE",
"403 645 CURVE SMOOTH",
"533 645 LINE",
"541 690 LINE",
"513 700 OFFCURVE",
"455 710 OFFCURVE",
"395 710 CURVE SMOOTH",
"255 710 OFFCURVE",
"161 630 OFFCURVE",
"111 350 CURVE SMOOTH",
"62 70 OFFCURVE",
"128 -10 OFFCURVE",
"288 -10 CURVE SMOOTH"
);
}
);
width = 500;
},
{
hints = (
{
horizontal = 1;
place = "{-10, 75}";
},
{
horizontal = 1;
place = "{635, 75}";
}
);
layerId = "97C2AB1A-35E1-4EAE-9807-DD7336879977";
paths = (
{
closed = 1;
nodes = (
"373 -10 OFFCURVE",
"435 0 OFFCURVE",
"466 10 CURVE",
"532 380 LINE",
"412 380 LINE",
"356 65 LINE",
"331 65 LINE SMOOTH",
"236 65 OFFCURVE",
"187 125 OFFCURVE",
"226 350 CURVE SMOOTH",
"266 575 OFFCURVE",
"336 635 OFFCURVE",
"421 635 CURVE SMOOTH",
"551 635 LINE",
"561 690 LINE",
"533 700 OFFCURVE",
"475 710 OFFCURVE",
"405 710 CURVE SMOOTH",
"250 710 OFFCURVE",
"156 630 OFFCURVE",
"106 350 CURVE SMOOTH",
"57 70 OFFCURVE",
"123 -10 OFFCURVE",
"298 -10 CURVE SMOOTH"
);
}
);
width = 525;
}
);
leftKerningGroup = O;
rightKerningGroup = C;
unicode = 0047;
},
{
glyphname = Gbreve;
layers = (
{
hints = (
{
horizontal = 1;
place = "{-10, 65}";
},
{
horizontal = 1;
place = "{645, 65}";
},
{
horizontal = 1;
place = "{760, 70}";
},
{
horizontal = 1;
place = "{875, -20}";
target = down;
type = TopGhost;
}
);
layerId = UUID0;
paths = (
{
closed = 1;
nodes = (
"348 -10 OFFCURVE",
"410 0 OFFCURVE",
"441 10 CURVE",
"507 380 LINE",
"417 380 LINE",
"359 55 LINE",
"319 55 LINE SMOOTH",
"209 55 OFFCURVE",
"160 115 OFFCURVE",
"201 350 CURVE SMOOTH",
"243 585 OFFCURVE",
"313 645 OFFCURVE",
"403 645 CURVE SMOOTH",
"533 645 LINE",
"541 690 LINE",
"513 700 OFFCURVE",
"455 710 OFFCURVE",
"395 710 CURVE SMOOTH",
"255 710 OFFCURVE",
"161 630 OFFCURVE",
"111 350 CURVE SMOOTH",
"62 70 OFFCURVE",
"128 -10 OFFCURVE",
"288 -10 CURVE SMOOTH"
);
},
{
closed = 1;
nodes = (
"469 760 OFFCURVE",
"524 790 OFFCURVE",
"557 835 CURVE",
"524 875 LINE",
"500 855 OFFCURVE",
"461 830 OFFCURVE",
"416 830 CURVE SMOOTH",
"371 830 OFFCURVE",
"340 855 OFFCURVE",
"324 875 CURVE",
"277 835 LINE",
"294 790 OFFCURVE",
"339 760 OFFCURVE",
"404 760 CURVE SMOOTH"
);
}
);
width = 505;
},
{
hints = (
{
horizontal = 1;
place = "{-10, 75}";
},
{
horizontal = 1;
place = "{635, 75}";
},
{
horizontal = 1;
place = "{755, 85}";
},
{
horizontal = 1;
place = "{885, -20}";
target = down;
type = TopGhost;
}
);
layerId = "97C2AB1A-35E1-4EAE-9807-DD7336879977";
paths = (
{
closed = 1;
nodes = (
"373 -10 OFFCURVE",
"435 0 OFFCURVE",
"466 10 CURVE",
"532 380 LINE",
"412 380 LINE",
"356 65 LINE",
"331 65 LINE SMOOTH",
"236 65 OFFCURVE",
"187 125 OFFCURVE",
"226 350 CURVE SMOOTH",
"266 575 OFFCURVE",
"336 635 OFFCURVE",
"421 635 CURVE SMOOTH",
"551 635 LINE",
"561 690 LINE",
"533 700 OFFCURVE",
"475 710 OFFCURVE",
"405 710 CURVE SMOOTH",
"250 710 OFFCURVE",
"156 630 OFFCURVE",
"106 350 CURVE SMOOTH",
"57 70 OFFCURVE",
"123 -10 OFFCURVE",
"298 -10 CURVE SMOOTH"
);
},
{
closed = 1;
nodes = (
"478 755 OFFCURVE",
"533 785 OFFCURVE",
"572 835 CURVE",
"531 885 LINE",
"507 865 OFFCURVE",
"468 840 OFFCURVE",
"428 840 CURVE SMOOTH",
"388 840 OFFCURVE",
"357 865 OFFCURVE",
"341 885 CURVE",
"282 835 LINE",
"303 785 OFFCURVE",
"348 755 OFFCURVE",
"413 755 CURVE SMOOTH"
);
}
);
width = 530;
}
);
leftKerningGroup = O;
rightKerningGroup = C;
unicode = 011E;
},
{
glyphname = Gcommaaccent;
layers = (
{
hints = (
{
horizontal = 1;
place = "{-220, 150}";
},
{
horizontal = 1;
place = "{-10, 65}";
},
{
horizontal = 1;
place = "{645, 65}";
}
);
layerId = UUID0;
paths = (
{
closed = 1;
nodes = (
"348 -10 OFFCURVE",
"410 0 OFFCURVE",
"441 10 CURVE",
"507 380 LINE",
"417 380 LINE",
"359 55 LINE",
"319 55 LINE SMOOTH",
"209 55 OFFCURVE",
"160 115 OFFCURVE",
"201 350 CURVE SMOOTH",
"243 585 OFFCURVE",
"313 645 OFFCURVE",
"403 645 CURVE SMOOTH",
"533 645 LINE",
"541 690 LINE",
"513 700 OFFCURVE",
"455 710 OFFCURVE",
"395 710 CURVE SMOOTH",
"255 710 OFFCURVE",
"161 630 OFFCURVE",
"111 350 CURVE SMOOTH",
"62 70 OFFCURVE",
"128 -10 OFFCURVE",
"288 -10 CURVE SMOOTH"
);
},
{
closed = 1;
nodes = (
"251 -220 LINE",
"307 -70 LINE",
"217 -70 LINE",
"191 -220 LINE"
);
}
);
width = 500;
},
{
hints = (
{
horizontal = 1;
place = "{-220, 150}";
},
{
horizontal = 1;
place = "{-10, 75}";
},
{
horizontal = 1;
place = "{635, 75}";
}
);
layerId = "97C2AB1A-35E1-4EAE-9807-DD7336879977";
paths = (
{
closed = 1;
nodes = (
"373 -10 OFFCURVE",
"435 0 OFFCURVE",
"466 10 CURVE",
"532 380 LINE",
"412 380 LINE",
"356 65 LINE",
"331 65 LINE SMOOTH",
"236 65 OFFCURVE",
"187 125 OFFCURVE",
"226 350 CURVE SMOOTH",
"266 575 OFFCURVE",
"336 635 OFFCURVE",
"421 635 CURVE SMOOTH",
"551 635 LINE",
"561 690 LINE",
"533 700 OFFCURVE",
"475 710 OFFCURVE",
"405 710 CURVE SMOOTH",
"250 710 OFFCURVE",
"156 630 OFFCURVE",
"106 350 CURVE SMOOTH",
"57 70 OFFCURVE",
"123 -10 OFFCURVE",
"298 -10 CURVE SMOOTH"
);
},
{
closed = 1;
nodes = (
"266 -220 LINE",
"327 -70 LINE",
"217 -70 LINE",
"191 -220 LINE"
);
}
);
width = 525;
}
);
leftKerningGroup = O;
rightKerningGroup = C;
unicode = 0122;
},
{
glyphname = H;
layers = (
{
hints = (
{
horizontal = 1;
place = "{320, 70}";
},
{
horizontal = 1;
place = "{700, -20}";
target = down;
type = TopGhost;
},
{
horizontal = 1;
place = "{0, 21}";
target = up;
type = BottomGhost;
}
);
layerId = UUID0;
paths = (
{
closed = 1;
nodes = (
"160 0 LINE",
"216 320 LINE",
"426 320 LINE",
"370 0 LINE",
"460 0 LINE",
"583 700 LINE",
"493 700 LINE",
"438 390 LINE",
"228 390 LINE",
"283 700 LINE",
"193 700 LINE",
"70 0 LINE"
);
}
);
width = 530;
},
{
hints = (
{
horizontal = 1;
place = "{315, 80}";
},
{
horizontal = 1;
place = "{700, -20}";
target = down;
type = TopGhost;
},
{
horizontal = 1;
place = "{0, 21}";
target = up;
type = BottomGhost;
}
);
layerId = "97C2AB1A-35E1-4EAE-9807-DD7336879977";
paths = (
{
closed = 1;
nodes = (
"190 0 LINE",
"245 315 LINE",
"425 315 LINE",
"370 0 LINE",
"490 0 LINE",
"613 700 LINE",
"493 700 LINE",
"439 395 LINE",
"259 395 LINE",
"313 700 LINE",
"193 700 LINE",
"70 0 LINE"
);
}
);
width = 560;
}
);
leftKerningGroup = H;
rightKerningGroup = H;
unicode = 0048;
},
{
glyphname = I;
layers = (
{
anchors = (
{
name = bottom;
position = "{114, 0}";
},
{
name = ogonek;
position = "{143, 0}";
},
{
name = top;
position = "{238, 700}";
},
{
name = topleft;
position = "{193, 700}";
}
);
hints = (
{
horizontal = 1;
place = "{700, -20}";
target = down;
type = TopGhost;
},
{
horizontal = 1;
place = "{0, 21}";
target = up;
type = BottomGhost;
}
);
layerId = UUID0;
paths = (
{
closed = 1;
nodes = (
"160 0 LINE",
"283 700 LINE",
"193 700 LINE",
"70 0 LINE"
);
}
);
width = 230;
},
{
anchors = (
{
name = bottom;
position = "{127, 0}";
},
{
name = ogonek;
position = "{167, 0}";
},
{
name = top;
position = "{258, 700}";
},
{
name = topleft;
position = "{193, 700}";
}
);
hints = (
{
horizontal = 1;
place = "{700, -20}";
target = down;
type = TopGhost;
},
{
horizontal = 1;
place = "{0, 21}";
target = up;
type = BottomGhost;
}
);
layerId = "97C2AB1A-35E1-4EAE-9807-DD7336879977";
paths = (
{
closed = 1;
nodes = (
"190 0 LINE",
"313 700 LINE",
"193 700 LINE",
"70 0 LINE"
);
}
);
width = 260;
}
);
leftKerningGroup = H;
rightKerningGroup = H;
unicode = 0049;
},
{
color = 9;
glyphname = Iacute;
layers = (
{
hints = (
{
horizontal = 1;
place = "{0, 21}";
target = up;
type = BottomGhost;
},
{
horizontal = 1;
place = "{700, -20}";
target = down;
type = TopGhost;
},
{
horizontal = 1;
place = "{880, -20}";
target = down;
type = TopGhost;
}
);
layerId = UUID0;
paths = (
{
closed = 1;
nodes = (
"160 0 LINE",
"283 700 LINE",
"193 700 LINE",
"70 0 LINE"
);
},
{
closed = 1;
nodes = (
"277 750 LINE",
"370 880 LINE",
"275 880 LINE",
"217 750 LINE"
);
}
);
width = 230;
},
{
hints = (
{
horizontal = 1;
place = "{750, 130}";
},
{
horizontal = 1;
place = "{0, 21}";
target = up;
type = BottomGhost;
},
{
horizontal = 1;
place = "{700, -20}";
target = down;
type = TopGhost;
}
);
layerId = "97C2AB1A-35E1-4EAE-9807-DD7336879977";
paths = (
{
closed = 1;
nodes = (
"190 0 LINE",
"313 700 LINE",
"193 700 LINE",
"70 0 LINE"
);
},
{
closed = 1;
nodes = (
"297 750 LINE",
"395 880 LINE",
"280 880 LINE",
"222 750 LINE"
);
}
);
width = 255;
}
);
leftKerningGroup = H;
rightKerningGroup = H;
unicode = 00CD;
},
{
glyphname = Icircumflex;
layers = (
{
hints = (
{
horizontal = 1;
place = "{750, 130}";
},
{
horizontal = 1;
place = "{0, 21}";
target = up;
type = BottomGhost;
},
{
horizontal = 1;
place = "{700, -20}";
target = down;
type = TopGhost;
}
);
layerId = UUID0;
paths = (
{
closed = 1;
nodes = (
"150 0 LINE",
"273 700 LINE",
"183 700 LINE",
"60 0 LINE"
);
},
{
closed = 1;
nodes = (
"177 750 LINE",
"252 824 LINE",
"302 750 LINE",
"362 750 LINE",
"310 880 LINE",
"215 880 LINE",
"117 750 LINE"
);
}
);
width = 215;
},
{
hints = (
{
horizontal = 1;
place = "{750, 130}";
},
{
horizontal = 1;
place = "{0, 21}";
target = up;
type = BottomGhost;
},
{
horizontal = 1;
place = "{700, -20}";
target = down;
type = TopGhost;
}
);
layerId = "97C2AB1A-35E1-4EAE-9807-DD7336879977";
paths = (
{
closed = 1;
nodes = (
"175 0 LINE",
"298 700 LINE",
"178 700 LINE",
"55 0 LINE"
);
},
{
closed = 1;
nodes = (
"193 750 LINE",
"261 820 LINE",
"305 750 LINE",
"382 750 LINE",
"325 880 LINE",
"220 880 LINE",
"117 750 LINE"
);
}
);
width = 235;
}
);
leftKerningGroup = H;
rightKerningGroup = H;
unicode = 00CE;
},
{
glyphname = Idieresis;
layers = (
{
hints = (
{
horizontal = 1;
place = "{770, 110}";
},
{
horizontal = 1;
place = "{0, 21}";
target = up;
type = BottomGhost;
},
{
horizontal = 1;
place = "{700, -20}";
target = down;
type = TopGhost;
}
);
layerId = UUID0;
paths = (
{
closed = 1;
nodes = (
"160 0 LINE",
"283 700 LINE",
"193 700 LINE",
"70 0 LINE"
);
},
{
closed = 1;
nodes = (
"215 770 LINE",
"235 880 LINE",
"145 880 LINE",
"125 770 LINE"
);
},
{
closed = 1;
nodes = (
"375 770 LINE",
"395 880 LINE",
"305 880 LINE",
"285 770 LINE"
);
}
);
width = 230;
},
{
hints = (
{
horizontal = 1;
place = "{760, 120}";
},
{
horizontal = 1;
place = "{0, 21}";
target = up;
type = BottomGhost;
},
{
horizontal = 1;
place = "{700, -20}";
target = down;
type = TopGhost;
}
);
layerId = "97C2AB1A-35E1-4EAE-9807-DD7336879977";
paths = (
{
closed = 1;
nodes = (
"185 0 LINE",
"308 700 LINE",
"188 700 LINE",
"65 0 LINE"
);
},
{
closed = 1;
nodes = (
"234 760 LINE",
"255 880 LINE",
"145 880 LINE",
"124 760 LINE"
);
},
{
closed = 1;
nodes = (
"394 760 LINE",
"415 880 LINE",
"305 880 LINE",
"284 760 LINE"
);
}
);
width = 250;
}
);
leftKerningGroup = H;
rightKerningGroup = H;
unicode = 00CF;
},
{
glyphname = Idotaccent;
layers = (
{
hints = (
{
horizontal = 1;
place = "{770, 110}";
},
{
horizontal = 1;
place = "{0, 21}";
target = up;
type = BottomGhost;
},
{
horizontal = 1;
place = "{700, -20}";
target = down;
type = TopGhost;
}
);
layerId = UUID0;
paths = (
{
closed = 1;
nodes = (
"160 0 LINE",
"283 700 LINE",
"193 700 LINE",
"70 0 LINE"
);
},
{
closed = 1;
nodes = (
"295 770 LINE",
"315 880 LINE",
"225 880 LINE",
"205 770 LINE"
);
}
);
width = 230;
},
{
hints = (
{
horizontal = 1;
place = "{760, 120}";
},
{
horizontal = 1;
place = "{0, 21}";
target = up;
type = BottomGhost;
},
{
horizontal = 1;
place = "{700, -20}";
target = down;
type = TopGhost;
}
);
layerId = "97C2AB1A-35E1-4EAE-9807-DD7336879977";
paths = (
{
closed = 1;
nodes = (
"190 0 LINE",
"313 700 LINE",
"193 700 LINE",
"70 0 LINE"
);
},
{
closed = 1;
nodes = (
"319 760 LINE",
"340 880 LINE",
"230 880 LINE",
"209 760 LINE"
);
}
);
width = 260;
}
);
leftKerningGroup = H;
rightKerningGroup = H;
unicode = 0130;
},
{
color = 9;
glyphname = Igrave;
layers = (
{
hints = (
{
horizontal = 1;
place = "{750, 130}";
},
{
horizontal = 1;
place = "{0, 21}";
target = up;
type = BottomGhost;
},
{
horizontal = 1;
place = "{700, -20}";
target = down;
type = TopGhost;
}
);
layerId = UUID0;
paths = (
{
closed = 1;
nodes = (
"155 0 LINE",
"278 700 LINE",
"188 700 LINE",
"65 0 LINE"
);
},
{
closed = 1;
nodes = (
"277 750 LINE",
"265 880 LINE",
"170 880 LINE",
"217 750 LINE"
);
}
);
width = 225;
},
{
hints = (
{
horizontal = 1;
place = "{750, 130}";
},
{
horizontal = 1;
place = "{0, 21}";
target = up;
type = BottomGhost;
},
{
horizontal = 1;
place = "{700, -20}";
target = down;
type = TopGhost;
}
);
layerId = "97C2AB1A-35E1-4EAE-9807-DD7336879977";
paths = (
{
closed = 1;
nodes = (
"185 0 LINE",
"308 700 LINE",
"188 700 LINE",
"65 0 LINE"
);
},
{
closed = 1;
nodes = (
"297 750 LINE",
"285 880 LINE",
"170 880 LINE",
"222 750 LINE"
);
}
);
width = 255;
}
);
leftKerningGroup = H;
rightKerningGroup = H;
unicode = 00CC;
},
{
glyphname = Imacron;
layers = (
{
hints = (
{
horizontal = 1;
place = "{760, 60}";
},
{
horizontal = 1;
place = "{0, 21}";
target = up;
type = BottomGhost;
},
{
horizontal = 1;
place = "{700, -20}";
target = down;
type = TopGhost;
}
);
layerId = UUID0;
paths = (
{
closed = 1;
nodes = (
"155 0 LINE",
"278 700 LINE",
"188 700 LINE",
"65 0 LINE"
);
},
{
closed = 1;
nodes = (
"359 760 LINE",
"369 820 LINE",
"139 820 LINE",
"129 760 LINE"
);
}
);
width = 220;
},
{
hints = (
{
horizontal = 1;
place = "{750, 70}";
},
{
horizontal = 1;
place = "{0, 21}";
target = up;
type = BottomGhost;
},
{
horizontal = 1;
place = "{700, -20}";
target = down;
type = TopGhost;
}
);
layerId = "97C2AB1A-35E1-4EAE-9807-DD7336879977";
paths = (
{
closed = 1;
nodes = (
"175 0 LINE",
"298 700 LINE",
"178 700 LINE",
"55 0 LINE"
);
},
{
closed = 1;
nodes = (
"367 750 LINE",
"379 820 LINE",
"139 820 LINE",
"127 750 LINE"
);
}
);
width = 230;
}
);
leftKerningGroup = H;
rightKerningGroup = H;
unicode = 012A;
},
{
glyphname = Iogonek;
layers = (
{
hints = (
{
horizontal = 1;
place = "{-160, 56}";
},
{
horizontal = 1;
place = "{0, 21}";
target = up;
type = BottomGhost;
},
{
horizontal = 1;
place = "{700, -20}";
target = down;
type = TopGhost;
}
);
layerId = UUID0;
paths = (
{
closed = 1;
nodes = (
"151 -160 OFFCURVE",
"184 -145 OFFCURVE",
"184 -145 CURVE",
"191 -104 LINE",
"156 -104 LINE SMOOTH",
"111 -104 OFFCURVE",
"99 -90 OFFCURVE",
"107 -45 CURVE SMOOTH",
"115 0 LINE",
"155 0 LINE",
"278 700 LINE",
"188 700 LINE",
"65 0 LINE",
"75 0 LINE",
"75 0 OFFCURVE",
"43 -35 OFFCURVE",
"35 -80 CURVE SMOOTH",
"27 -130 OFFCURVE",
"51 -160 OFFCURVE",
"106 -160 CURVE SMOOTH"
);
}
);
width = 220;
},
{
hints = (
{
horizontal = 1;
place = "{-160, 60}";
},
{
horizontal = 1;
place = "{0, 21}";
target = up;
type = BottomGhost;
},
{
horizontal = 1;
place = "{700, -20}";
target = down;
type = TopGhost;
}
);
layerId = "97C2AB1A-35E1-4EAE-9807-DD7336879977";
paths = (
{
closed = 1;
nodes = (
"156 -160 OFFCURVE",
"190 -145 OFFCURVE",
"190 -145 CURVE",
"198 -100 LINE",
"162 -100 LINE SMOOTH",
"127 -100 OFFCURVE",
"111 -80 OFFCURVE",
"118 -45 CURVE SMOOTH",
"126 0 LINE",
"176 0 LINE",
"299 700 LINE",
"179 700 LINE",
"56 0 LINE",
"76 0 LINE",
"76 0 OFFCURVE",
"44 -30 OFFCURVE",
"35 -80 CURVE SMOOTH",
"27 -125 OFFCURVE",
"56 -160 OFFCURVE",
"111 -160 CURVE SMOOTH"
);
}
);
width = 226;
}
);
leftKerningGroup = H;
rightKerningGroup = H;
unicode = 012E;
},
{
glyphname = J;
layers = (
{
hints = (
{
horizontal = 1;
place = "{-10, 65}";
},
{
horizontal = 1;
place = "{700, -20}";
target = down;
type = TopGhost;
}
);
layerId = UUID0;
paths = (
{
closed = 1;
nodes = (
"228 -10 OFFCURVE",
"298 50 OFFCURVE",
"332 240 CURVE SMOOTH",
"413 700 LINE",
"323 700 LINE",
"242 240 LINE SMOOTH",
"216 95 OFFCURVE",
"169 55 OFFCURVE",
"99 55 CURVE SMOOTH",
"9 55 LINE",
"1 10 LINE",
"25 0 OFFCURVE",
"58 -10 OFFCURVE",
"88 -10 CURVE SMOOTH"
);
}
);
width = 350;
},
{
hints = (
{
horizontal = 1;
place = "{-10, 75}";
},
{
horizontal = 1;
place = "{700, -20}";
target = down;
type = TopGhost;
}
);
layerId = "97C2AB1A-35E1-4EAE-9807-DD7336879977";
paths = (
{
closed = 1;
nodes = (
"243 -10 OFFCURVE",
"325 60 OFFCURVE",
"357 240 CURVE SMOOTH",
"438 700 LINE",
"318 700 LINE",
"237 240 LINE SMOOTH",
"213 105 OFFCURVE",
"166 65 OFFCURVE",
"111 65 CURVE SMOOTH",
"11 65 LINE",
"1 10 LINE",
"25 0 OFFCURVE",
"58 -10 OFFCURVE",
"98 -10 CURVE SMOOTH"
);
}
);
width = 375;
}
);
leftKerningGroup = J;
rightKerningGroup = U;
unicode = 004A;
},
{
glyphname = Jcircumflex;
layers = (
{
hints = (
{
horizontal = 1;
place = "{-10, 65}";
},
{
horizontal = 1;
place = "{740, 130}";
},
{
horizontal = 1;
place = "{700, -20}";
target = down;
type = TopGhost;
}
);
layerId = UUID0;
paths = (
{
closed = 1;
nodes = (
"228 -10 OFFCURVE",
"298 50 OFFCURVE",
"332 240 CURVE SMOOTH",
"413 700 LINE",
"323 700 LINE",
"242 240 LINE SMOOTH",
"216 95 OFFCURVE",
"169 55 OFFCURVE",
"99 55 CURVE SMOOTH",
"9 55 LINE",
"1 10 LINE",
"25 0 OFFCURVE",
"58 -10 OFFCURVE",
"88 -10 CURVE SMOOTH"
);
},
{
closed = 1;
nodes = (
"313 740 LINE",
"388 814 LINE",
"438 740 LINE",
"498 740 LINE",
"446 870 LINE",
"351 870 LINE",
"253 740 LINE"
);
}
);
width = 353;
},
{
hints = (
{
horizontal = 1;
place = "{-10, 75}";
},
{
horizontal = 1;
place = "{740, 130}";
},
{
horizontal = 1;
place = "{700, -20}";
target = down;
type = TopGhost;
}
);
layerId = "97C2AB1A-35E1-4EAE-9807-DD7336879977";
paths = (
{
closed = 1;
nodes = (
"243 -10 OFFCURVE",
"325 60 OFFCURVE",
"357 240 CURVE SMOOTH",
"438 700 LINE",
"318 700 LINE",
"237 240 LINE SMOOTH",
"213 105 OFFCURVE",
"166 65 OFFCURVE",
"111 65 CURVE SMOOTH",
"11 65 LINE",
"1 10 LINE",
"25 0 OFFCURVE",
"58 -10 OFFCURVE",
"98 -10 CURVE SMOOTH"
);
},
{
closed = 1;
nodes = (
"329 740 LINE",
"397 810 LINE",
"441 740 LINE",
"518 740 LINE",
"461 870 LINE",
"356 870 LINE",
"253 740 LINE"
);
}
);
width = 373;
}
);
leftKerningGroup = J;
rightKerningGroup = U;
unicode = 0134;
},
{
glyphname = K;
layers = (
{
hints = (
{
horizontal = 1;
place = "{700, -20}";
target = down;
type = TopGhost;
},
{
horizontal = 1;
place = "{0, 21}";
target = up;
type = BottomGhost;
}
);
layerId = UUID0;
paths = (
{
closed = 1;
nodes = (
"160 0 LINE",
"221 350 LINE",
"375 0 LINE",
"480 0 LINE",
"317 355 LINE",
"583 700 LINE",
"478 700 LINE",
"223 360 LINE",
"283 700 LINE",
"193 700 LINE",
"70 0 LINE"
);
}
);
width = 490;
},
{
hints = (
{
horizontal = 1;
place = "{700, -20}";
target = down;
type = TopGhost;
},
{
horizontal = 1;
place = "{0, 21}";
target = up;
type = BottomGhost;
}
);
layerId = "97C2AB1A-35E1-4EAE-9807-DD7336879977";
paths = (
{
closed = 1;
nodes = (
"190 0 LINE",
"248 330 LINE",
"375 0 LINE",
"510 0 LINE",
"367 355 LINE",
"613 700 LINE",
"478 700 LINE",
"257 380 LINE",
"313 700 LINE",
"193 700 LINE",
"70 0 LINE"
);
}
);
width = 520;
}
);
leftKerningGroup = H;
rightKerningGroup = K;
unicode = 004B;
},
{
glyphname = Kcommaaccent;
layers = (
{
hints = (
{
horizontal = 1;
place = "{-200, 150}";
},
{
horizontal = 1;
place = "{700, -20}";
target = down;
type = TopGhost;
},
{
horizontal = 1;
place = "{0, 21}";
target = up;
type = BottomGhost;
}
);
layerId = UUID0;
paths = (
{
closed = 1;
nodes = (
"160 0 LINE",
"221 350 LINE",
"375 0 LINE",
"480 0 LINE",
"317 355 LINE",
"583 700 LINE",
"478 700 LINE",
"223 360 LINE",
"283 700 LINE",
"193 700 LINE",
"70 0 LINE"
);
},
{
closed = 1;
nodes = (
"234 -200 LINE",
"291 -50 LINE",
"201 -50 LINE",
"174 -200 LINE"
);
}
);
width = 490;
},
{
hints = (
{
horizontal = 1;
place = "{-200, 150}";
},
{
horizontal = 1;
place = "{700, -20}";
target = down;
type = TopGhost;
},
{
horizontal = 1;
place = "{0, 21}";
target = up;
type = BottomGhost;
}
);
layerId = "97C2AB1A-35E1-4EAE-9807-DD7336879977";
paths = (
{
closed = 1;
nodes = (
"190 0 LINE",
"248 330 LINE",
"375 0 LINE",
"510 0 LINE",
"367 355 LINE",
"613 700 LINE",
"478 700 LINE",
"257 380 LINE",
"313 700 LINE",
"193 700 LINE",
"70 0 LINE"
);
},
{
closed = 1;
nodes = (
"254 -200 LINE",
"316 -50 LINE",
"206 -50 LINE",
"179 -200 LINE"
);
}
);
width = 520;
}
);
leftKerningGroup = H;
rightKerningGroup = K;
unicode = 0136;
},
{
glyphname = L;
layers = (
{
hints = (
{
horizontal = 1;
place = "{0, 70}";
},
{
horizontal = 1;
place = "{700, -20}";
target = down;
type = TopGhost;
}
);
layerId = UUID0;
paths = (
{
closed = 1;
nodes = (
"410 0 LINE",
"422 70 LINE",
"172 70 LINE",
"283 700 LINE",
"193 700 LINE",
"70 0 LINE"
);
}
);
width = 420;
},
{
hints = (
{
horizontal = 1;
place = "{0, 80}";
},
{
horizontal = 1;
place = "{700, -20}";
target = down;
type = TopGhost;
}
);
layerId = "97C2AB1A-35E1-4EAE-9807-DD7336879977";
paths = (
{
closed = 1;
nodes = (
"435 0 LINE",
"449 80 LINE",
"204 80 LINE",
"313 700 LINE",
"193 700 LINE",
"70 0 LINE"
);
}
);
width = 445;
}
);
leftKerningGroup = H;
rightKerningGroup = L;
unicode = 004C;
},
{
glyphname = Lcommaaccent;
layers = (
{
hints = (
{
horizontal = 1;
place = "{-210, 150}";
},
{
horizontal = 1;
place = "{0, 70}";
},
{
horizontal = 1;
place = "{700, -20}";
target = down;
type = TopGhost;
}
);
layerId = UUID0;
paths = (
{
closed = 1;
nodes = (
"410 0 LINE",
"422 70 LINE",
"172 70 LINE",
"283 700 LINE",
"193 700 LINE",
"70 0 LINE"
);
},
{
closed = 1;
nodes = (
"222 -210 LINE",
"279 -60 LINE",
"189 -60 LINE",
"162 -210 LINE"
);
}
);
width = 420;
},
{
hints = (
{
horizontal = 1;
place = "{-210, 150}";
},
{
horizontal = 1;
place = "{0, 80}";
},
{
horizontal = 1;
place = "{700, -20}";
target = down;
type = TopGhost;
}
);
layerId = "97C2AB1A-35E1-4EAE-9807-DD7336879977";
paths = (
{
closed = 1;
nodes = (
"435 0 LINE",
"449 80 LINE",
"204 80 LINE",
"313 700 LINE",
"193 700 LINE",
"70 0 LINE"
);
},
{
closed = 1;
nodes = (
"242 -210 LINE",
"304 -60 LINE",
"194 -60 LINE",
"167 -210 LINE"
);
}
);
width = 445;
}
);
leftKerningGroup = H;
rightKerningGroup = L;
unicode = 013B;
},
{
glyphname = Lslash;
layers = (
{
hints = (
{
horizontal = 1;
place = "{0, 70}";
},
{
horizontal = 1;
place = "{700, -20}";
target = down;
type = TopGhost;
}
);
layerId = UUID0;
paths = (
{
closed = 1;
nodes = (
"415 0 LINE",
"427 70 LINE",
"177 70 LINE",
"227 355 LINE",
"334 420 LINE",
"307 470 LINE",
"240 430 LINE",
"288 700 LINE",
"198 700 LINE",
"139 365 LINE",
"43 305 LINE",
"69 255 LINE",
"126 290 LINE",
"75 0 LINE"
);
}
);
width = 425;
},
{
hints = (
{
horizontal = 1;
place = "{0, 80}";
},
{
horizontal = 1;
place = "{700, -20}";
target = down;
type = TopGhost;
}
);
layerId = "97C2AB1A-35E1-4EAE-9807-DD7336879977";
paths = (
{
closed = 1;
nodes = (
"435 0 LINE",
"449 80 LINE",
"204 80 LINE",
"252 355 LINE",
"354 420 LINE",
"319 480 LINE",
"268 448 LINE",
"313 700 LINE",
"193 700 LINE",
"133 362 LINE",
"43 305 LINE",
"78 245 LINE",
"117 270 LINE",
"70 0 LINE"
);
}
);
width = 445;
}
);
leftKerningGroup = Hbar;
rightKerningGroup = L;
unicode = 0141;
},
{
glyphname = M;
layers = (
{
hints = (
{
horizontal = 1;
place = "{0, 21}";
target = up;
type = BottomGhost;
},
{
horizontal = 1;
place = "{700, -20}";
target = down;
type = TopGhost;
}
);
layerId = UUID0;
paths = (
{
closed = 1;
nodes = (
"145 0 LINE",
"266 520 LINE",
"271 520 LINE",
"340 90 LINE",
"430 90 LINE",
"651 520 LINE",
"656 520 LINE",
"595 0 LINE",
"685 0 LINE",
"768 700 LINE",
"658 700 LINE",
"410 220 LINE",
"406 220 LINE",
"328 700 LINE",
"218 700 LINE",
"55 0 LINE"
);
}
);
width = 740;
},
{
hints = (
{
horizontal = 1;
place = "{700, -20}";
target = down;
type = TopGhost;
},
{
horizontal = 1;
place = "{0, 21}";
target = up;
type = BottomGhost;
}
);
layerId = "97C2AB1A-35E1-4EAE-9807-DD7336879977";
paths = (
{
closed = 1;
nodes = (
"165 0 LINE",
"275 474 LINE",
"279 474 LINE",
"339 85 LINE",
"449 85 LINE",
"647 474 LINE",
"651 474 LINE",
"595 0 LINE",
"710 0 LINE",
"793 700 LINE",
"663 700 LINE",
"421 225 LINE",
"417 225 LINE",
"343 700 LINE",
"213 700 LINE",
"50 0 LINE"
);
}
);
width = 760;
}
);
leftKerningGroup = H;
rightKerningGroup = H;
unicode = 004D;
},
{
glyphname = N;
layers = (
{
hints = (
{
horizontal = 1;
place = "{0, 21}";
target = up;
type = BottomGhost;
},
{
horizontal = 1;
place = "{700, -20}";
target = down;
type = TopGhost;
}
);
layerId = UUID0;
paths = (
{
closed = 1;
nodes = (
"160 0 LINE",
"247 495 LINE",
"252 495 LINE",
"370 0 LINE",
"470 0 LINE",
"593 700 LINE",
"503 700 LINE",
"416 205 LINE",
"411 205 LINE",
"293 700 LINE",
"193 700 LINE",
"70 0 LINE"
);
}
);
width = 540;
},
{
hints = (
{
horizontal = 1;
place = "{0, 21}";
target = up;
type = BottomGhost;
},
{
horizontal = 1;
place = "{700, -20}";
target = down;
type = TopGhost;
}
);
layerId = "97C2AB1A-35E1-4EAE-9807-DD7336879977";
paths = (
{
closed = 1;
nodes = (
"185 0 LINE",
"266 460 LINE",
"271 460 LINE",
"380 0 LINE",
"500 0 LINE",
"623 700 LINE",
"508 700 LINE",
"427 240 LINE",
"422 240 LINE",
"313 700 LINE",
"193 700 LINE",
"70 0 LINE"
);
}
);
width = 570;
}
);
leftKerningGroup = H;
rightKerningGroup = H;
unicode = 004E;
},
{
glyphname = Nacute;
layers = (
{
hints = (
{
horizontal = 1;
place = "{880, -20}";
target = down;
type = TopGhost;
},
{
horizontal = 1;
place = "{0, 21}";
target = up;
type = BottomGhost;
},
{
horizontal = 1;
place = "{700, -20}";
target = down;
type = TopGhost;
}
);
layerId = UUID0;
paths = (
{
closed = 1;
nodes = (
"160 0 LINE",
"247 495 LINE",
"252 495 LINE",
"370 0 LINE",
"470 0 LINE",
"593 700 LINE",
"503 700 LINE",
"416 205 LINE",
"411 205 LINE",
"293 700 LINE",
"193 700 LINE",
"70 0 LINE"
);
},
{
closed = 1;
nodes = (
"432 750 LINE",
"525 880 LINE",
"430 880 LINE",
"372 750 LINE"
);
}
);
width = 540;
},
{
hints = (
{
horizontal = 1;
place = "{750, 130}";
},
{
horizontal = 1;
place = "{0, 21}";
target = up;
type = BottomGhost;
},
{
horizontal = 1;
place = "{700, -20}";
target = down;
type = TopGhost;
}
);
layerId = "97C2AB1A-35E1-4EAE-9807-DD7336879977";
paths = (
{
closed = 1;
nodes = (
"185 0 LINE",
"266 460 LINE",
"271 460 LINE",
"380 0 LINE",
"500 0 LINE",
"623 700 LINE",
"508 700 LINE",
"427 240 LINE",
"422 240 LINE",
"313 700 LINE",
"193 700 LINE",
"70 0 LINE"
);
},
{
closed = 1;
nodes = (
"452 750 LINE",
"550 880 LINE",
"435 880 LINE",
"377 750 LINE"
);
}
);
width = 570;
}
);
leftKerningGroup = H;
rightKerningGroup = H;
unicode = 0143;
},
{
glyphname = Ncommaaccent;
layers = (
{
hints = (
{
horizontal = 1;
place = "{-200, 150}";
},
{
horizontal = 1;
place = "{0, 21}";
target = up;
type = BottomGhost;
},
{
horizontal = 1;
place = "{700, -20}";
target = down;
type = TopGhost;
}
);
layerId = UUID0;
paths = (
{
closed = 1;
nodes = (
"160 0 LINE",
"247 495 LINE",
"252 495 LINE",
"370 0 LINE",
"470 0 LINE",
"593 700 LINE",
"503 700 LINE",
"416 205 LINE",
"411 205 LINE",
"293 700 LINE",
"193 700 LINE",
"70 0 LINE"
);
},
{
closed = 1;
nodes = (
"244 -200 LINE",
"301 -50 LINE",
"211 -50 LINE",
"184 -200 LINE"
);
}
);
width = 540;
},
{
hints = (
{
horizontal = 1;
place = "{-200, 150}";
},
{
horizontal = 1;
place = "{0, 21}";
target = up;
type = BottomGhost;
},
{
horizontal = 1;
place = "{700, -20}";
target = down;
type = TopGhost;
}
);
layerId = "97C2AB1A-35E1-4EAE-9807-DD7336879977";
paths = (
{
closed = 1;
nodes = (
"185 0 LINE",
"266 460 LINE",
"271 460 LINE",
"380 0 LINE",
"500 0 LINE",
"623 700 LINE",
"508 700 LINE",
"427 240 LINE",
"422 240 LINE",
"313 700 LINE",
"193 700 LINE",
"70 0 LINE"
);
},
{
closed = 1;
nodes = (
"264 -200 LINE",
"326 -50 LINE",
"216 -50 LINE",
"189 -200 LINE"
);
}
);
width = 570;
}
);
leftKerningGroup = H;
rightKerningGroup = H;
unicode = 0145;
},
{
glyphname = Ntilde;
layers = (
{
hints = (
{
horizontal = 1;
place = "{750, 60}";
},
{
horizontal = 1;
place = "{810, 60}";
},
{
horizontal = 1;
place = "{0, 21}";
target = up;
type = BottomGhost;
},
{
horizontal = 1;
place = "{700, -20}";
target = down;
type = TopGhost;
}
);
layerId = UUID0;
paths = (
{
closed = 1;
nodes = (
"160 0 LINE",
"247 495 LINE",
"252 495 LINE",
"370 0 LINE",
"470 0 LINE",
"593 700 LINE",
"503 700 LINE",
"416 205 LINE",
"411 205 LINE",
"293 700 LINE",
"193 700 LINE",
"70 0 LINE"
);
},
{
closed = 1;
nodes = (
"397 750 OFFCURVE",
"422 810 OFFCURVE",
"447 810 CURVE SMOOTH",
"462 810 OFFCURVE",
"470 795 OFFCURVE",
"464 765 CURVE",
"514 765 LINE",
"528 840 OFFCURVE",
"508 870 OFFCURVE",
"458 870 CURVE SMOOTH",
"408 870 OFFCURVE",
"382 810 OFFCURVE",
"357 810 CURVE SMOOTH",
"342 810 OFFCURVE",
"335 825 OFFCURVE",
"340 855 CURVE",
"290 855 LINE",
"277 780 OFFCURVE",
"297 750 OFFCURVE",
"347 750 CURVE SMOOTH"
);
}
);
width = 540;
},
{
hints = (
{
horizontal = 1;
place = "{745, 80}";
},
{
horizontal = 1;
place = "{795, 30}";
},
{
horizontal = 1;
place = "{795, 80}";
},
{
horizontal = 1;
place = "{0, 21}";
target = up;
type = BottomGhost;
},
{
horizontal = 1;
place = "{700, -20}";
target = down;
type = TopGhost;
}
);
layerId = "97C2AB1A-35E1-4EAE-9807-DD7336879977";
paths = (
{
closed = 1;
nodes = (
"185 0 LINE",
"266 460 LINE",
"271 460 LINE",
"380 0 LINE",
"500 0 LINE",
"623 700 LINE",
"508 700 LINE",
"427 240 LINE",
"422 240 LINE",
"313 700 LINE",
"193 700 LINE",
"70 0 LINE"
);
},
{
closed = 1;
nodes = (
"401 745 OFFCURVE",
"430 795 OFFCURVE",
"455 795 CURVE SMOOTH",
"470 795 OFFCURVE",
"477 780 OFFCURVE",
"473 755 CURVE",
"533 755 LINE",
"548 845 OFFCURVE",
"524 875 OFFCURVE",
"479 875 CURVE SMOOTH",
"434 875 OFFCURVE",
"405 825 OFFCURVE",
"380 825 CURVE SMOOTH",
"365 825 OFFCURVE",
"358 840 OFFCURVE",
"362 865 CURVE",
"302 865 LINE",
"286 775 OFFCURVE",
"311 745 OFFCURVE",
"356 745 CURVE SMOOTH"
);
}
);
width = 570;
}
);
leftKerningGroup = H;
rightKerningGroup = H;
unicode = 00D1;
},
{
glyphname = O;
layers = (
{
anchors = (
{
name = bottom;
position = "{269, 0}";
},
{
name = center;
position = "{283, 350}";
},
{
name = ogonek;
position = "{433, 10}";
},
{
name = top;
position = "{390, 700}";
},
{
name = topleft;
position = "{99, 700}";
},
{
name = topright;
position = "{539, 700}";
}
);
hints = (
{
horizontal = 1;
place = "{-10, 60}";
},
{
horizontal = 1;
place = "{650, 60}";
}
);
layerId = UUID0;
paths = (
{
closed = 1;
nodes = (
"398 -10 OFFCURVE",
"492 70 OFFCURVE",
"541 350 CURVE SMOOTH",
"591 630 OFFCURVE",
"525 710 OFFCURVE",
"390 710 CURVE SMOOTH",
"255 710 OFFCURVE",
"161 630 OFFCURVE",
"111 350 CURVE SMOOTH",
"62 70 OFFCURVE",
"128 -10 OFFCURVE",
"263 -10 CURVE SMOOTH"
);
},
{
closed = 1;
nodes = (
"208 50 OFFCURVE",
"159 110 OFFCURVE",
"201 350 CURVE SMOOTH",
"244 590 OFFCURVE",
"314 650 OFFCURVE",
"379 650 CURVE SMOOTH",
"444 650 OFFCURVE",
"494 590 OFFCURVE",
"451 350 CURVE SMOOTH",
"409 110 OFFCURVE",
"338 50 OFFCURVE",
"273 50 CURVE SMOOTH"
);
}
);
width = 530;
},
{
anchors = (
{
name = bottom;
position = "{275, 0}";
},
{
name = center;
position = "{293, 350}";
},
{
name = ogonek;
position = "{451, 10}";
},
{
name = top;
position = "{400, 700}";
},
{
name = topleft;
position = "{99, 700}";
},
{
name = topright;
position = "{543, 700}";
}
);
hints = (
{
horizontal = 1;
place = "{-10, 70}";
},
{
horizontal = 1;
place = "{640, 70}";
}
);
layerId = "97C2AB1A-35E1-4EAE-9807-DD7336879977";
paths = (
{
closed = 1;
nodes = (
"413 -10 OFFCURVE",
"519 80 OFFCURVE",
"566 350 CURVE SMOOTH",
"614 620 OFFCURVE",
"540 710 OFFCURVE",
"400 710 CURVE",
"260 710 OFFCURVE",
"154 620 OFFCURVE",
"106 350 CURVE",
"59 80 OFFCURVE",
"133 -10 OFFCURVE",
"273 -10 CURVE"
);
},
{
closed = 1;
nodes = (
"230 60 OFFCURVE",
"186 120 OFFCURVE",
"226 350 CURVE",
"267 580 OFFCURVE",
"332 640 OFFCURVE",
"387 640 CURVE",
"442 640 OFFCURVE",
"487 580 OFFCURVE",
"446 350 CURVE SMOOTH",
"406 120 OFFCURVE",
"340 60 OFFCURVE",
"285 60 CURVE SMOOTH"
);
}
);
width = 550;
}
);
leftKerningGroup = O;
rightKerningGroup = O;
unicode = 004F;
},
{
color = 9;
glyphname = Oacute;
layers = (
{
hints = (
{
horizontal = 1;
place = "{-10, 60}";
},
{
horizontal = 1;
place = "{650, 60}";
},
{
horizontal = 1;
place = "{650, 240}";
}
);
layerId = UUID0;
paths = (
{
closed = 1;
nodes = (
"398 -10 OFFCURVE",
"492 70 OFFCURVE",
"541 350 CURVE SMOOTH",
"591 630 OFFCURVE",
"525 710 OFFCURVE",
"390 710 CURVE SMOOTH",
"255 710 OFFCURVE",
"161 630 OFFCURVE",
"111 350 CURVE SMOOTH",
"62 70 OFFCURVE",
"128 -10 OFFCURVE",
"263 -10 CURVE SMOOTH"
);
},
{
closed = 1;
nodes = (
"208 50 OFFCURVE",
"159 110 OFFCURVE",
"201 350 CURVE SMOOTH",
"244 590 OFFCURVE",
"314 650 OFFCURVE",
"379 650 CURVE SMOOTH",
"444 650 OFFCURVE",
"494 590 OFFCURVE",
"451 350 CURVE SMOOTH",
"409 110 OFFCURVE",
"338 50 OFFCURVE",
"273 50 CURVE SMOOTH"
);
},
{
closed = 1;
nodes = (
"424 760 LINE",
"516 890 LINE",
"421 890 LINE",
"364 760 LINE"
);
}
);
width = 530;
},
{
hints = (
{
horizontal = 1;
place = "{-10, 70}";
},
{
horizontal = 1;
place = "{640, 70}";
},
{
horizontal = 1;
place = "{760, 130}";
}
);
layerId = "97C2AB1A-35E1-4EAE-9807-DD7336879977";
paths = (
{
closed = 1;
nodes = (
"413 -10 OFFCURVE",
"519 80 OFFCURVE",
"566 350 CURVE SMOOTH",
"614 620 OFFCURVE",
"540 710 OFFCURVE",
"400 710 CURVE",
"260 710 OFFCURVE",
"154 620 OFFCURVE",
"106 350 CURVE",
"59 80 OFFCURVE",
"133 -10 OFFCURVE",
"273 -10 CURVE"
);
},
{
closed = 1;
nodes = (
"230 60 OFFCURVE",
"186 120 OFFCURVE",
"226 350 CURVE",
"267 580 OFFCURVE",
"332 640 OFFCURVE",
"387 640 CURVE",
"442 640 OFFCURVE",
"487 580 OFFCURVE",
"446 350 CURVE SMOOTH",
"406 120 OFFCURVE",
"340 60 OFFCURVE",
"285 60 CURVE SMOOTH"
);
},
{
closed = 1;
nodes = (
"439 760 LINE",
"536 890 LINE",
"421 890 LINE",
"364 760 LINE"
);
}
);
width = 550;
}
);
leftKerningGroup = O;
rightKerningGroup = O;
unicode = 00D3;
},
{
color = 9;
glyphname = Ocircumflex;
layers = (
{
hints = (
{
horizontal = 1;
place = "{-10, 60}";
},
{
horizontal = 1;
place = "{650, 60}";
},
{
horizontal = 1;
place = "{760, 130}";
}
);
layerId = UUID0;
paths = (
{
closed = 1;
nodes = (
"398 -10 OFFCURVE",
"492 70 OFFCURVE",
"541 350 CURVE SMOOTH",
"591 630 OFFCURVE",
"525 710 OFFCURVE",
"390 710 CURVE SMOOTH",
"255 710 OFFCURVE",
"161 630 OFFCURVE",
"111 350 CURVE SMOOTH",
"62 70 OFFCURVE",
"128 -10 OFFCURVE",
"263 -10 CURVE SMOOTH"
);
},
{
closed = 1;
nodes = (
"208 50 OFFCURVE",
"159 110 OFFCURVE",
"201 350 CURVE SMOOTH",
"244 590 OFFCURVE",
"314 650 OFFCURVE",
"379 650 CURVE SMOOTH",
"444 650 OFFCURVE",
"494 590 OFFCURVE",
"451 350 CURVE SMOOTH",
"409 110 OFFCURVE",
"338 50 OFFCURVE",
"273 50 CURVE SMOOTH"
);
},
{
closed = 1;
nodes = (
"339 760 LINE",
"414 834 LINE",
"464 760 LINE",
"524 760 LINE",
"471 890 LINE",
"376 890 LINE",
"279 760 LINE"
);
}
);
width = 530;
},
{
hints = (
{
horizontal = 1;
place = "{-10, 70}";
},
{
horizontal = 1;
place = "{640, 70}";
},
{
horizontal = 1;
place = "{760, 130}";
}
);
layerId = "97C2AB1A-35E1-4EAE-9807-DD7336879977";
paths = (
{
closed = 1;
nodes = (
"413 -10 OFFCURVE",
"519 80 OFFCURVE",
"566 350 CURVE SMOOTH",
"614 620 OFFCURVE",
"540 710 OFFCURVE",
"400 710 CURVE",
"260 710 OFFCURVE",
"154 620 OFFCURVE",
"106 350 CURVE",
"59 80 OFFCURVE",
"133 -10 OFFCURVE",
"273 -10 CURVE"
);
},
{
closed = 1;
nodes = (
"230 60 OFFCURVE",
"186 120 OFFCURVE",
"226 350 CURVE",
"267 580 OFFCURVE",
"332 640 OFFCURVE",
"387 640 CURVE",
"442 640 OFFCURVE",
"487 580 OFFCURVE",
"446 350 CURVE SMOOTH",
"406 120 OFFCURVE",
"340 60 OFFCURVE",
"285 60 CURVE SMOOTH"
);
},
{
closed = 1;
nodes = (
"355 760 LINE",
"423 830 LINE",
"467 760 LINE",
"544 760 LINE",
"486 890 LINE",
"381 890 LINE",
"279 760 LINE"
);
}
);
width = 550;
}
);
leftKerningGroup = O;
rightKerningGroup = O;
unicode = 00D4;
},
{
glyphname = Odieresis;
layers = (
{
hints = (
{
horizontal = 1;
place = "{-10, 60}";
},
{
horizontal = 1;
place = "{650, 60}";
},
{
horizontal = 1;
place = "{770, 110}";
}
);
layerId = UUID0;
paths = (
{
closed = 1;
nodes = (
"398 -10 OFFCURVE",
"492 70 OFFCURVE",
"541 350 CURVE SMOOTH",
"591 630 OFFCURVE",
"525 710 OFFCURVE",
"390 710 CURVE SMOOTH",
"255 710 OFFCURVE",
"161 630 OFFCURVE",
"111 350 CURVE SMOOTH",
"62 70 OFFCURVE",
"128 -10 OFFCURVE",
"263 -10 CURVE SMOOTH"
);
},
{
closed = 1;
nodes = (
"208 50 OFFCURVE",
"159 110 OFFCURVE",
"201 350 CURVE SMOOTH",
"244 590 OFFCURVE",
"314 650 OFFCURVE",
"379 650 CURVE SMOOTH",
"444 650 OFFCURVE",
"494 590 OFFCURVE",
"451 350 CURVE SMOOTH",
"409 110 OFFCURVE",
"338 50 OFFCURVE",
"273 50 CURVE SMOOTH"
);
},
{
closed = 1;
nodes = (
"365 770 LINE",
"385 880 LINE",
"295 880 LINE",
"275 770 LINE"
);
},
{
closed = 1;
nodes = (
"525 770 LINE",
"545 880 LINE",
"455 880 LINE",
"435 770 LINE"
);
}
);
width = 530;
},
{
hints = (
{
horizontal = 1;
place = "{-10, 70}";
},
{
horizontal = 1;
place = "{640, 70}";
},
{
horizontal = 1;
place = "{760, 120}";
}
);
layerId = "97C2AB1A-35E1-4EAE-9807-DD7336879977";
paths = (
{
closed = 1;
nodes = (
"413 -10 OFFCURVE",
"519 80 OFFCURVE",
"566 350 CURVE SMOOTH",
"614 620 OFFCURVE",
"540 710 OFFCURVE",
"400 710 CURVE",
"260 710 OFFCURVE",
"154 620 OFFCURVE",
"106 350 CURVE",
"59 80 OFFCURVE",
"133 -10 OFFCURVE",
"273 -10 CURVE"
);
},
{
closed = 1;
nodes = (
"230 60 OFFCURVE",
"186 120 OFFCURVE",
"226 350 CURVE",
"267 580 OFFCURVE",
"332 640 OFFCURVE",
"387 640 CURVE",
"442 640 OFFCURVE",
"487 580 OFFCURVE",
"446 350 CURVE SMOOTH",
"406 120 OFFCURVE",
"340 60 OFFCURVE",
"285 60 CURVE SMOOTH"
);
},
{
closed = 1;
nodes = (
"384 760 LINE",
"405 880 LINE",
"295 880 LINE",
"274 760 LINE"
);
},
{
closed = 1;
nodes = (
"544 760 LINE",
"565 880 LINE",
"455 880 LINE",
"434 760 LINE"
);
}
);
width = 550;
}
);
leftKerningGroup = O;
rightKerningGroup = O;
unicode = 00D6;
},
{
color = 9;
glyphname = Ograve;
layers = (
{
hints = (
{
horizontal = 1;
place = "{-10, 60}";
},
{
horizontal = 1;
place = "{650, 60}";
},
{
horizontal = 1;
place = "{760, 130}";
}
);
layerId = UUID0;
paths = (
{
closed = 1;
nodes = (
"398 -10 OFFCURVE",
"492 70 OFFCURVE",
"541 350 CURVE SMOOTH",
"591 630 OFFCURVE",
"525 710 OFFCURVE",
"390 710 CURVE SMOOTH",
"255 710 OFFCURVE",
"161 630 OFFCURVE",
"111 350 CURVE SMOOTH",
"62 70 OFFCURVE",
"128 -10 OFFCURVE",
"263 -10 CURVE SMOOTH"
);
},
{
closed = 1;
nodes = (
"208 50 OFFCURVE",
"159 110 OFFCURVE",
"201 350 CURVE SMOOTH",
"244 590 OFFCURVE",
"314 650 OFFCURVE",
"379 650 CURVE SMOOTH",
"444 650 OFFCURVE",
"494 590 OFFCURVE",
"451 350 CURVE SMOOTH",
"409 110 OFFCURVE",
"338 50 OFFCURVE",
"273 50 CURVE SMOOTH"
);
},
{
closed = 1;
nodes = (
"434 760 LINE",
"421 890 LINE",
"326 890 LINE",
"374 760 LINE"
);
}
);
width = 530;
},
{
hints = (
{
horizontal = 1;
place = "{-10, 70}";
},
{
horizontal = 1;
place = "{640, 70}";
},
{
horizontal = 1;
place = "{760, 130}";
}
);
layerId = "97C2AB1A-35E1-4EAE-9807-DD7336879977";
paths = (
{
closed = 1;
nodes = (
"413 -10 OFFCURVE",
"519 80 OFFCURVE",
"566 350 CURVE SMOOTH",
"614 620 OFFCURVE",
"540 710 OFFCURVE",
"400 710 CURVE",
"260 710 OFFCURVE",
"154 620 OFFCURVE",
"106 350 CURVE",
"59 80 OFFCURVE",
"133 -10 OFFCURVE",
"273 -10 CURVE"
);
},
{
closed = 1;
nodes = (
"230 60 OFFCURVE",
"186 120 OFFCURVE",
"226 350 CURVE",
"267 580 OFFCURVE",
"332 640 OFFCURVE",
"387 640 CURVE",
"442 640 OFFCURVE",
"487 580 OFFCURVE",
"446 350 CURVE SMOOTH",
"406 120 OFFCURVE",
"340 60 OFFCURVE",
"285 60 CURVE SMOOTH"
);
},
{
closed = 1;
nodes = (
"449 760 LINE",
"436 890 LINE",
"321 890 LINE",
"374 760 LINE"
);
}
);
width = 550;
}
);
leftKerningGroup = O;
rightKerningGroup = O;
unicode = 00D2;
},
{
glyphname = Omacron;
layers = (
{
hints = (
{
horizontal = 1;
place = "{-10, 60}";
},
{
horizontal = 1;
place = "{650, 60}";
},
{
horizontal = 1;
place = "{770, 60}";
}
);
layerId = UUID0;
paths = (
{
closed = 1;
nodes = (
"398 -10 OFFCURVE",
"492 70 OFFCURVE",
"541 350 CURVE SMOOTH",
"591 630 OFFCURVE",
"525 710 OFFCURVE",
"390 710 CURVE SMOOTH",
"255 710 OFFCURVE",
"161 630 OFFCURVE",
"111 350 CURVE SMOOTH",
"62 70 OFFCURVE",
"128 -10 OFFCURVE",
"263 -10 CURVE SMOOTH"
);
},
{
closed = 1;
nodes = (
"208 50 OFFCURVE",
"159 110 OFFCURVE",
"201 350 CURVE SMOOTH",
"244 590 OFFCURVE",
"314 650 OFFCURVE",
"379 650 CURVE SMOOTH",
"444 650 OFFCURVE",
"494 590 OFFCURVE",
"451 350 CURVE SMOOTH",
"409 110 OFFCURVE",
"338 50 OFFCURVE",
"273 50 CURVE SMOOTH"
);
},
{
closed = 1;
nodes = (
"515 770 LINE",
"526 830 LINE",
"296 830 LINE",
"285 770 LINE"
);
}
);
width = 530;
},
{
hints = (
{
horizontal = 1;
place = "{-10, 70}";
},
{
horizontal = 1;
place = "{640, 70}";
},
{
horizontal = 1;
place = "{760, 70}";
}
);
layerId = "97C2AB1A-35E1-4EAE-9807-DD7336879977";
paths = (
{
closed = 1;
nodes = (
"413 -10 OFFCURVE",
"519 80 OFFCURVE",
"566 350 CURVE SMOOTH",
"614 620 OFFCURVE",
"540 710 OFFCURVE",
"400 710 CURVE",
"260 710 OFFCURVE",
"154 620 OFFCURVE",
"106 350 CURVE",
"59 80 OFFCURVE",
"133 -10 OFFCURVE",
"273 -10 CURVE"
);
},
{
closed = 1;
nodes = (
"230 60 OFFCURVE",
"186 120 OFFCURVE",
"226 350 CURVE",
"267 580 OFFCURVE",
"332 640 OFFCURVE",
"387 640 CURVE",
"442 640 OFFCURVE",
"487 580 OFFCURVE",
"446 350 CURVE SMOOTH",
"406 120 OFFCURVE",
"340 60 OFFCURVE",
"285 60 CURVE SMOOTH"
);
},
{
closed = 1;
nodes = (
"529 760 LINE",
"541 830 LINE",
"301 830 LINE",
"289 760 LINE"
);
}
);
width = 550;
}
);
leftKerningGroup = O;
rightKerningGroup = O;
unicode = 014C;
},
{
glyphname = Oslash;
layers = (
{
hints = (
{
horizontal = 1;
place = "{-10, 60}";
},
{
horizontal = 1;
place = "{650, 60}";
}
);
layerId = UUID0;
paths = (
{
closed = 1;
nodes = (
"403 -10 OFFCURVE",
"497 70 OFFCURVE",
"546 350 CURVE SMOOTH",
"563 447 OFFCURVE",
"566 520 OFFCURVE",
"558 574 CURVE",
"624 650 LINE",
"589 680 LINE",
"543 627 LINE",
"517 688 OFFCURVE",
"465 710 OFFCURVE",
"395 710 CURVE SMOOTH",
"260 710 OFFCURVE",
"166 630 OFFCURVE",
"116 350 CURVE SMOOTH",
"99 253 OFFCURVE",
"96 180 OFFCURVE",
"105 126 CURVE",
"38 50 LINE",
"73 20 LINE",
"119 73 LINE",
"146 12 OFFCURVE",
"197 -10 OFFCURVE",
"268 -10 CURVE SMOOTH"
);
},
{
closed = 1;
nodes = (
"236 50 OFFCURVE",
"201 75 OFFCURVE",
"192 156 CURVE",
"471 475 LINE",
"469 440 OFFCURVE",
"465 399 OFFCURVE",
"456 350 CURVE SMOOTH",
"414 110 OFFCURVE",
"343 50 OFFCURVE",
"278 50 CURVE SMOOTH"
);
},
{
closed = 1;
nodes = (
"192 260 OFFCURVE",
"198 301 OFFCURVE",
"206 350 CURVE SMOOTH",
"249 590 OFFCURVE",
"319 650 OFFCURVE",
"384 650 CURVE SMOOTH",
"426 650 OFFCURVE",
"461 625 OFFCURVE",
"469 543 CURVE",
"191 225 LINE"
);
}
);
width = 540;
},
{
hints = (
{
horizontal = 1;
place = "{-10, 70}";
},
{
horizontal = 1;
place = "{640, 70}";
}
);
layerId = "97C2AB1A-35E1-4EAE-9807-DD7336879977";
paths = (
{
closed = 1;
nodes = (
"413 -10 OFFCURVE",
"519 80 OFFCURVE",
"566 350 CURVE SMOOTH",
"583 447 OFFCURVE",
"584 520 OFFCURVE",
"573 575 CURVE",
"639 650 LINE",
"596 690 LINE",
"550 637 LINE",
"519 689 OFFCURVE",
"467 710 OFFCURVE",
"400 710 CURVE SMOOTH",
"260 710 OFFCURVE",
"154 620 OFFCURVE",
"106 350 CURVE SMOOTH",
"89 253 OFFCURVE",
"88 180 OFFCURVE",
"100 125 CURVE",
"33 50 LINE",
"76 10 LINE",
"122 62 LINE",
"153 11 OFFCURVE",
"205 -10 OFFCURVE",
"273 -10 CURVE SMOOTH"
);
},
{
closed = 1;
nodes = (
"249 60 OFFCURVE",
"218 85 OFFCURVE",
"211 164 CURVE",
"459 445 LINE",
"456 417 OFFCURVE",
"453 386 OFFCURVE",
"446 350 CURVE SMOOTH",
"406 120 OFFCURVE",
"340 60 OFFCURVE",
"285 60 CURVE SMOOTH"
);
},
{
closed = 1;
nodes = (
"215 282 OFFCURVE",
"220 314 OFFCURVE",
"226 350 CURVE SMOOTH",
"267 580 OFFCURVE",
"332 640 OFFCURVE",
"387 640 CURVE SMOOTH",
"422 640 OFFCURVE",
"454 615 OFFCURVE",
"460 535 CURVE",
"213 254 LINE"
);
}
);
width = 550;
}
);
leftKerningGroup = O;
rightKerningGroup = O;
unicode = 00D8;
},
{
glyphname = OE;
layers = (
{
hints = (
{
horizontal = 1;
place = "{0, 70}";
},
{
horizontal = 1;
place = "{330, 70}";
},
{
horizontal = 1;
place = "{630, 70}";
}
);
layerId = UUID0;
paths = (
{
closed = 1;
nodes = (
"700 0 LINE",
"712 70 LINE",
"462 70 LINE",
"508 330 LINE",
"728 330 LINE",
"740 400 LINE",
"520 400 LINE",
"561 630 LINE",
"811 630 LINE",
"823 700 LINE",
"453 700 LINE",
"263 700 OFFCURVE",
"145 600 OFFCURVE",
"101 350 CURVE",
"57 100 OFFCURVE",
"140 0 OFFCURVE",
"330 0 CURVE SMOOTH"
);
},
{
closed = 1;
nodes = (
"212 70 OFFCURVE",
"154 140 OFFCURVE",
"191 350 CURVE",
"228 560 OFFCURVE",
"311 630 OFFCURVE",
"441 630 CURVE SMOOTH",
"471 630 LINE",
"372 70 LINE",
"342 70 LINE SMOOTH"
);
}
);
width = 740;
},
{
hints = (
{
horizontal = 1;
place = "{0, 80}";
},
{
horizontal = 1;
place = "{325, 80}";
},
{
horizontal = 1;
place = "{620, 80}";
}
);
layerId = "97C2AB1A-35E1-4EAE-9807-DD7336879977";
paths = (
{
closed = 1;
nodes = (
"725 0 LINE",
"739 80 LINE",
"494 80 LINE",
"537 325 LINE",
"752 325 LINE",
"766 405 LINE",
"551 405 LINE",
"589 620 LINE",
"834 620 LINE",
"848 700 LINE",
"468 700 LINE",
"273 700 OFFCURVE",
"144 590 OFFCURVE",
"101 350 CURVE",
"59 110 OFFCURVE",
"150 0 OFFCURVE",
"345 0 CURVE SMOOTH"
);
},
{
closed = 1;
nodes = (
"244 80 OFFCURVE",
"186 150 OFFCURVE",
"221 350 CURVE",
"256 550 OFFCURVE",
"339 620 OFFCURVE",
"454 620 CURVE SMOOTH",
"469 620 LINE",
"374 80 LINE",
"359 80 LINE SMOOTH"
);
}
);
width = 765;
}
);
leftKerningGroup = O;
rightKerningGroup = E;
unicode = 0152;
},
{
glyphname = P;
layers = (
{
hints = (
{
horizontal = 1;
place = "{645, 65}";
},
{
horizontal = 1;
place = "{205, 70}";
},
{
horizontal = 1;
place = "{0, 21}";
target = up;
type = BottomGhost;
}
);
layerId = UUID0;
paths = (
{
closed = 1;
nodes = (
"160 0 LINE",
"197 215 LINE",
"222 210 OFFCURVE",
"266 205 OFFCURVE",
"296 205 CURVE SMOOTH",
"426 205 OFFCURVE",
"496 265 OFFCURVE",
"531 460 CURVE SMOOTH",
"564 650 OFFCURVE",
"515 710 OFFCURVE",
"355 710 CURVE SMOOTH",
"295 710 OFFCURVE",
"244 705 OFFCURVE",
"191 690 CURVE",
"70 0 LINE"
);
},
{
closed = 1;
nodes = (
"273 645 LINE",
"343 645 LINE SMOOTH",
"433 645 OFFCURVE",
"466 605 OFFCURVE",
"441 460 CURVE SMOOTH",
"415 315 OFFCURVE",
"368 275 OFFCURVE",
"278 275 CURVE SMOOTH",
"208 275 LINE"
);
}
);
width = 490;
},
{
hints = (
{
horizontal = 1;
place = "{635, 75}";
},
{
horizontal = 1;
place = "{200, 80}";
},
{
horizontal = 1;
place = "{0, 21}";
target = up;
type = BottomGhost;
}
);
layerId = "97C2AB1A-35E1-4EAE-9807-DD7336879977";
paths = (
{
closed = 1;
nodes = (
"190 0 LINE",
"227 210 LINE",
"251 205 OFFCURVE",
"295 200 OFFCURVE",
"310 200 CURVE SMOOTH",
"445 200 OFFCURVE",
"527 270 OFFCURVE",
"561 460 CURVE SMOOTH",
"592 640 OFFCURVE",
"535 710 OFFCURVE",
"370 710 CURVE SMOOTH",
"295 710 OFFCURVE",
"244 705 OFFCURVE",
"191 690 CURVE",
"70 0 LINE"
);
},
{
closed = 1;
nodes = (
"301 635 LINE",
"356 635 LINE SMOOTH",
"431 635 OFFCURVE",
"464 595 OFFCURVE",
"441 460 CURVE SMOOTH",
"416 320 OFFCURVE",
"369 280 OFFCURVE",
"294 280 CURVE SMOOTH",
"239 280 LINE"
);
}
);
width = 515;
}
);
leftKerningGroup = H;
rightKerningGroup = P;
unicode = 0050;
},
{
glyphname = Thorn;
layers = (
{
hints = (
{
horizontal = 1;
place = "{565, 145}";
},
{
horizontal = 1;
place = "{565, 65}";
},
{
horizontal = 1;
place = "{70, 65}";
},
{
horizontal = 1;
place = "{-10, 21}";
target = up;
type = BottomGhost;
}
);
layerId = UUID0;
paths = (
{
closed = 1;
nodes = (
"158 -10 LINE",
"172 70 LINE",
"379 80 OFFCURVE",
"490 175 OFFCURVE",
"521 350 CURVE",
"552 525 OFFCURVE",
"474 620 OFFCURVE",
"271 630 CURVE",
"285 710 LINE",
"195 710 LINE",
"68 -10 LINE"
);
},
{
closed = 1;
nodes = (
"259 565 LINE",
"398 560 OFFCURVE",
"456 490 OFFCURVE",
"431 350 CURVE",
"407 210 OFFCURVE",
"324 140 OFFCURVE",
"183 135 CURVE"
);
}
);
width = 500;
},
{
hints = (
{
horizontal = 1;
place = "{560, 150}";
},
{
horizontal = 1;
place = "{560, 75}";
},
{
horizontal = 1;
place = "{65, 75}";
},
{
horizontal = 1;
place = "{-10, 21}";
target = up;
type = BottomGhost;
}
);
layerId = "97C2AB1A-35E1-4EAE-9807-DD7336879977";
paths = (
{
closed = 1;
nodes = (
"188 -10 LINE",
"201 65 LINE",
"413 75 OFFCURVE",
"520 175 OFFCURVE",
"551 350 CURVE SMOOTH",
"582 525 OFFCURVE",
"510 625 OFFCURVE",
"301 635 CURVE",
"315 710 LINE",
"195 710 LINE",
"68 -10 LINE"
);
},
{
closed = 1;
nodes = (
"288 560 LINE",
"397 555 OFFCURVE",
"454 480 OFFCURVE",
"431 350 CURVE SMOOTH",
"408 220 OFFCURVE",
"325 145 OFFCURVE",
"214 140 CURVE"
);
}
);
width = 525;
}
);
leftKerningGroup = H;
rightKerningGroup = P;
unicode = 00DE;
},
{
glyphname = Q;
layers = (
{
hints = (
{
horizontal = 1;
place = "{-10, 60}";
},
{
horizontal = 1;
place = "{650, 60}";
}
);
layerId = UUID0;
paths = (
{
closed = 1;
nodes = (
"528 -10 LINE",
"535 30 LINE",
"507 40 OFFCURVE",
"468 50 OFFCURVE",
"418 50 CURVE",
"473 105 OFFCURVE",
"514 195 OFFCURVE",
"541 350 CURVE SMOOTH",
"591 630 OFFCURVE",
"525 710 OFFCURVE",
"390 710 CURVE SMOOTH",
"255 710 OFFCURVE",
"161 630 OFFCURVE",
"111 350 CURVE SMOOTH",
"62 70 OFFCURVE",
"128 -10 OFFCURVE",
"263 -10 CURVE SMOOTH"
);
},
{
closed = 1;
nodes = (
"208 50 OFFCURVE",
"159 110 OFFCURVE",
"201 350 CURVE SMOOTH",
"244 590 OFFCURVE",
"314 650 OFFCURVE",
"379 650 CURVE SMOOTH",
"444 650 OFFCURVE",
"494 590 OFFCURVE",
"451 350 CURVE SMOOTH",
"409 110 OFFCURVE",
"338 50 OFFCURVE",
"273 50 CURVE SMOOTH"
);
}
);
width = 540;
},
{
hints = (
{
horizontal = 1;
place = "{-10, 70}";
},
{
horizontal = 1;
place = "{640, 70}";
}
);
layerId = "97C2AB1A-35E1-4EAE-9807-DD7336879977";
paths = (
{
closed = 1;
nodes = (
"548 -10 LINE",
"557 40 LINE",
"528 50 OFFCURVE",
"500 60 OFFCURVE",
"440 60 CURVE",
"489 110 OFFCURVE",
"540 200 OFFCURVE",
"566 350 CURVE SMOOTH",
"614 620 OFFCURVE",
"540 710 OFFCURVE",
"400 710 CURVE SMOOTH",
"260 710 OFFCURVE",
"154 620 OFFCURVE",
"106 350 CURVE SMOOTH",
"59 80 OFFCURVE",
"133 -10 OFFCURVE",
"273 -10 CURVE SMOOTH"
);
},
{
closed = 1;
nodes = (
"235 60 OFFCURVE",
"184 110 OFFCURVE",
"226 350 CURVE SMOOTH",
"267 580 OFFCURVE",
"332 640 OFFCURVE",
"387 640 CURVE SMOOTH",
"442 640 OFFCURVE",
"487 580 OFFCURVE",
"446 350 CURVE SMOOTH",
"406 120 OFFCURVE",
"340 60 OFFCURVE",
"285 60 CURVE SMOOTH"
);
}
);
width = 555;
}
);
leftKerningGroup = O;
rightKerningGroup = O;
unicode = 0051;
},
{
glyphname = R;
layers = (
{
hints = (
{
horizontal = 1;
place = "{230, 70}";
},
{
horizontal = 1;
place = "{645, 65}";
},
{
horizontal = 1;
place = "{0, 21}";
target = up;
type = BottomGhost;
}
);
layerId = UUID0;
paths = (
{
closed = 1;
nodes = (
"160 0 LINE",
"200 230 LINE",
"300 230 LINE",
"370 0 LINE",
"470 0 LINE",
"394 250 LINE",
"463 275 OFFCURVE",
"509 335 OFFCURVE",
"532 470 CURVE SMOOTH",
"564 650 OFFCURVE",
"515 710 OFFCURVE",
"355 710 CURVE SMOOTH",
"295 710 OFFCURVE",
"244 705 OFFCURVE",
"191 690 CURVE",
"70 0 LINE"
);
},
{
closed = 1;
nodes = (
"273 645 LINE",
"343 645 LINE SMOOTH",
"433 645 OFFCURVE",
"466 605 OFFCURVE",
"442 470 CURVE SMOOTH",
"419 340 OFFCURVE",
"372 300 OFFCURVE",
"282 300 CURVE SMOOTH",
"212 300 LINE"
);
}
);
width = 505;
},
{
hints = (
{
horizontal = 1;
place = "{225, 80}";
},
{
horizontal = 1;
place = "{635, 75}";
},
{
horizontal = 1;
place = "{0, 21}";
target = up;
type = BottomGhost;
}
);
layerId = "97C2AB1A-35E1-4EAE-9807-DD7336879977";
paths = (
{
closed = 1;
nodes = (
"190 0 LINE",
"229 225 LINE",
"294 225 LINE",
"370 0 LINE",
"505 0 LINE",
"414 250 LINE",
"484 280 OFFCURVE",
"539 335 OFFCURVE",
"562 470 CURVE SMOOTH",
"592 640 OFFCURVE",
"535 710 OFFCURVE",
"370 710 CURVE SMOOTH",
"295 710 OFFCURVE",
"244 705 OFFCURVE",
"191 690 CURVE",
"70 0 LINE"
);
},
{
closed = 1;
nodes = (
"301 635 LINE",
"356 635 LINE SMOOTH",
"431 635 OFFCURVE",
"464 595 OFFCURVE",
"442 470 CURVE SMOOTH",
"420 345 OFFCURVE",
"373 305 OFFCURVE",
"298 305 CURVE SMOOTH",
"243 305 LINE"
);
}
);
width = 535;
}
);
leftKerningGroup = H;
rightKerningGroup = R;
unicode = 0052;
},
{
glyphname = Racute;
layers = (
{
hints = (
{
horizontal = 1;
place = "{230, 70}";
},
{
horizontal = 1;
place = "{645, 65}";
},
{
horizontal = 1;
place = "{645, 235}";
},
{
horizontal = 1;
place = "{0, 21}";
target = up;
type = BottomGhost;
}
);
layerId = UUID0;
paths = (
{
closed = 1;
nodes = (
"160 0 LINE",
"200 230 LINE",
"300 230 LINE",
"370 0 LINE",
"470 0 LINE",
"394 250 LINE",
"463 275 OFFCURVE",
"509 335 OFFCURVE",
"532 470 CURVE SMOOTH",
"564 650 OFFCURVE",
"515 710 OFFCURVE",
"355 710 CURVE SMOOTH",
"295 710 OFFCURVE",
"244 705 OFFCURVE",
"191 690 CURVE",
"70 0 LINE"
);
},
{
closed = 1;
nodes = (
"273 645 LINE",
"343 645 LINE SMOOTH",
"433 645 OFFCURVE",
"466 605 OFFCURVE",
"442 470 CURVE SMOOTH",
"419 340 OFFCURVE",
"372 300 OFFCURVE",
"282 300 CURVE SMOOTH",
"212 300 LINE"
);
},
{
closed = 1;
nodes = (
"392 750 LINE",
"485 880 LINE",
"390 880 LINE",
"332 750 LINE"
);
}
);
width = 505;
},
{
hints = (
{
horizontal = 1;
place = "{225, 80}";
},
{
horizontal = 1;
place = "{635, 75}";
},
{
horizontal = 1;
place = "{750, 130}";
},
{
horizontal = 1;
place = "{0, 21}";
target = up;
type = BottomGhost;
}
);
layerId = "97C2AB1A-35E1-4EAE-9807-DD7336879977";
paths = (
{
closed = 1;
nodes = (
"190 0 LINE",
"229 225 LINE",
"294 225 LINE",
"370 0 LINE",
"505 0 LINE",
"414 250 LINE",
"484 280 OFFCURVE",
"539 335 OFFCURVE",
"562 470 CURVE SMOOTH",
"592 640 OFFCURVE",
"535 710 OFFCURVE",
"370 710 CURVE SMOOTH",
"295 710 OFFCURVE",
"244 705 OFFCURVE",
"191 690 CURVE",
"70 0 LINE"
);
},
{
closed = 1;
nodes = (
"301 635 LINE",
"356 635 LINE SMOOTH",
"431 635 OFFCURVE",
"464 595 OFFCURVE",
"442 470 CURVE SMOOTH",
"420 345 OFFCURVE",
"373 305 OFFCURVE",
"298 305 CURVE SMOOTH",
"243 305 LINE"
);
},
{
closed = 1;
nodes = (
"412 750 LINE",
"510 880 LINE",
"395 880 LINE",
"337 750 LINE"
);
}
);
width = 535;
}
);
leftKerningGroup = H;
rightKerningGroup = R;
unicode = 0154;
},
{
glyphname = Rcaron;
layers = (
{
hints = (
{
horizontal = 1;
place = "{230, 70}";
},
{
horizontal = 1;
place = "{645, 65}";
},
{
horizontal = 1;
place = "{750, 130}";
},
{
horizontal = 1;
place = "{0, 21}";
target = up;
type = BottomGhost;
}
);
layerId = UUID0;
paths = (
{
closed = 1;
nodes = (
"160 0 LINE",
"200 230 LINE",
"300 230 LINE",
"370 0 LINE",
"470 0 LINE",
"394 250 LINE",
"463 275 OFFCURVE",
"509 335 OFFCURVE",
"532 470 CURVE SMOOTH",
"564 650 OFFCURVE",
"515 710 OFFCURVE",
"355 710 CURVE SMOOTH",
"295 710 OFFCURVE",
"244 705 OFFCURVE",
"191 690 CURVE",
"70 0 LINE"
);
},
{
closed = 1;
nodes = (
"273 645 LINE",
"343 645 LINE SMOOTH",
"433 645 OFFCURVE",
"466 605 OFFCURVE",
"442 470 CURVE SMOOTH",
"419 340 OFFCURVE",
"372 300 OFFCURVE",
"282 300 CURVE SMOOTH",
"212 300 LINE"
);
},
{
closed = 1;
nodes = (
"410 750 LINE",
"508 880 LINE",
"448 880 LINE",
"372 806 LINE",
"323 880 LINE",
"263 880 LINE",
"315 750 LINE"
);
}
);
width = 505;
},
{
hints = (
{
horizontal = 1;
place = "{225, 80}";
},
{
horizontal = 1;
place = "{635, 75}";
},
{
horizontal = 1;
place = "{750, 130}";
},
{
horizontal = 1;
place = "{0, 21}";
target = up;
type = BottomGhost;
}
);
layerId = "97C2AB1A-35E1-4EAE-9807-DD7336879977";
paths = (
{
closed = 1;
nodes = (
"190 0 LINE",
"229 225 LINE",
"294 225 LINE",
"370 0 LINE",
"505 0 LINE",
"414 250 LINE",
"484 280 OFFCURVE",
"539 335 OFFCURVE",
"562 470 CURVE SMOOTH",
"592 640 OFFCURVE",
"535 710 OFFCURVE",
"370 710 CURVE SMOOTH",
"295 710 OFFCURVE",
"244 705 OFFCURVE",
"191 690 CURVE",
"70 0 LINE"
);
},
{
closed = 1;
nodes = (
"301 635 LINE",
"356 635 LINE SMOOTH",
"431 635 OFFCURVE",
"464 595 OFFCURVE",
"442 470 CURVE SMOOTH",
"420 345 OFFCURVE",
"373 305 OFFCURVE",
"298 305 CURVE SMOOTH",
"243 305 LINE"
);
},
{
closed = 1;
nodes = (
"430 750 LINE",
"533 880 LINE",
"456 880 LINE",
"387 810 LINE",
"344 880 LINE",
"268 880 LINE",
"325 750 LINE"
);
}
);
width = 535;
}
);
leftKerningGroup = H;
rightKerningGroup = R;
unicode = 0158;
},
{
glyphname = Rcommaaccent;
layers = (
{
hints = (
{
horizontal = 1;
place = "{-200, 150}";
},
{
horizontal = 1;
place = "{230, 70}";
},
{
horizontal = 1;
place = "{645, 65}";
},
{
horizontal = 1;
place = "{0, 21}";
target = up;
type = BottomGhost;
}
);
layerId = UUID0;
paths = (
{
closed = 1;
nodes = (
"160 0 LINE",
"200 230 LINE",
"300 230 LINE",
"370 0 LINE",
"470 0 LINE",
"394 250 LINE",
"463 275 OFFCURVE",
"509 335 OFFCURVE",
"532 470 CURVE SMOOTH",
"564 650 OFFCURVE",
"515 710 OFFCURVE",
"355 710 CURVE SMOOTH",
"295 710 OFFCURVE",
"244 705 OFFCURVE",
"191 690 CURVE",
"70 0 LINE"
);
},
{
closed = 1;
nodes = (
"244 -200 LINE",
"301 -50 LINE",
"211 -50 LINE",
"184 -200 LINE"
);
},
{
closed = 1;
nodes = (
"273 645 LINE",
"343 645 LINE SMOOTH",
"433 645 OFFCURVE",
"466 605 OFFCURVE",
"442 470 CURVE SMOOTH",
"419 340 OFFCURVE",
"372 300 OFFCURVE",
"282 300 CURVE SMOOTH",
"212 300 LINE"
);
}
);
width = 505;
},
{
hints = (
{
horizontal = 1;
place = "{-200, 150}";
},
{
horizontal = 1;
place = "{225, 80}";
},
{
horizontal = 1;
place = "{635, 75}";
},
{
horizontal = 1;
place = "{0, 21}";
target = up;
type = BottomGhost;
}
);
layerId = "97C2AB1A-35E1-4EAE-9807-DD7336879977";
paths = (
{
closed = 1;
nodes = (
"190 0 LINE",
"229 225 LINE",
"294 225 LINE",
"370 0 LINE",
"505 0 LINE",
"414 250 LINE",
"484 280 OFFCURVE",
"539 335 OFFCURVE",
"562 470 CURVE SMOOTH",
"592 640 OFFCURVE",
"535 710 OFFCURVE",
"370 710 CURVE SMOOTH",
"295 710 OFFCURVE",
"244 705 OFFCURVE",
"191 690 CURVE",
"70 0 LINE"
);
},
{
closed = 1;
nodes = (
"264 -200 LINE",
"326 -50 LINE",
"216 -50 LINE",
"189 -200 LINE"
);
},
{
closed = 1;
nodes = (
"301 635 LINE",
"356 635 LINE SMOOTH",
"431 635 OFFCURVE",
"464 595 OFFCURVE",
"442 470 CURVE SMOOTH",
"420 345 OFFCURVE",
"373 305 OFFCURVE",
"298 305 CURVE SMOOTH",
"243 305 LINE"
);
}
);
width = 535;
}
);
leftKerningGroup = H;
rightKerningGroup = R;
unicode = 0156;
},
{
glyphname = S;
layers = (
{
hints = (
{
horizontal = 1;
place = "{-10, 65}";
},
{
horizontal = 1;
place = "{645, 65}";
}
);
layerId = UUID0;
paths = (
{
closed = 1;
nodes = (
"348 -10 OFFCURVE",
"418 50 OFFCURVE",
"441 180 CURVE SMOOTH",
"484 425 OFFCURVE",
"185 345 OFFCURVE",
"218 530 CURVE SMOOTH",
"231 605 OFFCURVE",
"278 645 OFFCURVE",
"358 645 CURVE SMOOTH",
"488 645 LINE",
"496 690 LINE",
"468 700 OFFCURVE",
"410 710 OFFCURVE",
"350 710 CURVE SMOOTH",
"220 710 OFFCURVE",
"149 650 OFFCURVE",
"128 530 CURVE SMOOTH",
"83 275 OFFCURVE",
"382 355 OFFCURVE",
"351 180 CURVE SMOOTH",
"336 95 OFFCURVE",
"289 55 OFFCURVE",
"174 55 CURVE SMOOTH",
"44 55 LINE",
"36 10 LINE",
"65 0 OFFCURVE",
"123 -10 OFFCURVE",
"183 -10 CURVE SMOOTH"
);
}
);
width = 445;
},
{
hints = (
{
horizontal = 1;
place = "{-10, 75}";
},
{
horizontal = 1;
place = "{635, 75}";
}
);
layerId = "97C2AB1A-35E1-4EAE-9807-DD7336879977";
paths = (
{
closed = 1;
nodes = (
"363 -10 OFFCURVE",
"445 60 OFFCURVE",
"466 180 CURVE SMOOTH",
"509 425 OFFCURVE",
"212 355 OFFCURVE",
"243 530 CURVE SMOOTH",
"254 595 OFFCURVE",
"301 635 OFFCURVE",
"366 635 CURVE SMOOTH",
"506 635 LINE",
"516 690 LINE",
"488 700 OFFCURVE",
"430 710 OFFCURVE",
"360 710 CURVE SMOOTH",
"225 710 OFFCURVE",
"142 640 OFFCURVE",
"123 530 CURVE SMOOTH",
"78 275 OFFCURVE",
"375 345 OFFCURVE",
"346 180 CURVE SMOOTH",
"333 105 OFFCURVE",
"286 65 OFFCURVE",
"186 65 CURVE SMOOTH",
"46 65 LINE",
"36 10 LINE",
"65 0 OFFCURVE",
"123 -10 OFFCURVE",
"193 -10 CURVE SMOOTH"
);
}
);
width = 465;
}
);
leftKerningGroup = S;
rightKerningGroup = S;
unicode = 0053;
},
{
glyphname = Sacute;
layers = (
{
hints = (
{
horizontal = 1;
place = "{-10, 65}";
},
{
horizontal = 1;
place = "{645, 65}";
},
{
horizontal = 1;
place = "{760, 130}";
}
);
layerId = UUID0;
paths = (
{
closed = 1;
nodes = (
"348 -10 OFFCURVE",
"418 50 OFFCURVE",
"441 180 CURVE SMOOTH",
"484 425 OFFCURVE",
"185 345 OFFCURVE",
"218 530 CURVE SMOOTH",
"231 605 OFFCURVE",
"278 645 OFFCURVE",
"358 645 CURVE SMOOTH",
"488 645 LINE",
"496 690 LINE",
"468 700 OFFCURVE",
"410 710 OFFCURVE",
"350 710 CURVE SMOOTH",
"220 710 OFFCURVE",
"149 650 OFFCURVE",
"128 530 CURVE SMOOTH",
"83 275 OFFCURVE",
"382 355 OFFCURVE",
"351 180 CURVE SMOOTH",
"336 95 OFFCURVE",
"289 55 OFFCURVE",
"174 55 CURVE SMOOTH",
"44 55 LINE",
"36 10 LINE",
"65 0 OFFCURVE",
"123 -10 OFFCURVE",
"183 -10 CURVE SMOOTH"
);
},
{
closed = 1;
nodes = (
"384 760 LINE",
"476 890 LINE",
"381 890 LINE",
"324 760 LINE"
);
}
);
width = 445;
},
{
hints = (
{
horizontal = 1;
place = "{-10, 75}";
},
{
horizontal = 1;
place = "{635, 75}";
},
{
horizontal = 1;
place = "{760, 130}";
}
);
layerId = "97C2AB1A-35E1-4EAE-9807-DD7336879977";
paths = (
{
closed = 1;
nodes = (
"363 -10 OFFCURVE",
"445 60 OFFCURVE",
"466 180 CURVE SMOOTH",
"509 425 OFFCURVE",
"212 355 OFFCURVE",
"243 530 CURVE SMOOTH",
"254 595 OFFCURVE",
"301 635 OFFCURVE",
"366 635 CURVE SMOOTH",
"506 635 LINE",
"516 690 LINE",
"488 700 OFFCURVE",
"430 710 OFFCURVE",
"360 710 CURVE SMOOTH",
"225 710 OFFCURVE",
"142 640 OFFCURVE",
"123 530 CURVE SMOOTH",
"78 275 OFFCURVE",
"375 345 OFFCURVE",
"346 180 CURVE SMOOTH",
"333 105 OFFCURVE",
"286 65 OFFCURVE",
"186 65 CURVE SMOOTH",
"46 65 LINE",
"36 10 LINE",
"65 0 OFFCURVE",
"123 -10 OFFCURVE",
"193 -10 CURVE SMOOTH"
);
},
{
closed = 1;
nodes = (
"399 760 LINE",
"496 890 LINE",
"381 890 LINE",
"324 760 LINE"
);
}
);
width = 465;
}
);
leftKerningGroup = S;
rightKerningGroup = S;
unicode = 015A;
},
{
glyphname = Scaron;
layers = (
{
hints = (
{
horizontal = 1;
place = "{-10, 65}";
},
{
horizontal = 1;
place = "{645, 65}";
},
{
horizontal = 1;
place = "{760, 130}";
}
);
layerId = UUID0;
paths = (
{
closed = 1;
nodes = (
"348 -10 OFFCURVE",
"418 50 OFFCURVE",
"441 180 CURVE SMOOTH",
"484 425 OFFCURVE",
"185 345 OFFCURVE",
"218 530 CURVE SMOOTH",
"231 605 OFFCURVE",
"278 645 OFFCURVE",
"358 645 CURVE SMOOTH",
"488 645 LINE",
"496 690 LINE",
"468 700 OFFCURVE",
"410 710 OFFCURVE",
"350 710 CURVE SMOOTH",
"220 710 OFFCURVE",
"149 650 OFFCURVE",
"128 530 CURVE SMOOTH",
"83 275 OFFCURVE",
"382 355 OFFCURVE",
"351 180 CURVE SMOOTH",
"336 95 OFFCURVE",
"289 55 OFFCURVE",
"174 55 CURVE SMOOTH",
"44 55 LINE",
"36 10 LINE",
"65 0 OFFCURVE",
"123 -10 OFFCURVE",
"183 -10 CURVE SMOOTH"
);
},
{
closed = 1;
nodes = (
"397 760 LINE",
"494 890 LINE",
"434 890 LINE",
"358 816 LINE",
"309 890 LINE",
"249 890 LINE",
"302 760 LINE"
);
}
);
width = 445;
},
{
hints = (
{
horizontal = 1;
place = "{-10, 75}";
},
{
horizontal = 1;
place = "{635, 75}";
},
{
horizontal = 1;
place = "{760, 130}";
}
);
layerId = "97C2AB1A-35E1-4EAE-9807-DD7336879977";
paths = (
{
closed = 1;
nodes = (
"363 -10 OFFCURVE",
"445 60 OFFCURVE",
"466 180 CURVE SMOOTH",
"509 425 OFFCURVE",
"212 355 OFFCURVE",
"243 530 CURVE SMOOTH",
"254 595 OFFCURVE",
"301 635 OFFCURVE",
"366 635 CURVE SMOOTH",
"506 635 LINE",
"516 690 LINE",
"488 700 OFFCURVE",
"430 710 OFFCURVE",
"360 710 CURVE SMOOTH",
"225 710 OFFCURVE",
"142 640 OFFCURVE",
"123 530 CURVE SMOOTH",
"78 275 OFFCURVE",
"375 345 OFFCURVE",
"346 180 CURVE SMOOTH",
"333 105 OFFCURVE",
"286 65 OFFCURVE",
"186 65 CURVE SMOOTH",
"46 65 LINE",
"36 10 LINE",
"65 0 OFFCURVE",
"123 -10 OFFCURVE",
"193 -10 CURVE SMOOTH"
);
},
{
closed = 1;
nodes = (
"412 760 LINE",
"514 890 LINE",
"437 890 LINE",
"369 820 LINE",
"325 890 LINE",
"249 890 LINE",
"307 760 LINE"
);
}
);
width = 465;
}
);
leftKerningGroup = S;
rightKerningGroup = S;
unicode = 0160;
},
{
glyphname = Scedilla;
layers = (
{
hints = (
{
horizontal = 1;
place = "{-165, 45}";
},
{
horizontal = 1;
place = "{-70, 45}";
},
{
horizontal = 1;
place = "{-10, 65}";
},
{
horizontal = 1;
place = "{645, 65}";
}
);
layerId = UUID0;
paths = (
{
closed = 1;
nodes = (
"275 -165 OFFCURVE",
"311 -135 OFFCURVE",
"318 -95 CURVE SMOOTH",
"325 -55 OFFCURVE",
"300 -25 OFFCURVE",
"245 -25 CURVE SMOOTH",
"230 -25 LINE",
"233 -7 LINE",
"362 4 OFFCURVE",
"421 64 OFFCURVE",
"441 180 CURVE SMOOTH",
"484 425 OFFCURVE",
"185 345 OFFCURVE",
"218 530 CURVE SMOOTH",
"231 605 OFFCURVE",
"278 645 OFFCURVE",
"358 645 CURVE SMOOTH",
"488 645 LINE",
"496 690 LINE",
"468 700 OFFCURVE",
"410 710 OFFCURVE",
"350 710 CURVE SMOOTH",
"220 710 OFFCURVE",
"149 650 OFFCURVE",
"128 530 CURVE SMOOTH",
"83 275 OFFCURVE",
"382 355 OFFCURVE",
"351 180 CURVE SMOOTH",
"336 95 OFFCURVE",
"289 55 OFFCURVE",
"174 55 CURVE SMOOTH",
"44 55 LINE",
"36 10 LINE",
"65 0 OFFCURVE",
"123 -10 OFFCURVE",
"183 -10 CURVE",
"172 -70 LINE",
"227 -70 LINE SMOOTH",
"247 -70 OFFCURVE",
"255 -80 OFFCURVE",
"253 -95 CURVE SMOOTH",
"250 -110 OFFCURVE",
"238 -120 OFFCURVE",
"208 -120 CURVE SMOOTH",
"143 -120 LINE",
"138 -150 LINE",
"138 -150 OFFCURVE",
"165 -165 OFFCURVE",
"210 -165 CURVE SMOOTH"
);
}
);
width = 445;
},
{
hints = (
{
horizontal = 1;
place = "{-170, 49}";
},
{
horizontal = 1;
place = "{-79, 49}";
},
{
horizontal = 1;
place = "{-8, 73}";
},
{
horizontal = 1;
place = "{635, 75}";
}
);
layerId = "97C2AB1A-35E1-4EAE-9807-DD7336879977";
paths = (
{
closed = 1;
nodes = (
"280 -170 OFFCURVE",
"320 -140 OFFCURVE",
"327 -100 CURVE SMOOTH",
"334 -60 OFFCURVE",
"309 -30 OFFCURVE",
"249 -30 CURVE SMOOTH",
"234 -30 LINE",
"238 -8 LINE",
"377 3 OFFCURVE",
"447 71 OFFCURVE",
"466 180 CURVE SMOOTH",
"509 425 OFFCURVE",
"212 355 OFFCURVE",
"243 530 CURVE SMOOTH",
"254 595 OFFCURVE",
"301 635 OFFCURVE",
"366 635 CURVE SMOOTH",
"506 635 LINE",
"516 690 LINE",
"488 700 OFFCURVE",
"430 710 OFFCURVE",
"360 710 CURVE SMOOTH",
"225 710 OFFCURVE",
"142 640 OFFCURVE",
"123 530 CURVE SMOOTH",
"78 275 OFFCURVE",
"375 345 OFFCURVE",
"346 180 CURVE SMOOTH",
"333 105 OFFCURVE",
"286 65 OFFCURVE",
"186 65 CURVE SMOOTH",
"46 65 LINE",
"36 10 LINE",
"63 0 OFFCURVE",
"117 -9 OFFCURVE",
"183 -10 CURVE",
"171 -79 LINE",
"226 -79 LINE SMOOTH",
"251 -79 OFFCURVE",
"254 -90 OFFCURVE",
"252 -100 CURVE SMOOTH",
"250 -111 OFFCURVE",
"243 -121 OFFCURVE",
"213 -121 CURVE SMOOTH",
"148 -121 LINE",
"142 -155 LINE",
"142 -155 OFFCURVE",
"165 -170 OFFCURVE",
"215 -170 CURVE SMOOTH"
);
}
);
width = 465;
}
);
leftKerningGroup = S;
rightKerningGroup = S;
unicode = 015E;
},
{
glyphname = T;
layers = (
{
hints = (
{
horizontal = 1;
place = "{630, 70}";
},
{
horizontal = 1;
place = "{0, 21}";
target = up;
type = BottomGhost;
}
);
layerId = UUID0;
paths = (
{
closed = 1;
nodes = (
"260 0 LINE",
"371 630 LINE",
"531 630 LINE",
"543 700 LINE",
"133 700 LINE",
"121 630 LINE",
"281 630 LINE",
"170 0 LINE"
);
}
);
width = 430;
},
{
hints = (
{
horizontal = 1;
place = "{620, 80}";
},
{
horizontal = 1;
place = "{0, 21}";
target = up;
type = BottomGhost;
}
);
layerId = "97C2AB1A-35E1-4EAE-9807-DD7336879977";
paths = (
{
closed = 1;
nodes = (
"285 0 LINE",
"394 620 LINE",
"549 620 LINE",
"563 700 LINE",
"133 700 LINE",
"119 620 LINE",
"274 620 LINE",
"165 0 LINE"
);
}
);
width = 450;
}
);
leftKerningGroup = T;
rightKerningGroup = T;
unicode = 0054;
},
{
glyphname = U;
layers = (
{
anchors = (
{
name = bottom;
position = "{258, 0}";
},
{
name = ogonek;
position = "{424, 10}";
},
{
name = top;
position = "{376, 700}";
},
{
name = topright;
position = "{623, 700}";
}
);
hints = (
{
horizontal = 1;
place = "{-10, 60}";
},
{
horizontal = 1;
place = "{700, -20}";
target = down;
type = TopGhost;
}
);
layerId = UUID0;
paths = (
{
closed = 1;
nodes = (
"398 -10 OFFCURVE",
"468 50 OFFCURVE",
"502 240 CURVE SMOOTH",
"583 700 LINE",
"493 700 LINE",
"412 240 LINE SMOOTH",
"385 90 OFFCURVE",
"338 50 OFFCURVE",
"268 50 CURVE SMOOTH",
"198 50 OFFCURVE",
"165 90 OFFCURVE",
"192 240 CURVE SMOOTH",
"273 700 LINE",
"183 700 LINE",
"102 240 LINE SMOOTH",
"68 50 OFFCURVE",
"118 -10 OFFCURVE",
"258 -10 CURVE SMOOTH"
);
}
);
width = 520;
},
{
anchors = (
{
name = bottom;
position = "{273, 0}";
},
{
name = ogonek;
position = "{451, 10}";
},
{
name = top;
position = "{393, 700}";
},
{
name = topright;
position = "{641, 700}";
}
);
hints = (
{
horizontal = 1;
place = "{-10, 70}";
},
{
horizontal = 1;
place = "{700, -20}";
target = down;
type = TopGhost;
}
);
layerId = "97C2AB1A-35E1-4EAE-9807-DD7336879977";
paths = (
{
closed = 1;
nodes = (
"418 -10 OFFCURVE",
"500 60 OFFCURVE",
"532 240 CURVE SMOOTH",
"613 700 LINE",
"493 700 LINE",
"412 240 LINE SMOOTH",
"387 100 OFFCURVE",
"340 60 OFFCURVE",
"285 60 CURVE SMOOTH",
"230 60 OFFCURVE",
"197 100 OFFCURVE",
"222 240 CURVE SMOOTH",
"303 700 LINE",
"183 700 LINE",
"102 240 LINE SMOOTH",
"70 60 OFFCURVE",
"128 -10 OFFCURVE",
"273 -10 CURVE SMOOTH"
);
}
);
width = 550;
}
);
leftKerningGroup = U;
rightKerningGroup = U;
unicode = 0055;
},
{
color = 9;
glyphname = Uacute;
layers = (
{
hints = (
{
horizontal = 1;
place = "{-10, 60}";
},
{
horizontal = 1;
place = "{700, -20}";
target = down;
type = TopGhost;
},
{
horizontal = 1;
place = "{870, -20}";
target = down;
type = TopGhost;
}
);
layerId = UUID0;
paths = (
{
closed = 1;
nodes = (
"398 -10 OFFCURVE",
"468 50 OFFCURVE",
"502 240 CURVE SMOOTH",
"583 700 LINE",
"493 700 LINE",
"412 240 LINE SMOOTH",
"385 90 OFFCURVE",
"338 50 OFFCURVE",
"268 50 CURVE SMOOTH",
"198 50 OFFCURVE",
"165 90 OFFCURVE",
"192 240 CURVE SMOOTH",
"273 700 LINE",
"183 700 LINE",
"102 240 LINE SMOOTH",
"68 50 OFFCURVE",
"118 -10 OFFCURVE",
"258 -10 CURVE SMOOTH"
);
},
{
closed = 1;
nodes = (
"415 740 LINE",
"508 870 LINE",
"413 870 LINE",
"355 740 LINE"
);
}
);
width = 520;
},
{
hints = (
{
horizontal = 1;
place = "{-10, 70}";
},
{
horizontal = 1;
place = "{740, 130}";
},
{
horizontal = 1;
place = "{700, -20}";
target = down;
type = TopGhost;
}
);
layerId = "97C2AB1A-35E1-4EAE-9807-DD7336879977";
paths = (
{
closed = 1;
nodes = (
"418 -10 OFFCURVE",
"500 60 OFFCURVE",
"532 240 CURVE SMOOTH",
"613 700 LINE",
"493 700 LINE",
"412 240 LINE SMOOTH",
"387 100 OFFCURVE",
"340 60 OFFCURVE",
"285 60 CURVE SMOOTH",
"230 60 OFFCURVE",
"197 100 OFFCURVE",
"222 240 CURVE SMOOTH",
"303 700 LINE",
"183 700 LINE",
"102 240 LINE SMOOTH",
"70 60 OFFCURVE",
"128 -10 OFFCURVE",
"273 -10 CURVE SMOOTH"
);
},
{
closed = 1;
nodes = (
"435 740 LINE",
"533 870 LINE",
"418 870 LINE",
"360 740 LINE"
);
}
);
width = 550;
}
);
leftKerningGroup = U;
rightKerningGroup = U;
unicode = 00DA;
},
{
glyphname = Ucircumflex;
layers = (
{
hints = (
{
horizontal = 1;
place = "{-10, 60}";
},
{
horizontal = 1;
place = "{740, 130}";
},
{
horizontal = 1;
place = "{700, -20}";
target = down;
type = TopGhost;
}
);
layerId = UUID0;
paths = (
{
closed = 1;
nodes = (
"398 -10 OFFCURVE",
"468 50 OFFCURVE",
"502 240 CURVE SMOOTH",
"583 700 LINE",
"493 700 LINE",
"412 240 LINE SMOOTH",
"385 90 OFFCURVE",
"338 50 OFFCURVE",
"268 50 CURVE SMOOTH",
"198 50 OFFCURVE",
"165 90 OFFCURVE",
"192 240 CURVE SMOOTH",
"273 700 LINE",
"183 700 LINE",
"102 240 LINE SMOOTH",
"68 50 OFFCURVE",
"118 -10 OFFCURVE",
"258 -10 CURVE SMOOTH"
);
},
{
closed = 1;
nodes = (
"328 740 LINE",
"403 814 LINE",
"453 740 LINE",
"513 740 LINE",
"461 870 LINE",
"366 870 LINE",
"268 740 LINE"
);
}
);
width = 520;
},
{
hints = (
{
horizontal = 1;
place = "{-10, 70}";
},
{
horizontal = 1;
place = "{740, 130}";
},
{
horizontal = 1;
place = "{700, -20}";
target = down;
type = TopGhost;
}
);
layerId = "97C2AB1A-35E1-4EAE-9807-DD7336879977";
paths = (
{
closed = 1;
nodes = (
"418 -10 OFFCURVE",
"500 60 OFFCURVE",
"532 240 CURVE SMOOTH",
"613 700 LINE",
"493 700 LINE",
"412 240 LINE SMOOTH",
"387 100 OFFCURVE",
"340 60 OFFCURVE",
"285 60 CURVE SMOOTH",
"230 60 OFFCURVE",
"197 100 OFFCURVE",
"222 240 CURVE SMOOTH",
"303 700 LINE",
"183 700 LINE",
"102 240 LINE SMOOTH",
"70 60 OFFCURVE",
"128 -10 OFFCURVE",
"273 -10 CURVE SMOOTH"
);
},
{
closed = 1;
nodes = (
"349 740 LINE",
"417 810 LINE",
"461 740 LINE",
"538 740 LINE",
"481 870 LINE",
"376 870 LINE",
"273 740 LINE"
);
}
);
width = 550;
}
);
leftKerningGroup = U;
rightKerningGroup = U;
unicode = 00DB;
},
{
glyphname = Udieresis;
layers = (
{
hints = (
{
horizontal = 1;
place = "{-10, 60}";
},
{
horizontal = 1;
place = "{750, 110}";
},
{
horizontal = 1;
place = "{700, -20}";
target = down;
type = TopGhost;
}
);
layerId = UUID0;
paths = (
{
closed = 1;
nodes = (
"398 -10 OFFCURVE",
"468 50 OFFCURVE",
"502 240 CURVE SMOOTH",
"583 700 LINE",
"493 700 LINE",
"412 240 LINE SMOOTH",
"385 90 OFFCURVE",
"338 50 OFFCURVE",
"268 50 CURVE SMOOTH",
"198 50 OFFCURVE",
"165 90 OFFCURVE",
"192 240 CURVE SMOOTH",
"273 700 LINE",
"183 700 LINE",
"102 240 LINE SMOOTH",
"68 50 OFFCURVE",
"118 -10 OFFCURVE",
"258 -10 CURVE SMOOTH"
);
},
{
closed = 1;
nodes = (
"357 750 LINE",
"376 860 LINE",
"286 860 LINE",
"267 750 LINE"
);
},
{
closed = 1;
nodes = (
"517 750 LINE",
"536 860 LINE",
"446 860 LINE",
"427 750 LINE"
);
}
);
width = 520;
},
{
hints = (
{
horizontal = 1;
place = "{-10, 70}";
},
{
horizontal = 1;
place = "{740, 120}";
},
{
horizontal = 1;
place = "{700, -20}";
target = down;
type = TopGhost;
}
);
layerId = "97C2AB1A-35E1-4EAE-9807-DD7336879977";
paths = (
{
closed = 1;
nodes = (
"418 -10 OFFCURVE",
"500 60 OFFCURVE",
"532 240 CURVE SMOOTH",
"613 700 LINE",
"493 700 LINE",
"412 240 LINE SMOOTH",
"387 100 OFFCURVE",
"340 60 OFFCURVE",
"285 60 CURVE SMOOTH",
"230 60 OFFCURVE",
"197 100 OFFCURVE",
"222 240 CURVE SMOOTH",
"303 700 LINE",
"183 700 LINE",
"102 240 LINE SMOOTH",
"70 60 OFFCURVE",
"128 -10 OFFCURVE",
"273 -10 CURVE SMOOTH"
);
},
{
closed = 1;
nodes = (
"380 740 LINE",
"401 860 LINE",
"291 860 LINE",
"270 740 LINE"
);
},
{
closed = 1;
nodes = (
"540 740 LINE",
"561 860 LINE",
"451 860 LINE",
"430 740 LINE"
);
}
);
width = 550;
}
);
leftKerningGroup = U;
rightKerningGroup = U;
unicode = 00DC;
},
{
color = 9;
glyphname = Ugrave;
layers = (
{
hints = (
{
horizontal = 1;
place = "{-10, 60}";
},
{
horizontal = 1;
place = "{740, 130}";
},
{
horizontal = 1;
place = "{700, -20}";
target = down;
type = TopGhost;
}
);
layerId = UUID0;
paths = (
{
closed = 1;
nodes = (
"398 -10 OFFCURVE",
"468 50 OFFCURVE",
"502 240 CURVE SMOOTH",
"583 700 LINE",
"493 700 LINE",
"412 240 LINE SMOOTH",
"385 90 OFFCURVE",
"338 50 OFFCURVE",
"268 50 CURVE SMOOTH",
"198 50 OFFCURVE",
"165 90 OFFCURVE",
"192 240 CURVE SMOOTH",
"273 700 LINE",
"183 700 LINE",
"102 240 LINE SMOOTH",
"68 50 OFFCURVE",
"118 -10 OFFCURVE",
"258 -10 CURVE SMOOTH"
);
},
{
closed = 1;
nodes = (
"425 740 LINE",
"413 870 LINE",
"318 870 LINE",
"365 740 LINE"
);
}
);
width = 520;
},
{
hints = (
{
horizontal = 1;
place = "{-10, 70}";
},
{
horizontal = 1;
place = "{740, 130}";
},
{
horizontal = 1;
place = "{700, -20}";
target = down;
type = TopGhost;
}
);
layerId = "97C2AB1A-35E1-4EAE-9807-DD7336879977";
paths = (
{
closed = 1;
nodes = (
"418 -10 OFFCURVE",
"500 60 OFFCURVE",
"532 240 CURVE SMOOTH",
"613 700 LINE",
"493 700 LINE",
"412 240 LINE SMOOTH",
"387 100 OFFCURVE",
"340 60 OFFCURVE",
"285 60 CURVE SMOOTH",
"230 60 OFFCURVE",
"197 100 OFFCURVE",
"222 240 CURVE SMOOTH",
"303 700 LINE",
"183 700 LINE",
"102 240 LINE SMOOTH",
"70 60 OFFCURVE",
"128 -10 OFFCURVE",
"273 -10 CURVE SMOOTH"
);
},
{
closed = 1;
nodes = (
"450 740 LINE",
"438 870 LINE",
"323 870 LINE",
"375 740 LINE"
);
}
);
width = 550;
}
);
leftKerningGroup = U;
rightKerningGroup = U;
unicode = 00D9;
},
{
glyphname = Umacron;
layers = (
{
hints = (
{
horizontal = 1;
place = "{-10, 60}";
},
{
horizontal = 1;
place = "{770, 60}";
},
{
horizontal = 1;
place = "{700, -20}";
target = down;
type = TopGhost;
}
);
layerId = UUID0;
paths = (
{
closed = 1;
nodes = (
"398 -10 OFFCURVE",
"468 50 OFFCURVE",
"502 240 CURVE SMOOTH",
"583 700 LINE",
"493 700 LINE",
"412 240 LINE SMOOTH",
"385 90 OFFCURVE",
"338 50 OFFCURVE",
"268 50 CURVE SMOOTH",
"198 50 OFFCURVE",
"165 90 OFFCURVE",
"192 240 CURVE SMOOTH",
"273 700 LINE",
"183 700 LINE",
"102 240 LINE SMOOTH",
"68 50 OFFCURVE",
"118 -10 OFFCURVE",
"258 -10 CURVE SMOOTH"
);
},
{
closed = 1;
nodes = (
"510 770 LINE",
"521 830 LINE",
"291 830 LINE",
"280 770 LINE"
);
}
);
width = 520;
},
{
hints = (
{
horizontal = 1;
place = "{-10, 70}";
},
{
horizontal = 1;
place = "{760, 70}";
},
{
horizontal = 1;
place = "{700, -20}";
target = down;
type = TopGhost;
}
);
layerId = "97C2AB1A-35E1-4EAE-9807-DD7336879977";
paths = (
{
closed = 1;
nodes = (
"418 -10 OFFCURVE",
"500 60 OFFCURVE",
"532 240 CURVE SMOOTH",
"613 700 LINE",
"493 700 LINE",
"412 240 LINE SMOOTH",
"387 100 OFFCURVE",
"340 60 OFFCURVE",
"285 60 CURVE SMOOTH",
"230 60 OFFCURVE",
"197 100 OFFCURVE",
"222 240 CURVE SMOOTH",
"303 700 LINE",
"183 700 LINE",
"102 240 LINE SMOOTH",
"70 60 OFFCURVE",
"128 -10 OFFCURVE",
"273 -10 CURVE SMOOTH"
);
},
{
closed = 1;
nodes = (
"529 760 LINE",
"541 830 LINE",
"301 830 LINE",
"289 760 LINE"
);
}
);
width = 550;
}
);
leftKerningGroup = U;
rightKerningGroup = U;
unicode = 016A;
},
{
glyphname = Uogonek;
layers = (
{
hints = (
{
horizontal = 1;
place = "{-160, 56}";
},
{
horizontal = 1;
place = "{-9, 59}";
},
{
horizontal = 1;
place = "{700, -20}";
target = down;
type = TopGhost;
}
);
layerId = UUID0;
paths = (
{
closed = 1;
nodes = (
"316 -160 OFFCURVE",
"349 -145 OFFCURVE",
"349 -145 CURVE",
"356 -104 LINE",
"321 -104 LINE SMOOTH",
"276 -104 OFFCURVE",
"264 -90 OFFCURVE",
"272 -45 CURVE SMOOTH",
"278 -9 LINE",
"405 -4 OFFCURVE",
"470 59 OFFCURVE",
"502 240 CURVE SMOOTH",
"583 700 LINE",
"493 700 LINE",
"412 240 LINE SMOOTH",
"385 90 OFFCURVE",
"338 50 OFFCURVE",
"268 50 CURVE SMOOTH",
"198 50 OFFCURVE",
"165 90 OFFCURVE",
"192 240 CURVE SMOOTH",
"273 700 LINE",
"183 700 LINE",
"102 240 LINE SMOOTH",
"70 61 OFFCURVE",
"112 -2 OFFCURVE",
"232 -9 CURVE",
"223 -22 OFFCURVE",
"206 -48 OFFCURVE",
"200 -80 CURVE SMOOTH",
"192 -130 OFFCURVE",
"216 -160 OFFCURVE",
"271 -160 CURVE SMOOTH"
);
}
);
width = 520;
},
{
hints = (
{
horizontal = 1;
place = "{-160, 60}";
},
{
horizontal = 1;
place = "{-9, 69}";
},
{
horizontal = 1;
place = "{700, -20}";
target = down;
type = TopGhost;
}
);
layerId = "97C2AB1A-35E1-4EAE-9807-DD7336879977";
paths = (
{
closed = 1;
nodes = (
"330 -160 OFFCURVE",
"364 -145 OFFCURVE",
"364 -145 CURVE",
"372 -100 LINE",
"336 -100 LINE SMOOTH",
"301 -100 OFFCURVE",
"285 -80 OFFCURVE",
"292 -45 CURVE SMOOTH",
"298 -9 LINE",
"427 -1 OFFCURVE",
"502 70 OFFCURVE",
"532 240 CURVE SMOOTH",
"613 700 LINE",
"493 700 LINE",
"412 240 LINE SMOOTH",
"387 100 OFFCURVE",
"340 60 OFFCURVE",
"285 60 CURVE SMOOTH",
"230 60 OFFCURVE",
"197 100 OFFCURVE",
"222 240 CURVE SMOOTH",
"303 700 LINE",
"183 700 LINE",
"102 240 LINE SMOOTH",
"72 73 OFFCURVE",
"120 1 OFFCURVE",
"241 -9 CURVE",
"232 -21 OFFCURVE",
"215 -46 OFFCURVE",
"209 -80 CURVE SMOOTH",
"201 -125 OFFCURVE",
"230 -160 OFFCURVE",
"285 -160 CURVE SMOOTH"
);
}
);
width = 550;
}
);
leftKerningGroup = U;
rightKerningGroup = U;
unicode = 0172;
},
{
glyphname = V;
layers = (
{
hints = (
{
place = "{161, 85}";
},
{
horizontal = 1;
place = "{700, -20}";
target = down;
type = TopGhost;
},
{
horizontal = 1;
place = "{0, 21}";
target = up;
type = BottomGhost;
}
);
layerId = UUID0;
paths = (
{
closed = 1;
nodes = (
"310 0 LINE",
"593 700 LINE",
"503 700 LINE",
"263 95 LINE",
"259 95 LINE",
"233 700 LINE",
"143 700 LINE",
"180 0 LINE"
);
}
);
width = 490;
},
{
hints = (
{
place = "{161, 113}";
},
{
horizontal = 1;
place = "{700, -20}";
target = down;
type = TopGhost;
},
{
horizontal = 1;
place = "{0, 21}";
target = up;
type = BottomGhost;
}
);
layerId = "97C2AB1A-35E1-4EAE-9807-DD7336879977";
paths = (
{
closed = 1;
nodes = (
"335 0 LINE",
"628 700 LINE",
"503 700 LINE",
"289 155 LINE",
"285 155 LINE",
"263 700 LINE",
"138 700 LINE",
"185 0 LINE"
);
}
);
width = 520;
}
);
leftKerningGroup = V;
rightKerningGroup = V;
unicode = 0056;
},
{
glyphname = W;
layers = (
{
hints = (
{
place = "{139, 91}";
},
{
horizontal = 1;
place = "{700, -20}";
target = down;
type = TopGhost;
},
{
horizontal = 1;
place = "{0, 21}";
target = up;
type = BottomGhost;
}
);
layerId = UUID0;
paths = (
{
closed = 1;
nodes = (
"245 0 LINE",
"432 420 LINE",
"436 420 LINE",
"475 0 LINE",
"585 0 LINE",
"823 700 LINE",
"733 700 LINE",
"548 160 LINE",
"543 160 LINE",
"505 570 LINE",
"415 570 LINE",
"233 160 LINE",
"228 160 LINE",
"233 700 LINE",
"143 700 LINE",
"135 0 LINE"
);
}
);
width = 720;
},
{
hints = (
{
place = "{139, 122}";
},
{
horizontal = 1;
place = "{700, -20}";
target = down;
type = TopGhost;
},
{
horizontal = 1;
place = "{0, 21}";
target = up;
type = BottomGhost;
}
);
layerId = "97C2AB1A-35E1-4EAE-9807-DD7336879977";
paths = (
{
closed = 1;
nodes = (
"270 0 LINE",
"441 390 LINE",
"445 390 LINE",
"480 0 LINE",
"610 0 LINE",
"858 700 LINE",
"733 700 LINE",
"559 195 LINE",
"555 195 LINE",
"525 570 LINE",
"425 570 LINE",
"263 195 LINE",
"259 195 LINE",
"263 700 LINE",
"138 700 LINE",
"140 0 LINE"
);
}
);
width = 750;
}
);
leftKerningGroup = V;
rightKerningGroup = V;
unicode = 0057;
},
{
glyphname = X;
layers = (
{
hints = (
{
horizontal = 1;
place = "{700, -20}";
target = down;
type = TopGhost;
},
{
horizontal = 1;
place = "{0, 21}";
target = up;
type = BottomGhost;
}
);
layerId = UUID0;
paths = (
{
closed = 1;
nodes = (
"105 0 LINE",
"282 300 LINE",
"355 0 LINE",
"445 0 LINE",
"358 360 LINE",
"553 700 LINE",
"463 700 LINE",
"304 420 LINE",
"243 700 LINE",
"153 700 LINE",
"228 360 LINE",
"15 0 LINE"
);
}
);
width = 460;
},
{
hints = (
{
horizontal = 1;
place = "{700, -20}";
target = down;
type = TopGhost;
},
{
horizontal = 1;
place = "{0, 21}";
target = up;
type = BottomGhost;
}
);
layerId = "97C2AB1A-35E1-4EAE-9807-DD7336879977";
paths = (
{
closed = 1;
nodes = (
"135 0 LINE",
"295 285 LINE",
"355 0 LINE",
"480 0 LINE",
"398 360 LINE",
"588 700 LINE",
"463 700 LINE",
"322 440 LINE",
"273 700 LINE",
"148 700 LINE",
"218 360 LINE",
"10 0 LINE"
);
}
);
width = 490;
}
);
leftKerningGroup = X;
rightKerningGroup = X;
unicode = 0058;
},
{
glyphname = Y;
layers = (
{
anchors = (
{
name = bottom;
position = "{223, 0}";
},
{
name = top;
position = "{338, 700}";
},
{
name = topleft;
position = "{99, 700}";
}
);
hints = (
{
horizontal = 1;
place = "{700, -20}";
target = down;
type = TopGhost;
},
{
horizontal = 1;
place = "{0, 21}";
target = up;
type = BottomGhost;
}
);
layerId = UUID0;
paths = (
{
closed = 1;
nodes = (
"270 0 LINE",
"308 220 LINE",
"563 700 LINE",
"473 700 LINE",
"285 345 LINE",
"223 700 LINE",
"133 700 LINE",
"218 220 LINE",
"180 0 LINE"
);
}
);
width = 450;
},
{
anchors = (
{
name = bottom;
position = "{242, 0}";
},
{
name = top;
position = "{319, 700}";
},
{
name = topleft;
position = "{99, 700}";
}
);
hints = (
{
horizontal = 1;
place = "{700, -20}";
target = down;
type = TopGhost;
},
{
horizontal = 1;
place = "{0, 21}";
target = up;
type = BottomGhost;
}
);
layerId = "97C2AB1A-35E1-4EAE-9807-DD7336879977";
paths = (
{
closed = 1;
nodes = (
"300 0 LINE",
"337 210 LINE",
"598 700 LINE",
"473 700 LINE",
"306 365 LINE",
"302 365 LINE",
"253 700 LINE",
"128 700 LINE",
"217 210 LINE",
"180 0 LINE"
);
}
);
width = 480;
}
);
leftKerningGroup = Y;
rightKerningGroup = Y;
unicode = 0059;
},
{
color = 9;
glyphname = Yacute;
layers = (
{
hints = (
{
horizontal = 1;
place = "{870, -20}";
target = down;
type = TopGhost;
},
{
horizontal = 1;
place = "{700, -20}";
target = down;
type = TopGhost;
},
{
horizontal = 1;
place = "{0, 21}";
target = up;
type = BottomGhost;
}
);
layerId = UUID0;
paths = (
{
closed = 1;
nodes = (
"270 0 LINE",
"308 220 LINE",
"563 700 LINE",
"473 700 LINE",
"285 345 LINE",
"223 700 LINE",
"133 700 LINE",
"218 220 LINE",
"180 0 LINE"
);
},
{
closed = 1;
nodes = (
"380 740 LINE",
"473 870 LINE",
"378 870 LINE",
"320 740 LINE"
);
}
);
width = 450;
},
{
hints = (
{
horizontal = 1;
place = "{740, 130}";
},
{
horizontal = 1;
place = "{700, -20}";
target = down;
type = TopGhost;
},
{
horizontal = 1;
place = "{0, 21}";
target = up;
type = BottomGhost;
}
);
layerId = "97C2AB1A-35E1-4EAE-9807-DD7336879977";
paths = (
{
closed = 1;
nodes = (
"300 0 LINE",
"337 210 LINE",
"598 700 LINE",
"473 700 LINE",
"306 365 LINE",
"302 365 LINE",
"253 700 LINE",
"128 700 LINE",
"217 210 LINE",
"180 0 LINE"
);
},
{
closed = 1;
nodes = (
"404 740 LINE",
"502 870 LINE",
"387 870 LINE",
"329 740 LINE"
);
}
);
width = 480;
}
);
leftKerningGroup = Y;
rightKerningGroup = Y;
unicode = 00DD;
},
{
glyphname = Ydieresis;
layers = (
{
hints = (
{
horizontal = 1;
place = "{770, 110}";
},
{
horizontal = 1;
place = "{700, -20}";
target = down;
type = TopGhost;
},
{
horizontal = 1;
place = "{0, 21}";
target = up;
type = BottomGhost;
}
);
layerId = UUID0;
paths = (
{
closed = 1;
nodes = (
"270 0 LINE",
"308 220 LINE",
"563 700 LINE",
"473 700 LINE",
"285 345 LINE",
"223 700 LINE",
"133 700 LINE",
"218 220 LINE",
"180 0 LINE"
);
},
{
closed = 1;
nodes = (
"325 770 LINE",
"345 880 LINE",
"255 880 LINE",
"235 770 LINE"
);
},
{
closed = 1;
nodes = (
"485 770 LINE",
"505 880 LINE",
"415 880 LINE",
"395 770 LINE"
);
}
);
width = 450;
},
{
hints = (
{
horizontal = 1;
place = "{760, 120}";
},
{
horizontal = 1;
place = "{700, -20}";
target = down;
type = TopGhost;
},
{
horizontal = 1;
place = "{0, 21}";
target = up;
type = BottomGhost;
}
);
layerId = "97C2AB1A-35E1-4EAE-9807-DD7336879977";
paths = (
{
closed = 1;
nodes = (
"300 0 LINE",
"337 210 LINE",
"598 700 LINE",
"473 700 LINE",
"306 365 LINE",
"302 365 LINE",
"253 700 LINE",
"128 700 LINE",
"217 210 LINE",
"180 0 LINE"
);
},
{
closed = 1;
nodes = (
"349 760 LINE",
"370 880 LINE",
"260 880 LINE",
"239 760 LINE"
);
},
{
closed = 1;
nodes = (
"509 760 LINE",
"530 880 LINE",
"420 880 LINE",
"399 760 LINE"
);
}
);
width = 480;
}
);
leftKerningGroup = Y;
rightKerningGroup = Y;
unicode = 0178;
},
{
glyphname = Z;
layers = (
{
hints = (
{
horizontal = 1;
place = "{0, 70}";
},
{
horizontal = 1;
place = "{630, 70}";
}
);
layerId = UUID0;
paths = (
{
closed = 1;
nodes = (
"380 0 LINE",
"392 70 LINE",
"137 70 LINE",
"496 635 LINE",
"508 700 LINE",
"148 700 LINE",
"136 630 LINE",
"391 630 LINE",
"31 65 LINE",
"20 0 LINE"
);
}
);
width = 405;
},
{
hints = (
{
horizontal = 1;
place = "{0, 80}";
},
{
horizontal = 1;
place = "{620, 80}";
}
);
layerId = "97C2AB1A-35E1-4EAE-9807-DD7336879977";
paths = (
{
closed = 1;
nodes = (
"410 0 LINE",
"424 80 LINE",
"169 80 LINE",
"525 625 LINE",
"538 700 LINE",
"148 700 LINE",
"134 620 LINE",
"389 620 LINE",
"33 75 LINE",
"20 0 LINE"
);
}
);
width = 435;
}
);
leftKerningGroup = Z;
rightKerningGroup = Z;
unicode = 005A;
},
{
glyphname = Zacute;
layers = (
{
hints = (
{
horizontal = 1;
place = "{0, 70}";
},
{
horizontal = 1;
place = "{630, 70}";
},
{
horizontal = 1;
place = "{630, 250}";
}
);
layerId = UUID0;
paths = (
{
closed = 1;
nodes = (
"380 0 LINE",
"392 70 LINE",
"137 70 LINE",
"496 635 LINE",
"508 700 LINE",
"148 700 LINE",
"136 630 LINE",
"391 630 LINE",
"31 65 LINE",
"20 0 LINE"
);
},
{
closed = 1;
nodes = (
"362 750 LINE",
"455 880 LINE",
"360 880 LINE",
"302 750 LINE"
);
}
);
width = 405;
},
{
hints = (
{
horizontal = 1;
place = "{0, 80}";
},
{
horizontal = 1;
place = "{620, 80}";
},
{
horizontal = 1;
place = "{750, 130}";
}
);
layerId = "97C2AB1A-35E1-4EAE-9807-DD7336879977";
paths = (
{
closed = 1;
nodes = (
"410 0 LINE",
"424 80 LINE",
"169 80 LINE",
"525 625 LINE",
"538 700 LINE",
"148 700 LINE",
"134 620 LINE",
"389 620 LINE",
"33 75 LINE",
"20 0 LINE"
);
},
{
closed = 1;
nodes = (
"382 750 LINE",
"480 880 LINE",
"365 880 LINE",
"307 750 LINE"
);
}
);
width = 435;
}
);
leftKerningGroup = Z;
rightKerningGroup = Z;
unicode = 0179;
},
{
glyphname = Zcaron;
layers = (
{
hints = (
{
horizontal = 1;
place = "{0, 70}";
},
{
horizontal = 1;
place = "{630, 70}";
},
{
horizontal = 1;
place = "{760, 130}";
}
);
layerId = UUID0;
paths = (
{
closed = 1;
nodes = (
"380 0 LINE",
"392 70 LINE",
"137 70 LINE",
"496 635 LINE",
"508 700 LINE",
"148 700 LINE",
"136 630 LINE",
"391 630 LINE",
"31 65 LINE",
"20 0 LINE"
);
},
{
closed = 1;
nodes = (
"397 760 LINE",
"494 890 LINE",
"434 890 LINE",
"358 816 LINE",
"309 890 LINE",
"249 890 LINE",
"302 760 LINE"
);
}
);
width = 405;
},
{
hints = (
{
horizontal = 1;
place = "{0, 80}";
},
{
horizontal = 1;
place = "{620, 80}";
},
{
horizontal = 1;
place = "{760, 130}";
}
);
layerId = "97C2AB1A-35E1-4EAE-9807-DD7336879977";
paths = (
{
closed = 1;
nodes = (
"410 0 LINE",
"424 80 LINE",
"169 80 LINE",
"525 625 LINE",
"538 700 LINE",
"148 700 LINE",
"134 620 LINE",
"389 620 LINE",
"33 75 LINE",
"20 0 LINE"
);
},
{
closed = 1;
nodes = (
"417 760 LINE",
"519 890 LINE",
"442 890 LINE",
"374 820 LINE",
"330 890 LINE",
"254 890 LINE",
"312 760 LINE"
);
}
);
width = 435;
}
);
leftKerningGroup = Z;
rightKerningGroup = Z;
unicode = 017D;
},
{
glyphname = Zdotaccent;
layers = (
{
hints = (
{
horizontal = 1;
place = "{0, 70}";
},
{
horizontal = 1;
place = "{630, 70}";
},
{
horizontal = 1;
place = "{770, 110}";
}
);
layerId = UUID0;
paths = (
{
closed = 1;
nodes = (
"380 0 LINE",
"392 70 LINE",
"137 70 LINE",
"496 635 LINE",
"508 700 LINE",
"148 700 LINE",
"136 630 LINE",
"391 630 LINE",
"31 65 LINE",
"20 0 LINE"
);
},
{
closed = 1;
nodes = (
"385 770 LINE",
"405 880 LINE",
"315 880 LINE",
"295 770 LINE"
);
}
);
width = 405;
},
{
hints = (
{
horizontal = 1;
place = "{0, 80}";
},
{
horizontal = 1;
place = "{620, 80}";
},
{
horizontal = 1;
place = "{760, 120}";
}
);
layerId = "97C2AB1A-35E1-4EAE-9807-DD7336879977";
paths = (
{
closed = 1;
nodes = (
"410 0 LINE",
"424 80 LINE",
"169 80 LINE",
"525 625 LINE",
"538 700 LINE",
"148 700 LINE",
"134 620 LINE",
"389 620 LINE",
"33 75 LINE",
"20 0 LINE"
);
},
{
closed = 1;
nodes = (
"409 760 LINE",
"430 880 LINE",
"320 880 LINE",
"299 760 LINE"
);
}
);
width = 435;
}
);
leftKerningGroup = Z;
rightKerningGroup = Z;
unicode = 017B;
},
{
glyphname = a;
layers = (
{
anchors = (
{
name = bottom;
position = "{224, 0}";
},
{
name = ogonek;
position = "{374, 10}";
},
{
name = top;
position = "{346, 500}";
}
);
hints = (
{
horizontal = 1;
place = "{-10, 60}";
},
{
horizontal = 1;
place = "{450, 60}";
},
{
horizontal = 1;
place = "{0, 21}";
target = up;
type = BottomGhost;
}
);
layerId = UUID0;
paths = (
{
closed = 1;
nodes = (
"248 -10 OFFCURVE",
"290 5 OFFCURVE",
"320 30 CURVE",
"325 30 LINE",
"325 0 LINE",
"400 0 LINE",
"484 480 LINE",
"438 500 OFFCURVE",
"389 510 OFFCURVE",
"329 510 CURVE SMOOTH",
"194 510 OFFCURVE",
"124 450 OFFCURVE",
"89 250 CURVE SMOOTH",
"53 50 OFFCURVE",
"103 -10 OFFCURVE",
"208 -10 CURVE"
);
},
{
closed = 1;
nodes = (
"183 50 OFFCURVE",
"150 90 OFFCURVE",
"179 250 CURVE SMOOTH",
"207 410 OFFCURVE",
"254 450 OFFCURVE",
"319 450 CURVE SMOOTH",
"389 450 LINE",
"322 70 LINE",
"305 60 OFFCURVE",
"273 50 OFFCURVE",
"248 50 CURVE SMOOTH"
);
}
);
width = 465;
},
{
anchors = (
{
name = bottom;
position = "{249, 0}";
},
{
name = ogonek;
position = "{397, 10}";
},
{
name = top;
position = "{363, 500}";
}
);
hints = (
{
horizontal = 1;
place = "{-10, 70}";
},
{
horizontal = 1;
place = "{440, 70}";
},
{
horizontal = 1;
place = "{0, 21}";
target = up;
type = BottomGhost;
}
);
layerId = "97C2AB1A-35E1-4EAE-9807-DD7336879977";
paths = (
{
closed = 1;
nodes = (
"263 -10 OFFCURVE",
"300 10 OFFCURVE",
"325 30 CURVE",
"330 30 LINE",
"340 0 LINE",
"425 0 LINE",
"509 480 LINE",
"463 500 OFFCURVE",
"419 510 OFFCURVE",
"349 510 CURVE SMOOTH",
"199 510 OFFCURVE",
"117 440 OFFCURVE",
"84 250 CURVE SMOOTH",
"50 60 OFFCURVE",
"108 -10 OFFCURVE",
"208 -10 CURVE"
);
},
{
closed = 1;
nodes = (
"210 60 OFFCURVE",
"177 100 OFFCURVE",
"204 250 CURVE SMOOTH",
"230 400 OFFCURVE",
"277 440 OFFCURVE",
"337 440 CURVE SMOOTH",
"382 440 LINE",
"319 80 LINE",
"307 70 OFFCURVE",
"285 60 OFFCURVE",
"260 60 CURVE SMOOTH"
);
}
);
width = 490;
}
);
leftKerningGroup = a;
rightKerningGroup = n;
unicode = 0061;
},
{
color = 9;
glyphname = aacute;
layers = (
{
hints = (
{
horizontal = 1;
place = "{-10, 60}";
},
{
horizontal = 1;
place = "{450, 60}";
},
{
horizontal = 1;
place = "{560, 130}";
},
{
horizontal = 1;
place = "{0, 21}";
target = up;
type = BottomGhost;
}
);
layerId = UUID0;
paths = (
{
closed = 1;
nodes = (
"248 -10 OFFCURVE",
"290 5 OFFCURVE",
"320 30 CURVE",
"325 30 LINE",
"325 0 LINE",
"400 0 LINE",
"484 480 LINE",
"438 500 OFFCURVE",
"389 510 OFFCURVE",
"329 510 CURVE SMOOTH",
"194 510 OFFCURVE",
"124 450 OFFCURVE",
"89 250 CURVE SMOOTH",
"53 50 OFFCURVE",
"103 -10 OFFCURVE",
"208 -10 CURVE SMOOTH"
);
},
{
closed = 1;
nodes = (
"183 50 OFFCURVE",
"150 90 OFFCURVE",
"179 250 CURVE SMOOTH",
"207 410 OFFCURVE",
"254 450 OFFCURVE",
"319 450 CURVE SMOOTH",
"389 450 LINE",
"322 70 LINE",
"305 60 OFFCURVE",
"273 50 OFFCURVE",
"248 50 CURVE SMOOTH"
);
},
{
closed = 1;
nodes = (
"368 560 LINE",
"461 690 LINE",
"366 690 LINE",
"308 560 LINE"
);
}
);
width = 465;
},
{
hints = (
{
horizontal = 1;
place = "{-10, 70}";
},
{
horizontal = 1;
place = "{440, 70}";
},
{
horizontal = 1;
place = "{560, 130}";
},
{
horizontal = 1;
place = "{0, 21}";
target = up;
type = BottomGhost;
}
);
layerId = "97C2AB1A-35E1-4EAE-9807-DD7336879977";
paths = (
{
closed = 1;
nodes = (
"263 -10 OFFCURVE",
"300 10 OFFCURVE",
"325 30 CURVE",
"330 30 LINE",
"340 0 LINE",
"425 0 LINE",
"509 480 LINE",
"463 500 OFFCURVE",
"419 510 OFFCURVE",
"349 510 CURVE SMOOTH",
"199 510 OFFCURVE",
"117 440 OFFCURVE",
"84 250 CURVE SMOOTH",
"50 60 OFFCURVE",
"108 -10 OFFCURVE",
"208 -10 CURVE SMOOTH"
);
},
{
closed = 1;
nodes = (
"210 60 OFFCURVE",
"177 100 OFFCURVE",
"204 250 CURVE SMOOTH",
"230 400 OFFCURVE",
"277 440 OFFCURVE",
"337 440 CURVE SMOOTH",
"382 440 LINE",
"319 80 LINE",
"307 70 OFFCURVE",
"285 60 OFFCURVE",
"260 60 CURVE SMOOTH"
);
},
{
closed = 1;
nodes = (
"383 560 LINE",
"481 690 LINE",
"366 690 LINE",
"308 560 LINE"
);
}
);
width = 490;
}
);
leftKerningGroup = a;
rightKerningGroup = n;
unicode = 00E1;
},
{
color = 9;
glyphname = acircumflex;
layers = (
{
hints = (
{
horizontal = 1;
place = "{-10, 60}";
},
{
horizontal = 1;
place = "{450, 60}";
},
{
horizontal = 1;
place = "{550, 130}";
},
{
horizontal = 1;
place = "{0, 21}";
target = up;
type = BottomGhost;
}
);
layerId = UUID0;
paths = (
{
closed = 1;
nodes = (
"247 -10 OFFCURVE",
"289 5 OFFCURVE",
"319 30 CURVE",
"324 30 LINE",
"324 0 LINE",
"399 0 LINE",
"483 480 LINE",
"437 500 OFFCURVE",
"388 510 OFFCURVE",
"328 510 CURVE SMOOTH",
"193 510 OFFCURVE",
"123 450 OFFCURVE",
"88 250 CURVE SMOOTH",
"52 50 OFFCURVE",
"102 -10 OFFCURVE",
"207 -10 CURVE SMOOTH"
);
},
{
closed = 1;
nodes = (
"182 50 OFFCURVE",
"149 90 OFFCURVE",
"178 250 CURVE SMOOTH",
"206 410 OFFCURVE",
"253 450 OFFCURVE",
"318 450 CURVE SMOOTH",
"388 450 LINE",
"321 70 LINE",
"304 60 OFFCURVE",
"272 50 OFFCURVE",
"247 50 CURVE SMOOTH"
);
},
{
closed = 1;
nodes = (
"280 550 LINE",
"356 624 LINE",
"405 550 LINE",
"465 550 LINE",
"413 680 LINE",
"318 680 LINE",
"220 550 LINE"
);
}
);
width = 464;
},
{
hints = (
{
horizontal = 1;
place = "{-10, 70}";
},
{
horizontal = 1;
place = "{440, 70}";
},
{
horizontal = 1;
place = "{550, 130}";
},
{
horizontal = 1;
place = "{0, 21}";
target = up;
type = BottomGhost;
}
);
layerId = "97C2AB1A-35E1-4EAE-9807-DD7336879977";
paths = (
{
closed = 1;
nodes = (
"263 -10 OFFCURVE",
"300 10 OFFCURVE",
"325 30 CURVE",
"330 30 LINE",
"340 0 LINE",
"425 0 LINE",
"509 480 LINE",
"463 500 OFFCURVE",
"419 510 OFFCURVE",
"349 510 CURVE SMOOTH",
"199 510 OFFCURVE",
"117 440 OFFCURVE",
"84 250 CURVE SMOOTH",
"50 60 OFFCURVE",
"108 -10 OFFCURVE",
"208 -10 CURVE SMOOTH"
);
},
{
closed = 1;
nodes = (
"210 60 OFFCURVE",
"177 100 OFFCURVE",
"204 250 CURVE SMOOTH",
"230 400 OFFCURVE",
"277 440 OFFCURVE",
"337 440 CURVE SMOOTH",
"382 440 LINE",
"319 80 LINE",
"307 70 OFFCURVE",
"285 60 OFFCURVE",
"260 60 CURVE SMOOTH"
);
},
{
closed = 1;
nodes = (
"297 550 LINE",
"366 620 LINE",
"409 550 LINE",
"486 550 LINE",
"429 680 LINE",
"324 680 LINE",
"221 550 LINE"
);
}
);
width = 490;
}
);
leftKerningGroup = a;
rightKerningGroup = n;
unicode = 00E2;
},
{
glyphname = adieresis;
layers = (
{
hints = (
{
horizontal = 1;
place = "{-10, 60}";
},
{
horizontal = 1;
place = "{450, 60}";
},
{
horizontal = 1;
place = "{570, 110}";
},
{
horizontal = 1;
place = "{0, 21}";
target = up;
type = BottomGhost;
}
);
layerId = UUID0;
paths = (
{
closed = 1;
nodes = (
"247 -10 OFFCURVE",
"289 5 OFFCURVE",
"319 30 CURVE",
"324 30 LINE",
"324 0 LINE",
"399 0 LINE",
"483 480 LINE",
"437 500 OFFCURVE",
"388 510 OFFCURVE",
"328 510 CURVE SMOOTH",
"193 510 OFFCURVE",
"123 450 OFFCURVE",
"88 250 CURVE SMOOTH",
"52 50 OFFCURVE",
"102 -10 OFFCURVE",
"207 -10 CURVE SMOOTH"
);
},
{
closed = 1;
nodes = (
"182 50 OFFCURVE",
"149 90 OFFCURVE",
"178 250 CURVE SMOOTH",
"206 410 OFFCURVE",
"253 450 OFFCURVE",
"318 450 CURVE SMOOTH",
"388 450 LINE",
"321 70 LINE",
"304 60 OFFCURVE",
"272 50 OFFCURVE",
"247 50 CURVE SMOOTH"
);
},
{
closed = 1;
nodes = (
"309 570 LINE",
"328 680 LINE",
"238 680 LINE",
"219 570 LINE"
);
},
{
closed = 1;
nodes = (
"469 570 LINE",
"488 680 LINE",
"398 680 LINE",
"379 570 LINE"
);
}
);
width = 464;
},
{
hints = (
{
horizontal = 1;
place = "{-10, 70}";
},
{
horizontal = 1;
place = "{440, 70}";
},
{
horizontal = 1;
place = "{560, 120}";
},
{
horizontal = 1;
place = "{0, 21}";
target = up;
type = BottomGhost;
}
);
layerId = "97C2AB1A-35E1-4EAE-9807-DD7336879977";
paths = (
{
closed = 1;
nodes = (
"263 -10 OFFCURVE",
"300 10 OFFCURVE",
"325 30 CURVE",
"330 30 LINE",
"340 0 LINE",
"425 0 LINE",
"509 480 LINE",
"463 500 OFFCURVE",
"419 510 OFFCURVE",
"349 510 CURVE SMOOTH",
"199 510 OFFCURVE",
"117 440 OFFCURVE",
"84 250 CURVE SMOOTH",
"50 60 OFFCURVE",
"108 -10 OFFCURVE",
"208 -10 CURVE SMOOTH"
);
},
{
closed = 1;
nodes = (
"210 60 OFFCURVE",
"177 100 OFFCURVE",
"204 250 CURVE SMOOTH",
"230 400 OFFCURVE",
"277 440 OFFCURVE",
"337 440 CURVE SMOOTH",
"382 440 LINE",
"319 80 LINE",
"307 70 OFFCURVE",
"285 60 OFFCURVE",
"260 60 CURVE SMOOTH"
);
},
{
closed = 1;
nodes = (
"328 560 LINE",
"349 680 LINE",
"239 680 LINE",
"218 560 LINE"
);
},
{
closed = 1;
nodes = (
"488 560 LINE",
"509 680 LINE",
"399 680 LINE",
"378 560 LINE"
);
}
);
width = 490;
}
);
leftKerningGroup = a;
rightKerningGroup = n;
unicode = 00E4;
},
{
color = 9;
glyphname = agrave;
layers = (
{
hints = (
{
horizontal = 1;
place = "{-10, 60}";
},
{
horizontal = 1;
place = "{450, 60}";
},
{
horizontal = 1;
place = "{560, 130}";
},
{
horizontal = 1;
place = "{0, 21}";
target = up;
type = BottomGhost;
}
);
layerId = UUID0;
paths = (
{
closed = 1;
nodes = (
"248 -10 OFFCURVE",
"290 5 OFFCURVE",
"320 30 CURVE",
"325 30 LINE",
"325 0 LINE",
"400 0 LINE",
"484 480 LINE",
"438 500 OFFCURVE",
"389 510 OFFCURVE",
"329 510 CURVE SMOOTH",
"194 510 OFFCURVE",
"124 450 OFFCURVE",
"89 250 CURVE SMOOTH",
"53 50 OFFCURVE",
"103 -10 OFFCURVE",
"208 -10 CURVE SMOOTH"
);
},
{
closed = 1;
nodes = (
"183 50 OFFCURVE",
"150 90 OFFCURVE",
"179 250 CURVE SMOOTH",
"207 410 OFFCURVE",
"254 450 OFFCURVE",
"319 450 CURVE SMOOTH",
"389 450 LINE",
"322 70 LINE",
"305 60 OFFCURVE",
"273 50 OFFCURVE",
"248 50 CURVE SMOOTH"
);
},
{
closed = 1;
nodes = (
"387 560 LINE",
"375 690 LINE",
"280 690 LINE",
"327 560 LINE"
);
}
);
width = 464;
},
{
hints = (
{
horizontal = 1;
place = "{-10, 70}";
},
{
horizontal = 1;
place = "{440, 70}";
},
{
horizontal = 1;
place = "{560, 130}";
},
{
horizontal = 1;
place = "{0, 21}";
target = up;
type = BottomGhost;
}
);
layerId = "97C2AB1A-35E1-4EAE-9807-DD7336879977";
paths = (
{
closed = 1;
nodes = (
"263 -10 OFFCURVE",
"300 10 OFFCURVE",
"325 30 CURVE",
"330 30 LINE",
"340 0 LINE",
"425 0 LINE",
"509 480 LINE",
"463 500 OFFCURVE",
"419 510 OFFCURVE",
"349 510 CURVE SMOOTH",
"199 510 OFFCURVE",
"117 440 OFFCURVE",
"84 250 CURVE SMOOTH",
"50 60 OFFCURVE",
"108 -10 OFFCURVE",
"208 -10 CURVE SMOOTH"
);
},
{
closed = 1;
nodes = (
"210 60 OFFCURVE",
"177 100 OFFCURVE",
"204 250 CURVE SMOOTH",
"230 400 OFFCURVE",
"277 440 OFFCURVE",
"337 440 CURVE SMOOTH",
"382 440 LINE",
"319 80 LINE",
"307 70 OFFCURVE",
"285 60 OFFCURVE",
"260 60 CURVE SMOOTH"
);
},
{
closed = 1;
nodes = (
"404 560 LINE",
"392 690 LINE",
"277 690 LINE",
"329 560 LINE"
);
}
);
width = 490;
}
);
leftKerningGroup = a;
rightKerningGroup = n;
unicode = 00E0;
},
{
glyphname = amacron;
layers = (
{
hints = (
{
horizontal = 1;
place = "{-10, 60}";
},
{
horizontal = 1;
place = "{450, 60}";
},
{
horizontal = 1;
place = "{580, 60}";
},
{
horizontal = 1;
place = "{0, 21}";
target = up;
type = BottomGhost;
}
);
layerId = UUID0;
paths = (
{
closed = 1;
nodes = (
"248 -10 OFFCURVE",
"290 5 OFFCURVE",
"320 30 CURVE",
"325 30 LINE",
"325 0 LINE",
"400 0 LINE",
"484 480 LINE",
"438 500 OFFCURVE",
"389 510 OFFCURVE",
"329 510 CURVE SMOOTH",
"194 510 OFFCURVE",
"124 450 OFFCURVE",
"89 250 CURVE SMOOTH",
"53 50 OFFCURVE",
"103 -10 OFFCURVE",
"208 -10 CURVE SMOOTH"
);
},
{
closed = 1;
nodes = (
"183 50 OFFCURVE",
"150 90 OFFCURVE",
"179 250 CURVE SMOOTH",
"207 410 OFFCURVE",
"254 450 OFFCURVE",
"319 450 CURVE SMOOTH",
"389 450 LINE",
"322 70 LINE",
"305 60 OFFCURVE",
"273 50 OFFCURVE",
"248 50 CURVE SMOOTH"
);
},
{
closed = 1;
nodes = (
"467 580 LINE",
"477 640 LINE",
"247 640 LINE",
"237 580 LINE"
);
}
);
width = 465;
},
{
hints = (
{
horizontal = 1;
place = "{-10, 70}";
},
{
horizontal = 1;
place = "{440, 70}";
},
{
horizontal = 1;
place = "{570, 70}";
},
{
horizontal = 1;
place = "{0, 21}";
target = up;
type = BottomGhost;
}
);
layerId = "97C2AB1A-35E1-4EAE-9807-DD7336879977";
paths = (
{
closed = 1;
nodes = (
"263 -10 OFFCURVE",
"300 10 OFFCURVE",
"325 30 CURVE",
"330 30 LINE",
"340 0 LINE",
"425 0 LINE",
"509 480 LINE",
"463 500 OFFCURVE",
"419 510 OFFCURVE",
"349 510 CURVE SMOOTH",
"199 510 OFFCURVE",
"117 440 OFFCURVE",
"84 250 CURVE SMOOTH",
"50 60 OFFCURVE",
"108 -10 OFFCURVE",
"208 -10 CURVE SMOOTH"
);
},
{
closed = 1;
nodes = (
"210 60 OFFCURVE",
"177 100 OFFCURVE",
"204 250 CURVE SMOOTH",
"230 400 OFFCURVE",
"277 440 OFFCURVE",
"337 440 CURVE SMOOTH",
"382 440 LINE",
"319 80 LINE",
"307 70 OFFCURVE",
"285 60 OFFCURVE",
"260 60 CURVE SMOOTH"
);
},
{
closed = 1;
nodes = (
"480 570 LINE",
"492 640 LINE",
"252 640 LINE",
"240 570 LINE"
);
}
);
width = 490;
}
);
leftKerningGroup = a;
rightKerningGroup = n;
unicode = 0101;
},
{
glyphname = aogonek;
layers = (
{
hints = (
{
horizontal = 1;
place = "{-160, 56}";
},
{
horizontal = 1;
place = "{-10, 60}";
},
{
horizontal = 1;
place = "{450, 60}";
},
{
horizontal = 1;
place = "{0, 21}";
target = up;
type = BottomGhost;
}
);
layerId = UUID0;
paths = (
{
closed = 1;
nodes = (
"411 -160 OFFCURVE",
"444 -145 OFFCURVE",
"444 -145 CURVE",
"451 -104 LINE",
"416 -104 LINE SMOOTH",
"371 -104 OFFCURVE",
"359 -90 OFFCURVE",
"367 -45 CURVE SMOOTH",
"375 0 LINE",
"400 0 LINE",
"484 480 LINE",
"438 500 OFFCURVE",
"389 510 OFFCURVE",
"329 510 CURVE SMOOTH",
"194 510 OFFCURVE",
"124 450 OFFCURVE",
"89 250 CURVE SMOOTH",
"53 50 OFFCURVE",
"103 -10 OFFCURVE",
"208 -10 CURVE SMOOTH",
"248 -10 OFFCURVE",
"290 5 OFFCURVE",
"320 30 CURVE",
"325 30 LINE",
"325 0 LINE",
"335 0 LINE",
"335 0 OFFCURVE",
"303 -35 OFFCURVE",
"295 -80 CURVE SMOOTH",
"287 -130 OFFCURVE",
"311 -160 OFFCURVE",
"366 -160 CURVE SMOOTH"
);
},
{
closed = 1;
nodes = (
"183 50 OFFCURVE",
"150 90 OFFCURVE",
"179 250 CURVE SMOOTH",
"207 410 OFFCURVE",
"254 450 OFFCURVE",
"319 450 CURVE SMOOTH",
"389 450 LINE",
"322 70 LINE",
"305 60 OFFCURVE",
"273 50 OFFCURVE",
"248 50 CURVE SMOOTH"
);
}
);
width = 465;
},
{
hints = (
{
horizontal = 1;
place = "{-160, 60}";
},
{
horizontal = 1;
place = "{-10, 70}";
},
{
horizontal = 1;
place = "{440, 70}";
},
{
horizontal = 1;
place = "{0, 21}";
target = up;
type = BottomGhost;
}
);
layerId = "97C2AB1A-35E1-4EAE-9807-DD7336879977";
paths = (
{
closed = 1;
nodes = (
"431 -160 OFFCURVE",
"465 -145 OFFCURVE",
"465 -145 CURVE",
"473 -100 LINE",
"437 -100 LINE SMOOTH",
"402 -100 OFFCURVE",
"386 -80 OFFCURVE",
"393 -45 CURVE SMOOTH",
"401 0 LINE",
"425 0 LINE",
"509 480 LINE",
"463 500 OFFCURVE",
"419 510 OFFCURVE",
"349 510 CURVE SMOOTH",
"199 510 OFFCURVE",
"117 440 OFFCURVE",
"84 250 CURVE SMOOTH",
"50 60 OFFCURVE",
"108 -10 OFFCURVE",
"208 -10 CURVE SMOOTH",
"263 -10 OFFCURVE",
"300 10 OFFCURVE",
"325 30 CURVE",
"330 30 LINE",
"340 0 LINE",
"351 0 LINE",
"351 0 OFFCURVE",
"319 -30 OFFCURVE",
"310 -80 CURVE SMOOTH",
"302 -125 OFFCURVE",
"331 -160 OFFCURVE",
"386 -160 CURVE SMOOTH"
);
},
{
closed = 1;
nodes = (
"210 60 OFFCURVE",
"177 100 OFFCURVE",
"204 250 CURVE SMOOTH",
"230 400 OFFCURVE",
"277 440 OFFCURVE",
"337 440 CURVE SMOOTH",
"382 440 LINE",
"319 80 LINE",
"307 70 OFFCURVE",
"285 60 OFFCURVE",
"260 60 CURVE SMOOTH"
);
}
);
width = 486;
}
);
leftKerningGroup = a;
rightKerningGroup = n;
unicode = 0105;
},
{
glyphname = aring;
layers = (
{
hints = (
{
horizontal = 1;
place = "{-10, 60}";
},
{
horizontal = 1;
place = "{450, 60}";
},
{
horizontal = 1;
place = "{540, 45}";
},
{
horizontal = 1;
place = "{655, 45}";
},
{
horizontal = 1;
place = "{0, 21}";
target = up;
type = BottomGhost;
}
);
layerId = UUID0;
paths = (
{
closed = 1;
nodes = (
"248 -10 OFFCURVE",
"290 5 OFFCURVE",
"320 30 CURVE",
"325 30 LINE",
"325 0 LINE",
"400 0 LINE",
"484 480 LINE",
"438 500 OFFCURVE",
"389 510 OFFCURVE",
"329 510 CURVE SMOOTH",
"194 510 OFFCURVE",
"124 450 OFFCURVE",
"89 250 CURVE SMOOTH",
"53 50 OFFCURVE",
"103 -10 OFFCURVE",
"208 -10 CURVE SMOOTH"
);
},
{
closed = 1;
nodes = (
"183 50 OFFCURVE",
"150 90 OFFCURVE",
"179 250 CURVE SMOOTH",
"207 410 OFFCURVE",
"254 450 OFFCURVE",
"319 450 CURVE SMOOTH",
"389 450 LINE",
"322 70 LINE",
"305 60 OFFCURVE",
"273 50 OFFCURVE",
"248 50 CURVE SMOOTH"
);
},
{
closed = 1;
nodes = (
"390 540 OFFCURVE",
"430 570 OFFCURVE",
"439 620 CURVE SMOOTH",
"448 670 OFFCURVE",
"418 700 OFFCURVE",
"368 700 CURVE SMOOTH",
"318 700 OFFCURVE",
"278 670 OFFCURVE",
"269 620 CURVE SMOOTH",
"260 570 OFFCURVE",
"290 540 OFFCURVE",
"340 540 CURVE SMOOTH"
);
},
{
closed = 1;
nodes = (
"328 585 OFFCURVE",
"314 595 OFFCURVE",
"319 620 CURVE SMOOTH",
"323 645 OFFCURVE",
"340 655 OFFCURVE",
"360 655 CURVE SMOOTH",
"380 655 OFFCURVE",
"393 645 OFFCURVE",
"389 620 CURVE SMOOTH",
"384 595 OFFCURVE",
"368 585 OFFCURVE",
"348 585 CURVE SMOOTH"
);
}
);
width = 465;
},
{
hints = (
{
horizontal = 1;
place = "{-10, 70}";
},
{
horizontal = 1;
place = "{440, 70}";
},
{
horizontal = 1;
place = "{535, 55}";
},
{
horizontal = 1;
place = "{650, 55}";
},
{
horizontal = 1;
place = "{0, 21}";
target = up;
type = BottomGhost;
}
);
layerId = "97C2AB1A-35E1-4EAE-9807-DD7336879977";
paths = (
{
closed = 1;
nodes = (
"263 -10 OFFCURVE",
"300 10 OFFCURVE",
"325 30 CURVE",
"330 30 LINE",
"340 0 LINE",
"425 0 LINE",
"509 480 LINE",
"463 500 OFFCURVE",
"419 510 OFFCURVE",
"349 510 CURVE SMOOTH",
"199 510 OFFCURVE",
"117 440 OFFCURVE",
"84 250 CURVE SMOOTH",
"50 60 OFFCURVE",
"108 -10 OFFCURVE",
"208 -10 CURVE SMOOTH"
);
},
{
closed = 1;
nodes = (
"210 60 OFFCURVE",
"177 100 OFFCURVE",
"204 250 CURVE SMOOTH",
"230 400 OFFCURVE",
"277 440 OFFCURVE",
"337 440 CURVE SMOOTH",
"382 440 LINE",
"319 80 LINE",
"307 70 OFFCURVE",
"285 60 OFFCURVE",
"260 60 CURVE SMOOTH"
);
},
{
closed = 1;
nodes = (
"404 535 OFFCURVE",
"450 570 OFFCURVE",
"459 620 CURVE SMOOTH",
"468 670 OFFCURVE",
"434 705 OFFCURVE",
"379 705 CURVE SMOOTH",
"324 705 OFFCURVE",
"278 670 OFFCURVE",
"269 620 CURVE SMOOTH",
"260 570 OFFCURVE",
"294 535 OFFCURVE",
"349 535 CURVE SMOOTH"
);
},
{
closed = 1;
nodes = (
"344 590 OFFCURVE",
"330 600 OFFCURVE",
"334 620 CURVE SMOOTH",
"337 640 OFFCURVE",
"354 650 OFFCURVE",
"369 650 CURVE SMOOTH",
"384 650 OFFCURVE",
"397 640 OFFCURVE",
"394 620 CURVE SMOOTH",
"390 600 OFFCURVE",
"374 590 OFFCURVE",
"359 590 CURVE SMOOTH"
);
}
);
width = 490;
}
);
leftKerningGroup = a;
rightKerningGroup = n;
unicode = 00E5;
},
{
glyphname = ae;
layers = (
{
hints = (
{
horizontal = 1;
place = "{-10, 60}";
},
{
horizontal = 1;
place = "{225, 55}";
},
{
horizontal = 1;
place = "{455, 55}";
}
);
layerId = UUID0;
paths = (
{
closed = 1;
nodes = (
"263 -10 OFFCURVE",
"317 15 OFFCURVE",
"355 60 CURVE",
"381 10 OFFCURVE",
"423 -10 OFFCURVE",
"503 -10 CURVE SMOOTH",
"543 -10 OFFCURVE",
"595 0 OFFCURVE",
"626 10 CURVE",
"633 50 LINE",
"533 50 LINE SMOOTH",
"433 50 OFFCURVE",
"400 90 OFFCURVE",
"423 220 CURVE",
"518 220 LINE SMOOTH",
"643 220 OFFCURVE",
"702 270 OFFCURVE",
"718 360 CURVE SMOOTH",
"735 455 OFFCURVE",
"689 510 OFFCURVE",
"569 510 CURVE SMOOTH",
"504 510 OFFCURVE",
"455 485 OFFCURVE",
"422 440 CURVE",
"405 485 OFFCURVE",
"354 510 OFFCURVE",
"294 510 CURVE SMOOTH",
"254 510 OFFCURVE",
"203 500 OFFCURVE",
"171 490 CURVE",
"164 450 LINE",
"264 450 LINE SMOOTH",
"334 450 OFFCURVE",
"370 430 OFFCURVE",
"354 340 CURVE SMOOTH",
"343 275 LINE",
"314 280 OFFCURVE",
"275 285 OFFCURVE",
"245 285 CURVE SMOOTH",
"155 285 OFFCURVE",
"89 255 OFFCURVE",
"69 140 CURVE SMOOTH",
"48 20 OFFCURVE",
"103 -10 OFFCURVE",
"193 -10 CURVE SMOOTH"
);
},
{
closed = 1;
nodes = (
"183 50 OFFCURVE",
"147 70 OFFCURVE",
"159 140 CURVE SMOOTH",
"171 205 OFFCURVE",
"214 225 OFFCURVE",
"264 225 CURVE SMOOTH",
"334 225 LINE",
"309 80 LINE",
"309 80 OFFCURVE",
"273 50 OFFCURVE",
"223 50 CURVE SMOOTH"
);
},
{
closed = 1;
nodes = (
"458 415 OFFCURVE",
"505 455 OFFCURVE",
"560 455 CURVE SMOOTH",
"610 455 OFFCURVE",
"639 420 OFFCURVE",
"628 360 CURVE SMOOTH",
"619 310 OFFCURVE",
"584 280 OFFCURVE",
"529 280 CURVE SMOOTH",
"434 280 LINE"
);
}
);
width = 685;
},
{
hints = (
{
horizontal = 1;
place = "{-10, 70}";
},
{
horizontal = 1;
place = "{220, 70}";
},
{
horizontal = 1;
place = "{440, 70}";
}
);
layerId = "97C2AB1A-35E1-4EAE-9807-DD7336879977";
paths = (
{
closed = 1;
nodes = (
"283 -10 OFFCURVE",
"327 15 OFFCURVE",
"363 50 CURVE",
"387 15 OFFCURVE",
"428 -10 OFFCURVE",
"513 -10 CURVE SMOOTH",
"563 -10 OFFCURVE",
"615 0 OFFCURVE",
"646 10 CURVE",
"655 60 LINE",
"545 60 LINE SMOOTH",
"460 60 OFFCURVE",
"427 100 OFFCURVE",
"447 215 CURVE",
"527 215 LINE SMOOTH",
"652 215 OFFCURVE",
"730 260 OFFCURVE",
"748 360 CURVE SMOOTH",
"765 455 OFFCURVE",
"704 510 OFFCURVE",
"579 510 CURVE SMOOTH",
"514 510 OFFCURVE",
"470 485 OFFCURVE",
"434 450 CURVE",
"410 485 OFFCURVE",
"369 510 OFFCURVE",
"294 510 CURVE SMOOTH",
"254 510 OFFCURVE",
"203 500 OFFCURVE",
"171 490 CURVE",
"162 440 LINE",
"262 440 LINE SMOOTH",
"327 440 OFFCURVE",
"364 420 OFFCURVE",
"349 340 CURVE SMOOTH",
"339 280 LINE",
"315 285 OFFCURVE",
"286 290 OFFCURVE",
"256 290 CURVE SMOOTH",
"161 290 OFFCURVE",
"85 260 OFFCURVE",
"64 140 CURVE SMOOTH",
"43 20 OFFCURVE",
"108 -10 OFFCURVE",
"203 -10 CURVE SMOOTH"
);
},
{
closed = 1;
nodes = (
"210 60 OFFCURVE",
"174 80 OFFCURVE",
"184 140 CURVE SMOOTH",
"195 200 OFFCURVE",
"238 220 OFFCURVE",
"273 220 CURVE SMOOTH",
"328 220 LINE",
"304 80 LINE",
"292 70 OFFCURVE",
"270 60 OFFCURVE",
"245 60 CURVE SMOOTH"
);
},
{
closed = 1;
nodes = (
"483 415 OFFCURVE",
"518 445 OFFCURVE",
"573 445 CURVE SMOOTH",
"613 445 OFFCURVE",
"639 420 OFFCURVE",
"628 360 CURVE SMOOTH",
"619 310 OFFCURVE",
"585 285 OFFCURVE",
"540 285 CURVE SMOOTH",
"460 285 LINE"
);
}
);
width = 715;
}
);
leftKerningGroup = a;
rightKerningGroup = e;
unicode = 00E6;
},
{
glyphname = b;
layers = (
{
hints = (
{
horizontal = 1;
place = "{-10, 60}";
},
{
horizontal = 1;
place = "{450, 60}";
},
{
horizontal = 1;
place = "{450, 250}";
}
);
layerId = UUID0;
paths = (
{
closed = 1;
nodes = (
"363 -10 OFFCURVE",
"433 50 OFFCURVE",
"469 250 CURVE SMOOTH",
"504 450 OFFCURVE",
"454 510 OFFCURVE",
"349 510 CURVE SMOOTH",
"309 510 OFFCURVE",
"278 500 OFFCURVE",
"245 485 CURVE",
"283 700 LINE",
"193 700 LINE",
"73 20 LINE",
"120 0 OFFCURVE",
"168 -10 OFFCURVE",
"228 -10 CURVE SMOOTH"
);
},
{
closed = 1;
nodes = (
"235 430 LINE",
"252 440 OFFCURVE",
"284 450 OFFCURVE",
"309 450 CURVE SMOOTH",
"374 450 OFFCURVE",
"407 410 OFFCURVE",
"379 250 CURVE SMOOTH",
"350 90 OFFCURVE",
"303 50 OFFCURVE",
"238 50 CURVE SMOOTH",
"168 50 LINE"
);
}
);
width = 470;
},
{
hints = (
{
horizontal = 1;
place = "{-10, 70}";
},
{
horizontal = 1;
place = "{440, 70}";
},
{
horizontal = 1;
place = "{700, -20}";
target = down;
type = TopGhost;
}
);
layerId = "97C2AB1A-35E1-4EAE-9807-DD7336879977";
paths = (
{
closed = 1;
nodes = (
"383 -10 OFFCURVE",
"465 60 OFFCURVE",
"499 250 CURVE SMOOTH",
"532 440 OFFCURVE",
"474 510 OFFCURVE",
"364 510 CURVE SMOOTH",
"329 510 OFFCURVE",
"299 500 OFFCURVE",
"275 485 CURVE",
"313 700 LINE",
"193 700 LINE",
"73 20 LINE",
"120 0 OFFCURVE",
"163 -10 OFFCURVE",
"233 -10 CURVE SMOOTH"
);
},
{
closed = 1;
nodes = (
"264 420 LINE",
"275 430 OFFCURVE",
"297 440 OFFCURVE",
"322 440 CURVE SMOOTH",
"372 440 OFFCURVE",
"405 400 OFFCURVE",
"379 250 CURVE SMOOTH",
"352 100 OFFCURVE",
"305 60 OFFCURVE",
"245 60 CURVE SMOOTH",
"200 60 LINE"
);
}
);
width = 495;
}
);
leftKerningGroup = h;
rightKerningGroup = o;
unicode = 0062;
},
{
glyphname = c;
layers = (
{
hints = (
{
horizontal = 1;
place = "{-10, 60}";
},
{
horizontal = 1;
place = "{450, 60}";
}
);
layerId = UUID0;
paths = (
{
closed = 1;
nodes = (
"278 -10 OFFCURVE",
"330 0 OFFCURVE",
"361 10 CURVE",
"368 50 LINE",
"268 50 LINE SMOOTH",
"183 50 OFFCURVE",
"150 90 OFFCURVE",
"179 250 CURVE SMOOTH",
"207 410 OFFCURVE",
"254 450 OFFCURVE",
"329 450 CURVE SMOOTH",
"429 450 LINE",
"436 490 LINE",
"408 500 OFFCURVE",
"359 510 OFFCURVE",
"319 510 CURVE SMOOTH",
"194 510 OFFCURVE",
"124 450 OFFCURVE",
"89 250 CURVE SMOOTH",
"53 50 OFFCURVE",
"103 -10 OFFCURVE",
"238 -10 CURVE SMOOTH"
);
}
);
width = 375;
},
{
hints = (
{
horizontal = 1;
place = "{-10, 70}";
},
{
horizontal = 1;
place = "{440, 70}";
}
);
layerId = "97C2AB1A-35E1-4EAE-9807-DD7336879977";
paths = (
{
closed = 1;
nodes = (
"298 -10 OFFCURVE",
"350 0 OFFCURVE",
"381 10 CURVE",
"390 60 LINE",
"280 60 LINE SMOOTH",
"210 60 OFFCURVE",
"177 100 OFFCURVE",
"204 250 CURVE SMOOTH",
"230 400 OFFCURVE",
"277 440 OFFCURVE",
"337 440 CURVE SMOOTH",
"447 440 LINE",
"456 490 LINE",
"428 500 OFFCURVE",
"379 510 OFFCURVE",
"329 510 CURVE SMOOTH",
"199 510 OFFCURVE",
"117 440 OFFCURVE",
"84 250 CURVE SMOOTH",
"50 60 OFFCURVE",
"108 -10 OFFCURVE",
"248 -10 CURVE SMOOTH"
);
}
);
width = 395;
}
);
leftKerningGroup = o;
rightKerningGroup = c;
unicode = 0063;
},
{
glyphname = cacute;
layers = (
{
hints = (
{
horizontal = 1;
place = "{-10, 60}";
},
{
horizontal = 1;
place = "{450, 60}";
},
{
horizontal = 1;
place = "{560, 130}";
}
);
layerId = UUID0;
paths = (
{
closed = 1;
nodes = (
"278 -10 OFFCURVE",
"330 0 OFFCURVE",
"361 10 CURVE",
"368 50 LINE",
"268 50 LINE SMOOTH",
"183 50 OFFCURVE",
"150 90 OFFCURVE",
"179 250 CURVE SMOOTH",
"207 410 OFFCURVE",
"254 450 OFFCURVE",
"329 450 CURVE SMOOTH",
"429 450 LINE",
"436 490 LINE",
"408 500 OFFCURVE",
"359 510 OFFCURVE",
"319 510 CURVE SMOOTH",
"194 510 OFFCURVE",
"124 450 OFFCURVE",
"89 250 CURVE SMOOTH",
"53 50 OFFCURVE",
"103 -10 OFFCURVE",
"238 -10 CURVE SMOOTH"
);
},
{
closed = 1;
nodes = (
"348 560 LINE",
"441 690 LINE",
"346 690 LINE",
"288 560 LINE"
);
}
);
width = 375;
},
{
hints = (
{
horizontal = 1;
place = "{-10, 70}";
},
{
horizontal = 1;
place = "{440, 70}";
},
{
horizontal = 1;
place = "{560, 130}";
}
);
layerId = "97C2AB1A-35E1-4EAE-9807-DD7336879977";
paths = (
{
closed = 1;
nodes = (
"298 -10 OFFCURVE",
"350 0 OFFCURVE",
"381 10 CURVE",
"390 60 LINE",
"280 60 LINE SMOOTH",
"210 60 OFFCURVE",
"177 100 OFFCURVE",
"204 250 CURVE SMOOTH",
"230 400 OFFCURVE",
"277 440 OFFCURVE",
"337 440 CURVE SMOOTH",
"447 440 LINE",
"456 490 LINE",
"428 500 OFFCURVE",
"379 510 OFFCURVE",
"329 510 CURVE SMOOTH",
"199 510 OFFCURVE",
"117 440 OFFCURVE",
"84 250 CURVE SMOOTH",
"50 60 OFFCURVE",
"108 -10 OFFCURVE",
"248 -10 CURVE SMOOTH"
);
},
{
closed = 1;
nodes = (
"363 560 LINE",
"461 690 LINE",
"346 690 LINE",
"288 560 LINE"
);
}
);
width = 395;
}
);
leftKerningGroup = o;
rightKerningGroup = c;
unicode = 0107;
},
{
glyphname = ccaron;
layers = (
{
hints = (
{
horizontal = 1;
place = "{-10, 60}";
},
{
horizontal = 1;
place = "{450, 60}";
},
{
horizontal = 1;
place = "{560, 130}";
}
);
layerId = UUID0;
paths = (
{
closed = 1;
nodes = (
"278 -10 OFFCURVE",
"330 0 OFFCURVE",
"361 10 CURVE",
"368 50 LINE",
"268 50 LINE SMOOTH",
"183 50 OFFCURVE",
"150 90 OFFCURVE",
"179 250 CURVE SMOOTH",
"207 410 OFFCURVE",
"254 450 OFFCURVE",
"329 450 CURVE SMOOTH",
"429 450 LINE",
"436 490 LINE",
"408 500 OFFCURVE",
"359 510 OFFCURVE",
"319 510 CURVE SMOOTH",
"194 510 OFFCURVE",
"124 450 OFFCURVE",
"89 250 CURVE SMOOTH",
"53 50 OFFCURVE",
"103 -10 OFFCURVE",
"238 -10 CURVE SMOOTH"
);
},
{
closed = 1;
nodes = (
"363 560 LINE",
"461 690 LINE",
"401 690 LINE",
"325 616 LINE",
"276 690 LINE",
"216 690 LINE",
"268 560 LINE"
);
}
);
width = 375;
},
{
hints = (
{
horizontal = 1;
place = "{-10, 70}";
},
{
horizontal = 1;
place = "{440, 70}";
},
{
horizontal = 1;
place = "{560, 130}";
}
);
layerId = "97C2AB1A-35E1-4EAE-9807-DD7336879977";
paths = (
{
closed = 1;
nodes = (
"298 -10 OFFCURVE",
"350 0 OFFCURVE",
"381 10 CURVE",
"390 60 LINE",
"280 60 LINE SMOOTH",
"210 60 OFFCURVE",
"177 100 OFFCURVE",
"204 250 CURVE SMOOTH",
"230 400 OFFCURVE",
"277 440 OFFCURVE",
"337 440 CURVE SMOOTH",
"447 440 LINE",
"456 490 LINE",
"428 500 OFFCURVE",
"379 510 OFFCURVE",
"329 510 CURVE SMOOTH",
"199 510 OFFCURVE",
"117 440 OFFCURVE",
"84 250 CURVE SMOOTH",
"50 60 OFFCURVE",
"108 -10 OFFCURVE",
"248 -10 CURVE SMOOTH"
);
},
{
closed = 1;
nodes = (
"373 560 LINE",
"476 690 LINE",
"399 690 LINE",
"331 620 LINE",
"287 690 LINE",
"211 690 LINE",
"268 560 LINE"
);
}
);
width = 395;
}
);
leftKerningGroup = o;
rightKerningGroup = c;
unicode = 010D;
},
{
glyphname = ccedilla;
layers = (
{
hints = (
{
horizontal = 1;
place = "{-165, 45}";
},
{
horizontal = 1;
place = "{-70, 45}";
},
{
horizontal = 1;
place = "{-10, 60}";
},
{
horizontal = 1;
place = "{450, 60}";
}
);
layerId = UUID0;
paths = (
{
closed = 1;
nodes = (
"270 -165 OFFCURVE",
"306 -135 OFFCURVE",
"313 -95 CURVE SMOOTH",
"320 -55 OFFCURVE",
"295 -25 OFFCURVE",
"240 -25 CURVE SMOOTH",
"225 -25 LINE",
"228 -10 LINE",
"238 -10 LINE SMOOTH",
"278 -10 OFFCURVE",
"330 0 OFFCURVE",
"361 10 CURVE",
"368 50 LINE",
"268 50 LINE SMOOTH",
"183 50 OFFCURVE",
"150 90 OFFCURVE",
"179 250 CURVE SMOOTH",
"207 410 OFFCURVE",
"254 450 OFFCURVE",
"329 450 CURVE SMOOTH",
"429 450 LINE",
"436 490 LINE",
"408 500 OFFCURVE",
"359 510 OFFCURVE",
"319 510 CURVE SMOOTH",
"194 510 OFFCURVE",
"124 450 OFFCURVE",
"89 250 CURVE SMOOTH",
"59 82 OFFCURVE",
"89 13 OFFCURVE",
"179 -4 CURVE",
"167 -70 LINE",
"222 -70 LINE SMOOTH",
"242 -70 OFFCURVE",
"250 -80 OFFCURVE",
"248 -95 CURVE SMOOTH",
"245 -110 OFFCURVE",
"233 -120 OFFCURVE",
"203 -120 CURVE SMOOTH",
"138 -120 LINE",
"133 -150 LINE",
"133 -150 OFFCURVE",
"160 -165 OFFCURVE",
"205 -165 CURVE SMOOTH"
);
}
);
width = 375;
},
{
hints = (
{
horizontal = 1;
place = "{-170, 49}";
},
{
horizontal = 1;
place = "{-79, 49}";
},
{
horizontal = 1;
place = "{-10, 70}";
},
{
horizontal = 1;
place = "{440, 70}";
},
{
horizontal = 1;
place = "{-9, 21}";
target = up;
type = BottomGhost;
}
);
layerId = "97C2AB1A-35E1-4EAE-9807-DD7336879977";
paths = (
{
closed = 1;
nodes = (
"275 -170 OFFCURVE",
"315 -140 OFFCURVE",
"322 -100 CURVE SMOOTH",
"329 -60 OFFCURVE",
"304 -30 OFFCURVE",
"244 -30 CURVE SMOOTH",
"229 -30 LINE",
"233 -10 LINE",
"232 -9 LINE",
"237 -9 OFFCURVE",
"242 -10 OFFCURVE",
"248 -10 CURVE SMOOTH",
"298 -10 OFFCURVE",
"350 0 OFFCURVE",
"381 10 CURVE",
"390 60 LINE",
"280 60 LINE SMOOTH",
"210 60 OFFCURVE",
"177 100 OFFCURVE",
"204 250 CURVE SMOOTH",
"230 400 OFFCURVE",
"277 440 OFFCURVE",
"337 440 CURVE SMOOTH",
"447 440 LINE",
"456 490 LINE",
"428 500 OFFCURVE",
"379 510 OFFCURVE",
"329 510 CURVE SMOOTH",
"199 510 OFFCURVE",
"117 440 OFFCURVE",
"84 250 CURVE SMOOTH",
"56 95 OFFCURVE",
"90 20 OFFCURVE",
"179 -2 CURVE",
"166 -79 LINE",
"221 -79 LINE SMOOTH",
"246 -79 OFFCURVE",
"249 -90 OFFCURVE",
"247 -100 CURVE SMOOTH",
"245 -111 OFFCURVE",
"238 -121 OFFCURVE",
"208 -121 CURVE SMOOTH",
"143 -121 LINE",
"137 -155 LINE",
"137 -155 OFFCURVE",
"160 -170 OFFCURVE",
"210 -170 CURVE SMOOTH"
);
}
);
width = 395;
}
);
leftKerningGroup = o;
rightKerningGroup = c;
unicode = 00E7;
},
{
glyphname = d;
layers = (
{
anchors = (
{
name = bottom;
position = "{191, 0}";
},
{
name = center;
position = "{420, 597}";
},
{
name = top;
position = "{279, 500}";
},
{
name = topright;
position = "{494, 500}";
}
);
hints = (
{
horizontal = 1;
place = "{-10, 60}";
},
{
horizontal = 1;
place = "{450, 60}";
},
{
horizontal = 1;
place = "{0, 21}";
target = up;
type = BottomGhost;
},
{
horizontal = 1;
place = "{700, -20}";
target = down;
type = TopGhost;
}
);
layerId = UUID0;
paths = (
{
closed = 1;
nodes = (
"248 -10 OFFCURVE",
"290 5 OFFCURVE",
"320 30 CURVE",
"325 30 LINE",
"325 0 LINE",
"400 0 LINE",
"523 700 LINE",
"433 700 LINE",
"395 485 LINE",
"368 500 OFFCURVE",
"339 510 OFFCURVE",
"299 510 CURVE SMOOTH",
"194 510 OFFCURVE",
"124 450 OFFCURVE",
"89 250 CURVE SMOOTH",
"53 50 OFFCURVE",
"103 -10 OFFCURVE",
"208 -10 CURVE SMOOTH"
);
},
{
closed = 1;
nodes = (
"183 50 OFFCURVE",
"150 90 OFFCURVE",
"179 250 CURVE",
"207 410 OFFCURVE",
"254 450 OFFCURVE",
"319 450 CURVE SMOOTH",
"344 450 OFFCURVE",
"372 440 OFFCURVE",
"385 430 CURVE",
"322 70 LINE",
"305 60 OFFCURVE",
"273 50 OFFCURVE",
"248 50 CURVE SMOOTH"
);
}
);
width = 470;
},
{
anchors = (
{
name = bottom;
position = "{204, 0}";
},
{
name = center;
position = "{433, 600}";
},
{
name = top;
position = "{292, 500}";
},
{
name = topright;
position = "{519, 500}";
}
);
hints = (
{
horizontal = 1;
place = "{-10, 70}";
},
{
horizontal = 1;
place = "{440, 70}";
},
{
horizontal = 1;
place = "{0, 21}";
target = up;
type = BottomGhost;
},
{
horizontal = 1;
place = "{700, -20}";
target = down;
type = TopGhost;
}
);
layerId = "97C2AB1A-35E1-4EAE-9807-DD7336879977";
paths = (
{
closed = 1;
nodes = (
"263 -10 OFFCURVE",
"300 10 OFFCURVE",
"325 30 CURVE",
"330 30 LINE",
"340 0 LINE",
"425 0 LINE",
"548 700 LINE",
"428 700 LINE",
"390 485 LINE",
"372 500 OFFCURVE",
"344 510 OFFCURVE",
"309 510 CURVE SMOOTH",
"199 510 OFFCURVE",
"117 440 OFFCURVE",
"84 250 CURVE SMOOTH",
"50 60 OFFCURVE",
"108 -10 OFFCURVE",
"208 -10 CURVE SMOOTH"
);
},
{
closed = 1;
nodes = (
"210 60 OFFCURVE",
"177 100 OFFCURVE",
"204 250 CURVE SMOOTH",
"230 400 OFFCURVE",
"277 440 OFFCURVE",
"327 440 CURVE SMOOTH",
"352 440 OFFCURVE",
"370 430 OFFCURVE",
"379 420 CURVE",
"319 80 LINE",
"302 70 OFFCURVE",
"285 60 OFFCURVE",
"260 60 CURVE SMOOTH"
);
}
);
width = 495;
}
);
leftKerningGroup = o;
rightKerningGroup = d;
unicode = 0064;
},
{
glyphname = eth;
layers = (
{
hints = (
{
horizontal = 1;
place = "{-10, 55}";
},
{
horizontal = 1;
place = "{380, 60}";
},
{
horizontal = 1;
place = "{710, -20}";
target = down;
type = TopGhost;
}
);
layerId = UUID0;
paths = (
{
closed = 1;
nodes = (
"348 -10 OFFCURVE",
"418 50 OFFCURVE",
"447 215 CURVE SMOOTH",
"473 360 LINE SMOOTH",
"492 466 OFFCURVE",
"480 546 OFFCURVE",
"439 603 CURVE",
"508 670 LINE",
"469 705 LINE",
"404 641 LINE",
"357 679 OFFCURVE",
"291 702 OFFCURVE",
"205 710 CURVE",
"193 670 LINE",
"264 652 OFFCURVE",
"317 625 OFFCURVE",
"351 589 CURVE",
"281 520 LINE",
"320 485 LINE",
"381 545 LINE",
"397 509 OFFCURVE",
"402 466 OFFCURVE",
"393 415 CURVE",
"365 430 OFFCURVE",
"337 440 OFFCURVE",
"292 440 CURVE SMOOTH",
"177 440 OFFCURVE",
"107 380 OFFCURVE",
"77 215 CURVE SMOOTH",
"48 50 OFFCURVE",
"98 -10 OFFCURVE",
"223 -10 CURVE SMOOTH"
);
},
{
closed = 1;
nodes = (
"177 45 OFFCURVE",
"144 85 OFFCURVE",
"167 215 CURVE SMOOTH",
"189 340 OFFCURVE",
"237 380 OFFCURVE",
"312 380 CURVE SMOOTH",
"342 380 OFFCURVE",
"370 370 OFFCURVE",
"383 360 CURVE",
"357 215 LINE",
"334 85 OFFCURVE",
"287 45 OFFCURVE",
"232 45 CURVE SMOOTH"
);
}
);
width = 455;
},
{
hints = (
{
horizontal = 1;
place = "{-10, 65}";
},
{
horizontal = 1;
place = "{370, 70}";
},
{
horizontal = 1;
place = "{717, -20}";
target = down;
type = TopGhost;
}
);
layerId = "97C2AB1A-35E1-4EAE-9807-DD7336879977";
paths = (
{
closed = 1;
nodes = (
"368 -10 OFFCURVE",
"450 60 OFFCURVE",
"477 215 CURVE SMOOTH",
"501 350 LINE SMOOTH",
"522 466 OFFCURVE",
"503 560 OFFCURVE",
"462 611 CURVE",
"529 676 LINE",
"486 717 LINE",
"419 650 LINE",
"375 685 OFFCURVE",
"299 705 OFFCURVE",
"210 710 CURVE",
"195 660 LINE",
"264 650 OFFCURVE",
"324 620 OFFCURVE",
"354 590 CURVE",
"286 520 LINE",
"329 479 LINE",
"390 539 LINE",
"404 510 OFFCURVE",
"402 466 OFFCURVE",
"393 415 CURVE",
"375 430 OFFCURVE",
"347 440 OFFCURVE",
"307 440 CURVE SMOOTH",
"187 440 OFFCURVE",
"105 370 OFFCURVE",
"77 215 CURVE SMOOTH",
"50 60 OFFCURVE",
"108 -10 OFFCURVE",
"238 -10 CURVE SMOOTH"
);
},
{
closed = 1;
nodes = (
"209 55 OFFCURVE",
"176 95 OFFCURVE",
"197 215 CURVE SMOOTH",
"218 330 OFFCURVE",
"265 370 OFFCURVE",
"325 370 CURVE SMOOTH",
"355 370 OFFCURVE",
"373 360 OFFCURVE",
"381 350 CURVE",
"357 215 LINE SMOOTH",
"336 95 OFFCURVE",
"289 55 OFFCURVE",
"249 55 CURVE SMOOTH"
);
}
);
width = 485;
}
);
leftKerningGroup = o;
rightKerningGroup = o;
unicode = 00F0;
},
{
glyphname = e;
layers = (
{
anchors = (
{
name = bottom;
position = "{227, 0}";
},
{
name = ogonek;
position = "{343, 10}";
},
{
name = top;
position = "{322, 500}";
}
);
hints = (
{
horizontal = 1;
place = "{-10, 60}";
},
{
horizontal = 1;
place = "{210, 60}";
},
{
horizontal = 1;
place = "{455, 55}";
}
);
layerId = UUID0;
paths = (
{
closed = 1;
nodes = (
"293 -10 OFFCURVE",
"345 0 OFFCURVE",
"376 10 CURVE",
"383 50 LINE",
"283 50 LINE SMOOTH",
"183 50 OFFCURVE",
"150 90 OFFCURVE",
"172 210 CURVE",
"267 210 LINE SMOOTH",
"392 210 OFFCURVE",
"450 260 OFFCURVE",
"466 350 CURVE SMOOTH",
"484 450 OFFCURVE",
"434 510 OFFCURVE",
"319 510 CURVE SMOOTH",
"194 510 OFFCURVE",
"124 450 OFFCURVE",
"89 250 CURVE SMOOTH",
"53 50 OFFCURVE",
"103 -10 OFFCURVE",
"253 -10 CURVE SMOOTH"
);
},
{
closed = 1;
nodes = (
"208 415 OFFCURVE",
"255 455 OFFCURVE",
"310 455 CURVE SMOOTH",
"355 455 OFFCURVE",
"388 415 OFFCURVE",
"376 350 CURVE SMOOTH",
"367 300 OFFCURVE",
"332 270 OFFCURVE",
"277 270 CURVE SMOOTH",
"182 270 LINE"
);
}
);
width = 430;
},
{
anchors = (
{
name = bottom;
position = "{243, -10}";
},
{
name = ogonek;
position = "{374, 10}";
},
{
name = top;
position = "{342, 500}";
}
);
hints = (
{
horizontal = 1;
place = "{-10, 70}";
},
{
horizontal = 1;
place = "{205, 70}";
},
{
horizontal = 1;
place = "{445, 65}";
}
);
layerId = "97C2AB1A-35E1-4EAE-9807-DD7336879977";
paths = (
{
closed = 1;
nodes = (
"313 -10 OFFCURVE",
"365 0 OFFCURVE",
"396 10 CURVE",
"405 60 LINE",
"295 60 LINE SMOOTH",
"210 60 OFFCURVE",
"177 100 OFFCURVE",
"196 205 CURVE",
"276 205 LINE",
"401 205 OFFCURVE",
"479 255 OFFCURVE",
"497 355 CURVE",
"514 450 OFFCURVE",
"454 510 OFFCURVE",
"339 510 CURVE SMOOTH",
"199 510 OFFCURVE",
"117 440 OFFCURVE",
"84 250 CURVE SMOOTH",
"50 60 OFFCURVE",
"108 -10 OFFCURVE",
"263 -10 CURVE SMOOTH"
);
},
{
closed = 1;
nodes = (
"233 415 OFFCURVE",
"268 445 OFFCURVE",
"323 445 CURVE SMOOTH",
"363 445 OFFCURVE",
"388 415 OFFCURVE",
"377 355 CURVE",
"368 305 OFFCURVE",
"333 275 OFFCURVE",
"288 275 CURVE",
"208 275 LINE"
);
}
);
width = 465;
}
);
leftKerningGroup = o;
rightKerningGroup = e;
unicode = 0065;
},
{
color = 9;
glyphname = eacute;
layers = (
{
hints = (
{
horizontal = 1;
place = "{-10, 60}";
},
{
horizontal = 1;
place = "{210, 60}";
},
{
horizontal = 1;
place = "{455, 55}";
},
{
horizontal = 1;
place = "{455, 235}";
}
);
layerId = UUID0;
paths = (
{
closed = 1;
nodes = (
"293 -10 OFFCURVE",
"345 0 OFFCURVE",
"376 10 CURVE",
"383 50 LINE",
"283 50 LINE SMOOTH",
"183 50 OFFCURVE",
"150 90 OFFCURVE",
"172 210 CURVE",
"267 210 LINE SMOOTH",
"392 210 OFFCURVE",
"450 260 OFFCURVE",
"466 350 CURVE SMOOTH",
"484 450 OFFCURVE",
"434 510 OFFCURVE",
"319 510 CURVE SMOOTH",
"194 510 OFFCURVE",
"124 450 OFFCURVE",
"89 250 CURVE SMOOTH",
"53 50 OFFCURVE",
"103 -10 OFFCURVE",
"253 -10 CURVE SMOOTH"
);
},
{
closed = 1;
nodes = (
"208 415 OFFCURVE",
"255 455 OFFCURVE",
"310 455 CURVE SMOOTH",
"355 455 OFFCURVE",
"388 415 OFFCURVE",
"376 350 CURVE SMOOTH",
"367 300 OFFCURVE",
"332 270 OFFCURVE",
"277 270 CURVE SMOOTH",
"182 270 LINE"
);
},
{
closed = 1;
nodes = (
"343 560 LINE",
"436 690 LINE",
"341 690 LINE",
"283 560 LINE"
);
}
);
width = 435;
},
{
hints = (
{
horizontal = 1;
place = "{-10, 70}";
},
{
horizontal = 1;
place = "{205, 70}";
},
{
horizontal = 1;
place = "{445, 65}";
},
{
horizontal = 1;
place = "{560, 130}";
}
);
layerId = "97C2AB1A-35E1-4EAE-9807-DD7336879977";
paths = (
{
closed = 1;
nodes = (
"313 -10 OFFCURVE",
"365 0 OFFCURVE",
"396 10 CURVE",
"405 60 LINE",
"295 60 LINE SMOOTH",
"210 60 OFFCURVE",
"177 100 OFFCURVE",
"196 205 CURVE",
"276 205 LINE SMOOTH",
"401 205 OFFCURVE",
"479 255 OFFCURVE",
"497 355 CURVE SMOOTH",
"514 450 OFFCURVE",
"454 510 OFFCURVE",
"339 510 CURVE SMOOTH",
"199 510 OFFCURVE",
"117 440 OFFCURVE",
"84 250 CURVE SMOOTH",
"50 60 OFFCURVE",
"108 -10 OFFCURVE",
"263 -10 CURVE SMOOTH"
);
},
{
closed = 1;
nodes = (
"233 415 OFFCURVE",
"268 445 OFFCURVE",
"323 445 CURVE SMOOTH",
"363 445 OFFCURVE",
"388 415 OFFCURVE",
"377 355 CURVE SMOOTH",
"368 305 OFFCURVE",
"333 275 OFFCURVE",
"288 275 CURVE SMOOTH",
"208 275 LINE"
);
},
{
closed = 1;
nodes = (
"358 560 LINE",
"456 690 LINE",
"341 690 LINE",
"283 560 LINE"
);
}
);
width = 465;
}
);
leftKerningGroup = o;
rightKerningGroup = e;
unicode = 00E9;
},
{
color = 9;
glyphname = ecircumflex;
layers = (
{
hints = (
{
horizontal = 1;
place = "{-10, 60}";
},
{
horizontal = 1;
place = "{210, 60}";
},
{
horizontal = 1;
place = "{455, 55}";
},
{
horizontal = 1;
place = "{550, 130}";
}
);
layerId = UUID0;
paths = (
{
closed = 1;
nodes = (
"293 -10 OFFCURVE",
"345 0 OFFCURVE",
"376 10 CURVE",
"383 50 LINE",
"283 50 LINE SMOOTH",
"183 50 OFFCURVE",
"150 90 OFFCURVE",
"172 210 CURVE",
"267 210 LINE SMOOTH",
"392 210 OFFCURVE",
"450 260 OFFCURVE",
"466 350 CURVE SMOOTH",
"484 450 OFFCURVE",
"434 510 OFFCURVE",
"319 510 CURVE SMOOTH",
"194 510 OFFCURVE",
"124 450 OFFCURVE",
"89 250 CURVE SMOOTH",
"53 50 OFFCURVE",
"103 -10 OFFCURVE",
"253 -10 CURVE SMOOTH"
);
},
{
closed = 1;
nodes = (
"208 415 OFFCURVE",
"255 455 OFFCURVE",
"310 455 CURVE SMOOTH",
"355 455 OFFCURVE",
"388 415 OFFCURVE",
"376 350 CURVE SMOOTH",
"367 300 OFFCURVE",
"332 270 OFFCURVE",
"277 270 CURVE SMOOTH",
"182 270 LINE"
);
},
{
closed = 1;
nodes = (
"256 550 LINE",
"332 624 LINE",
"381 550 LINE",
"441 550 LINE",
"389 680 LINE",
"294 680 LINE",
"196 550 LINE"
);
}
);
width = 435;
},
{
hints = (
{
horizontal = 1;
place = "{-10, 70}";
},
{
horizontal = 1;
place = "{205, 70}";
},
{
horizontal = 1;
place = "{445, 65}";
},
{
horizontal = 1;
place = "{550, 130}";
}
);
layerId = "97C2AB1A-35E1-4EAE-9807-DD7336879977";
paths = (
{
closed = 1;
nodes = (
"313 -10 OFFCURVE",
"365 0 OFFCURVE",
"396 10 CURVE",
"405 60 LINE",
"295 60 LINE SMOOTH",
"210 60 OFFCURVE",
"177 100 OFFCURVE",
"196 205 CURVE",
"276 205 LINE SMOOTH",
"401 205 OFFCURVE",
"479 255 OFFCURVE",
"497 355 CURVE SMOOTH",
"514 450 OFFCURVE",
"454 510 OFFCURVE",
"339 510 CURVE SMOOTH",
"199 510 OFFCURVE",
"117 440 OFFCURVE",
"84 250 CURVE SMOOTH",
"50 60 OFFCURVE",
"108 -10 OFFCURVE",
"263 -10 CURVE SMOOTH"
);
},
{
closed = 1;
nodes = (
"233 415 OFFCURVE",
"268 445 OFFCURVE",
"323 445 CURVE SMOOTH",
"363 445 OFFCURVE",
"388 415 OFFCURVE",
"377 355 CURVE SMOOTH",
"368 305 OFFCURVE",
"333 275 OFFCURVE",
"288 275 CURVE SMOOTH",
"208 275 LINE"
);
},
{
closed = 1;
nodes = (
"272 550 LINE",
"341 620 LINE",
"384 550 LINE",
"461 550 LINE",
"404 680 LINE",
"299 680 LINE",
"196 550 LINE"
);
}
);
width = 465;
}
);
leftKerningGroup = o;
rightKerningGroup = e;
unicode = 00EA;
},
{
glyphname = edieresis;
layers = (
{
hints = (
{
horizontal = 1;
place = "{-10, 60}";
},
{
horizontal = 1;
place = "{210, 60}";
},
{
horizontal = 1;
place = "{455, 55}";
},
{
horizontal = 1;
place = "{570, 110}";
}
);
layerId = UUID0;
paths = (
{
closed = 1;
nodes = (
"293 -10 OFFCURVE",
"345 0 OFFCURVE",
"376 10 CURVE",
"383 50 LINE",
"283 50 LINE SMOOTH",
"183 50 OFFCURVE",
"150 90 OFFCURVE",
"172 210 CURVE",
"267 210 LINE SMOOTH",
"392 210 OFFCURVE",
"450 260 OFFCURVE",
"466 350 CURVE SMOOTH",
"484 450 OFFCURVE",
"434 510 OFFCURVE",
"319 510 CURVE SMOOTH",
"194 510 OFFCURVE",
"124 450 OFFCURVE",
"89 250 CURVE SMOOTH",
"53 50 OFFCURVE",
"103 -10 OFFCURVE",
"253 -10 CURVE SMOOTH"
);
},
{
closed = 1;
nodes = (
"208 415 OFFCURVE",
"255 455 OFFCURVE",
"310 455 CURVE SMOOTH",
"355 455 OFFCURVE",
"388 415 OFFCURVE",
"376 350 CURVE SMOOTH",
"367 300 OFFCURVE",
"332 270 OFFCURVE",
"277 270 CURVE SMOOTH",
"182 270 LINE"
);
},
{
closed = 1;
nodes = (
"285 570 LINE",
"304 680 LINE",
"214 680 LINE",
"195 570 LINE"
);
},
{
closed = 1;
nodes = (
"445 570 LINE",
"464 680 LINE",
"374 680 LINE",
"355 570 LINE"
);
}
);
width = 435;
},
{
hints = (
{
horizontal = 1;
place = "{-10, 70}";
},
{
horizontal = 1;
place = "{205, 70}";
},
{
horizontal = 1;
place = "{445, 65}";
},
{
horizontal = 1;
place = "{560, 120}";
}
);
layerId = "97C2AB1A-35E1-4EAE-9807-DD7336879977";
paths = (
{
closed = 1;
nodes = (
"313 -10 OFFCURVE",
"365 0 OFFCURVE",
"396 10 CURVE",
"405 60 LINE",
"295 60 LINE SMOOTH",
"210 60 OFFCURVE",
"177 100 OFFCURVE",
"196 205 CURVE",
"276 205 LINE SMOOTH",
"401 205 OFFCURVE",
"479 255 OFFCURVE",
"497 355 CURVE SMOOTH",
"514 450 OFFCURVE",
"454 510 OFFCURVE",
"339 510 CURVE SMOOTH",
"199 510 OFFCURVE",
"117 440 OFFCURVE",
"84 250 CURVE SMOOTH",
"50 60 OFFCURVE",
"108 -10 OFFCURVE",
"263 -10 CURVE SMOOTH"
);
},
{
closed = 1;
nodes = (
"233 415 OFFCURVE",
"268 445 OFFCURVE",
"323 445 CURVE SMOOTH",
"363 445 OFFCURVE",
"388 415 OFFCURVE",
"377 355 CURVE SMOOTH",
"368 305 OFFCURVE",
"333 275 OFFCURVE",
"288 275 CURVE SMOOTH",
"208 275 LINE"
);
},
{
closed = 1;
nodes = (
"303 560 LINE",
"324 680 LINE",
"214 680 LINE",
"193 560 LINE"
);
},
{
closed = 1;
nodes = (
"463 560 LINE",
"484 680 LINE",
"374 680 LINE",
"353 560 LINE"
);
}
);
width = 465;
}
);
leftKerningGroup = o;
rightKerningGroup = e;
unicode = 00EB;
},
{
glyphname = edotaccent;
layers = (
{
hints = (
{
horizontal = 1;
place = "{-10, 60}";
},
{
horizontal = 1;
place = "{210, 60}";
},
{
horizontal = 1;
place = "{455, 55}";
},
{
horizontal = 1;
place = "{570, 110}";
}
);
layerId = UUID0;
paths = (
{
closed = 1;
nodes = (
"293 -10 OFFCURVE",
"345 0 OFFCURVE",
"376 10 CURVE",
"383 50 LINE",
"283 50 LINE SMOOTH",
"183 50 OFFCURVE",
"150 90 OFFCURVE",
"172 210 CURVE",
"267 210 LINE SMOOTH",
"392 210 OFFCURVE",
"450 260 OFFCURVE",
"466 350 CURVE SMOOTH",
"484 450 OFFCURVE",
"434 510 OFFCURVE",
"319 510 CURVE SMOOTH",
"194 510 OFFCURVE",
"124 450 OFFCURVE",
"89 250 CURVE SMOOTH",
"53 50 OFFCURVE",
"103 -10 OFFCURVE",
"253 -10 CURVE SMOOTH"
);
},
{
closed = 1;
nodes = (
"208 415 OFFCURVE",
"255 455 OFFCURVE",
"310 455 CURVE SMOOTH",
"355 455 OFFCURVE",
"388 415 OFFCURVE",
"376 350 CURVE SMOOTH",
"367 300 OFFCURVE",
"332 270 OFFCURVE",
"277 270 CURVE SMOOTH",
"182 270 LINE"
);
},
{
closed = 1;
nodes = (
"365 570 LINE",
"384 680 LINE",
"294 680 LINE",
"275 570 LINE"
);
}
);
width = 435;
},
{
hints = (
{
horizontal = 1;
place = "{-10, 70}";
},
{
horizontal = 1;
place = "{205, 70}";
},
{
horizontal = 1;
place = "{445, 65}";
},
{
horizontal = 1;
place = "{560, 120}";
}
);
layerId = "97C2AB1A-35E1-4EAE-9807-DD7336879977";
paths = (
{
closed = 1;
nodes = (
"313 -10 OFFCURVE",
"365 0 OFFCURVE",
"396 10 CURVE",
"405 60 LINE",
"295 60 LINE SMOOTH",
"210 60 OFFCURVE",
"177 100 OFFCURVE",
"196 205 CURVE",
"276 205 LINE SMOOTH",
"401 205 OFFCURVE",
"479 255 OFFCURVE",
"497 355 CURVE SMOOTH",
"514 450 OFFCURVE",
"454 510 OFFCURVE",
"339 510 CURVE SMOOTH",
"199 510 OFFCURVE",
"117 440 OFFCURVE",
"84 250 CURVE SMOOTH",
"50 60 OFFCURVE",
"108 -10 OFFCURVE",
"263 -10 CURVE SMOOTH"
);
},
{
closed = 1;
nodes = (
"233 415 OFFCURVE",
"268 445 OFFCURVE",
"323 445 CURVE SMOOTH",
"363 445 OFFCURVE",
"388 415 OFFCURVE",
"377 355 CURVE SMOOTH",
"368 305 OFFCURVE",
"333 275 OFFCURVE",
"288 275 CURVE SMOOTH",
"208 275 LINE"
);
},
{
closed = 1;
nodes = (
"383 560 LINE",
"404 680 LINE",
"294 680 LINE",
"273 560 LINE"
);
}
);
width = 465;
}
);
leftKerningGroup = o;
rightKerningGroup = e;
unicode = 0117;
},
{
color = 9;
glyphname = egrave;
layers = (
{
hints = (
{
horizontal = 1;
place = "{-10, 60}";
},
{
horizontal = 1;
place = "{210, 60}";
},
{
horizontal = 1;
place = "{455, 55}";
},
{
horizontal = 1;
place = "{560, 130}";
}
);
layerId = UUID0;
paths = (
{
closed = 1;
nodes = (
"293 -10 OFFCURVE",
"345 0 OFFCURVE",
"376 10 CURVE",
"383 50 LINE",
"283 50 LINE SMOOTH",
"183 50 OFFCURVE",
"150 90 OFFCURVE",
"172 210 CURVE",
"267 210 LINE SMOOTH",
"392 210 OFFCURVE",
"450 260 OFFCURVE",
"466 350 CURVE SMOOTH",
"484 450 OFFCURVE",
"434 510 OFFCURVE",
"319 510 CURVE SMOOTH",
"194 510 OFFCURVE",
"124 450 OFFCURVE",
"89 250 CURVE SMOOTH",
"53 50 OFFCURVE",
"103 -10 OFFCURVE",
"253 -10 CURVE SMOOTH"
);
},
{
closed = 1;
nodes = (
"208 415 OFFCURVE",
"255 455 OFFCURVE",
"310 455 CURVE SMOOTH",
"355 455 OFFCURVE",
"388 415 OFFCURVE",
"376 350 CURVE SMOOTH",
"367 300 OFFCURVE",
"332 270 OFFCURVE",
"277 270 CURVE SMOOTH",
"182 270 LINE"
);
},
{
closed = 1;
nodes = (
"353 560 LINE",
"341 690 LINE",
"246 690 LINE",
"293 560 LINE"
);
}
);
width = 435;
},
{
hints = (
{
horizontal = 1;
place = "{-10, 70}";
},
{
horizontal = 1;
place = "{205, 70}";
},
{
horizontal = 1;
place = "{445, 65}";
},
{
horizontal = 1;
place = "{560, 130}";
}
);
layerId = "97C2AB1A-35E1-4EAE-9807-DD7336879977";
paths = (
{
closed = 1;
nodes = (
"313 -10 OFFCURVE",
"365 0 OFFCURVE",
"396 10 CURVE",
"405 60 LINE",
"295 60 LINE SMOOTH",
"210 60 OFFCURVE",
"177 100 OFFCURVE",
"196 205 CURVE",
"276 205 LINE SMOOTH",
"401 205 OFFCURVE",
"479 255 OFFCURVE",
"497 355 CURVE SMOOTH",
"514 450 OFFCURVE",
"454 510 OFFCURVE",
"339 510 CURVE SMOOTH",
"199 510 OFFCURVE",
"117 440 OFFCURVE",
"84 250 CURVE SMOOTH",
"50 60 OFFCURVE",
"108 -10 OFFCURVE",
"263 -10 CURVE SMOOTH"
);
},
{
closed = 1;
nodes = (
"233 415 OFFCURVE",
"268 445 OFFCURVE",
"323 445 CURVE SMOOTH",
"363 445 OFFCURVE",
"388 415 OFFCURVE",
"377 355 CURVE SMOOTH",
"368 305 OFFCURVE",
"333 275 OFFCURVE",
"288 275 CURVE SMOOTH",
"208 275 LINE"
);
},
{
closed = 1;
nodes = (
"368 560 LINE",
"356 690 LINE",
"241 690 LINE",
"293 560 LINE"
);
}
);
width = 465;
}
);
leftKerningGroup = o;
rightKerningGroup = e;
unicode = 00E8;
},
{
glyphname = emacron;
layers = (
{
hints = (
{
horizontal = 1;
place = "{-10, 60}";
},
{
horizontal = 1;
place = "{210, 60}";
},
{
horizontal = 1;
place = "{455, 55}";
},
{
horizontal = 1;
place = "{580, 60}";
}
);
layerId = UUID0;
paths = (
{
closed = 1;
nodes = (
"293 -10 OFFCURVE",
"345 0 OFFCURVE",
"376 10 CURVE",
"383 50 LINE",
"283 50 LINE SMOOTH",
"183 50 OFFCURVE",
"150 90 OFFCURVE",
"172 210 CURVE",
"267 210 LINE SMOOTH",
"392 210 OFFCURVE",
"450 260 OFFCURVE",
"466 350 CURVE SMOOTH",
"484 450 OFFCURVE",
"434 510 OFFCURVE",
"319 510 CURVE SMOOTH",
"194 510 OFFCURVE",
"124 450 OFFCURVE",
"89 250 CURVE SMOOTH",
"53 50 OFFCURVE",
"103 -10 OFFCURVE",
"253 -10 CURVE SMOOTH"
);
},
{
closed = 1;
nodes = (
"208 415 OFFCURVE",
"255 455 OFFCURVE",
"310 455 CURVE SMOOTH",
"355 455 OFFCURVE",
"388 415 OFFCURVE",
"376 350 CURVE SMOOTH",
"367 300 OFFCURVE",
"332 270 OFFCURVE",
"277 270 CURVE SMOOTH",
"182 270 LINE"
);
},
{
closed = 1;
nodes = (
"442 580 LINE",
"452 640 LINE",
"222 640 LINE",
"212 580 LINE"
);
}
);
width = 435;
},
{
hints = (
{
horizontal = 1;
place = "{-10, 70}";
},
{
horizontal = 1;
place = "{205, 70}";
},
{
horizontal = 1;
place = "{445, 65}";
},
{
horizontal = 1;
place = "{570, 70}";
}
);
layerId = "97C2AB1A-35E1-4EAE-9807-DD7336879977";
paths = (
{
closed = 1;
nodes = (
"313 -10 OFFCURVE",
"365 0 OFFCURVE",
"396 10 CURVE",
"405 60 LINE",
"295 60 LINE SMOOTH",
"210 60 OFFCURVE",
"177 100 OFFCURVE",
"196 205 CURVE",
"276 205 LINE SMOOTH",
"401 205 OFFCURVE",
"479 255 OFFCURVE",
"497 355 CURVE SMOOTH",
"514 450 OFFCURVE",
"454 510 OFFCURVE",
"339 510 CURVE SMOOTH",
"199 510 OFFCURVE",
"117 440 OFFCURVE",
"84 250 CURVE SMOOTH",
"50 60 OFFCURVE",
"108 -10 OFFCURVE",
"263 -10 CURVE SMOOTH"
);
},
{
closed = 1;
nodes = (
"233 415 OFFCURVE",
"268 445 OFFCURVE",
"323 445 CURVE SMOOTH",
"363 445 OFFCURVE",
"388 415 OFFCURVE",
"377 355 CURVE SMOOTH",
"368 305 OFFCURVE",
"333 275 OFFCURVE",
"288 275 CURVE SMOOTH",
"208 275 LINE"
);
},
{
closed = 1;
nodes = (
"455 570 LINE",
"467 640 LINE",
"227 640 LINE",
"215 570 LINE"
);
}
);
width = 465;
}
);
leftKerningGroup = o;
rightKerningGroup = e;
unicode = 0113;
},
{
glyphname = eogonek;
layers = (
{
hints = (
{
horizontal = 1;
place = "{-160, 56}";
},
{
horizontal = 1;
place = "{210, 60}";
},
{
horizontal = 1;
place = "{455, 55}";
},
{
horizontal = 1;
place = "{-160, 210}";
},
{
horizontal = 1;
place = "{-10, 21}";
target = up;
type = BottomGhost;
}
);
layerId = UUID0;
paths = (
{
closed = 1;
nodes = (
"291 -160 OFFCURVE",
"324 -145 OFFCURVE",
"324 -145 CURVE",
"331 -104 LINE",
"296 -104 LINE SMOOTH",
"251 -104 OFFCURVE",
"239 -90 OFFCURVE",
"247 -45 CURVE SMOOTH",
"253 -10 LINE",
"293 -10 OFFCURVE",
"345 0 OFFCURVE",
"376 10 CURVE",
"383 50 LINE",
"283 50 LINE SMOOTH",
"183 50 OFFCURVE",
"150 90 OFFCURVE",
"172 210 CURVE",
"267 210 LINE SMOOTH",
"392 210 OFFCURVE",
"450 260 OFFCURVE",
"466 350 CURVE SMOOTH",
"484 450 OFFCURVE",
"434 510 OFFCURVE",
"319 510 CURVE SMOOTH",
"194 510 OFFCURVE",
"124 450 OFFCURVE",
"89 250 CURVE SMOOTH",
"57 71 OFFCURVE",
"92 5 OFFCURVE",
"207 -7 CURVE",
"198 -20 OFFCURVE",
"181 -47 OFFCURVE",
"175 -80 CURVE SMOOTH",
"167 -130 OFFCURVE",
"191 -160 OFFCURVE",
"246 -160 CURVE SMOOTH"
);
},
{
closed = 1;
nodes = (
"208 415 OFFCURVE",
"255 455 OFFCURVE",
"310 455 CURVE SMOOTH",
"355 455 OFFCURVE",
"388 415 OFFCURVE",
"376 350 CURVE SMOOTH",
"367 300 OFFCURVE",
"332 270 OFFCURVE",
"277 270 CURVE SMOOTH",
"182 270 LINE"
);
}
);
width = 435;
},
{
hints = (
{
horizontal = 1;
place = "{-160, 60}";
},
{
horizontal = 1;
place = "{-10, 70}";
},
{
horizontal = 1;
place = "{205, 70}";
},
{
horizontal = 1;
place = "{445, 65}";
}
);
layerId = "97C2AB1A-35E1-4EAE-9807-DD7336879977";
paths = (
{
closed = 1;
nodes = (
"300 -160 OFFCURVE",
"334 -145 OFFCURVE",
"334 -145 CURVE",
"342 -100 LINE",
"306 -100 LINE SMOOTH",
"271 -100 OFFCURVE",
"255 -80 OFFCURVE",
"262 -45 CURVE SMOOTH",
"268 -10 LINE",
"316 -9 OFFCURVE",
"366 0 OFFCURVE",
"396 10 CURVE",
"405 60 LINE",
"295 60 LINE SMOOTH",
"210 60 OFFCURVE",
"177 100 OFFCURVE",
"196 205 CURVE",
"276 205 LINE SMOOTH",
"401 205 OFFCURVE",
"479 255 OFFCURVE",
"497 355 CURVE SMOOTH",
"514 450 OFFCURVE",
"454 510 OFFCURVE",
"339 510 CURVE SMOOTH",
"199 510 OFFCURVE",
"117 440 OFFCURVE",
"84 250 CURVE SMOOTH",
"54 82 OFFCURVE",
"95 8 OFFCURVE",
"212 -7 CURVE",
"203 -18 OFFCURVE",
"186 -44 OFFCURVE",
"179 -80 CURVE SMOOTH",
"171 -125 OFFCURVE",
"200 -160 OFFCURVE",
"255 -160 CURVE SMOOTH"
);
},
{
closed = 1;
nodes = (
"233 415 OFFCURVE",
"268 445 OFFCURVE",
"323 445 CURVE SMOOTH",
"363 445 OFFCURVE",
"388 415 OFFCURVE",
"377 355 CURVE SMOOTH",
"368 305 OFFCURVE",
"333 275 OFFCURVE",
"288 275 CURVE SMOOTH",
"208 275 LINE"
);
}
);
width = 465;
}
);
leftKerningGroup = o;
rightKerningGroup = e;
unicode = 0119;
},
{
glyphname = f;
layers = (
{
hints = (
{
horizontal = 1;
place = "{-210, 60}";
},
{
horizontal = 1;
place = "{425, 65}";
},
{
horizontal = 1;
place = "{640, 60}";
}
);
layerId = UUID0;
paths = (
{
closed = 1;
nodes = (
"72 -210 OFFCURVE",
"138 -180 OFFCURVE",
"162 -40 CURVE SMOOTH",
"244 425 LINE",
"264 425 LINE SMOOTH",
"304 425 OFFCURVE",
"356 435 OFFCURVE",
"388 445 CURVE",
"396 490 LINE",
"256 490 LINE",
"263 530 LINE SMOOTH",
"279 620 OFFCURVE",
"322 640 OFFCURVE",
"352 640 CURVE SMOOTH",
"442 640 LINE",
"449 680 LINE",
"426 690 OFFCURVE",
"373 700 OFFCURVE",
"343 700 CURVE SMOOTH",
"263 700 OFFCURVE",
"198 670 OFFCURVE",
"173 530 CURVE SMOOTH",
"166 490 LINE",
"106 490 LINE",
"94 425 LINE",
"154 425 LINE",
"72 -40 LINE SMOOTH",
"57 -130 OFFCURVE",
"13 -150 OFFCURVE",
"-16 -150 CURVE SMOOTH",
"-106 -150 LINE",
"-113 -190 LINE",
"-90 -200 OFFCURVE",
"-37 -210 OFFCURVE",
"-7 -210 CURVE SMOOTH"
);
}
);
width = 320;
},
{
hints = (
{
horizontal = 1;
place = "{-210, 70}";
},
{
horizontal = 1;
place = "{415, 75}";
},
{
horizontal = 1;
place = "{630, 70}";
}
);
layerId = "97C2AB1A-35E1-4EAE-9807-DD7336879977";
paths = (
{
closed = 1;
nodes = (
"87 -210 OFFCURVE",
"163 -180 OFFCURVE",
"187 -40 CURVE",
"268 415 LINE",
"273 415 LINE SMOOTH",
"323 415 OFFCURVE",
"374 425 OFFCURVE",
"406 435 CURVE",
"416 490 LINE",
"281 490 LINE",
"288 530 LINE SMOOTH",
"302 610 OFFCURVE",
"341 630 OFFCURVE",
"381 630 CURVE SMOOTH",
"461 630 LINE",
"469 680 LINE",
"446 690 OFFCURVE",
"393 700 OFFCURVE",
"353 700 CURVE SMOOTH",
"268 700 OFFCURVE",
"193 670 OFFCURVE",
"168 530 CURVE SMOOTH",
"161 490 LINE",
"106 490 LINE",
"93 415 LINE",
"148 415 LINE",
"67 -40 LINE SMOOTH",
"53 -120 OFFCURVE",
"15 -140 OFFCURVE",
"-24 -140 CURVE SMOOTH",
"-94 -140 LINE",
"-103 -190 LINE",
"-80 -200 OFFCURVE",
"-37 -210 OFFCURVE",
"2 -210 CURVE SMOOTH"
);
}
);
width = 340;
}
);
leftKerningGroup = f;
rightKerningGroup = f;
unicode = 0066;
},
{
glyphname = g;
layers = (
{
hints = (
{
horizontal = 1;
place = "{-210, 60}";
},
{
horizontal = 1;
place = "{-10, 60}";
},
{
horizontal = 1;
place = "{450, 60}";
}
);
layerId = UUID0;
paths = (
{
closed = 1;
nodes = (
"302 -210 OFFCURVE",
"373 -150 OFFCURVE",
"407 40 CURVE SMOOTH",
"484 480 LINE",
"438 500 OFFCURVE",
"389 510 OFFCURVE",
"329 510 CURVE SMOOTH",
"194 510 OFFCURVE",
"124 450 OFFCURVE",
"89 250 CURVE SMOOTH",
"53 50 OFFCURVE",
"103 -10 OFFCURVE",
"208 -10 CURVE SMOOTH",
"248 -10 OFFCURVE",
"280 0 OFFCURVE",
"312 15 CURVE",
"290 -110 OFFCURVE",
"243 -150 OFFCURVE",
"153 -150 CURVE SMOOTH",
"53 -150 LINE",
"46 -190 LINE",
"74 -200 OFFCURVE",
"122 -210 OFFCURVE",
"162 -210 CURVE SMOOTH"
);
},
{
closed = 1;
nodes = (
"183 50 OFFCURVE",
"150 90 OFFCURVE",
"179 250 CURVE SMOOTH",
"207 410 OFFCURVE",
"254 450 OFFCURVE",
"319 450 CURVE SMOOTH",
"389 450 LINE",
"322 70 LINE",
"305 60 OFFCURVE",
"273 50 OFFCURVE",
"248 50 CURVE SMOOTH"
);
}
);
width = 465;
},
{
hints = (
{
horizontal = 1;
place = "{-210, 70}";
},
{
horizontal = 1;
place = "{-10, 70}";
},
{
horizontal = 1;
place = "{440, 70}";
}
);
layerId = "97C2AB1A-35E1-4EAE-9807-DD7336879977";
paths = (
{
closed = 1;
nodes = (
"317 -210 OFFCURVE",
"400 -140 OFFCURVE",
"432 40 CURVE SMOOTH",
"509 480 LINE",
"463 500 OFFCURVE",
"419 510 OFFCURVE",
"349 510 CURVE SMOOTH",
"199 510 OFFCURVE",
"117 440 OFFCURVE",
"84 250 CURVE SMOOTH",
"50 60 OFFCURVE",
"108 -10 OFFCURVE",
"218 -10 CURVE SMOOTH",
"253 -10 OFFCURVE",
"285 0 OFFCURVE",
"307 15 CURVE",
"287 -100 OFFCURVE",
"240 -140 OFFCURVE",
"165 -140 CURVE SMOOTH",
"55 -140 LINE",
"46 -190 LINE",
"74 -200 OFFCURVE",
"122 -210 OFFCURVE",
"172 -210 CURVE SMOOTH"
);
},
{
closed = 1;
nodes = (
"210 60 OFFCURVE",
"177 100 OFFCURVE",
"204 250 CURVE SMOOTH",
"230 400 OFFCURVE",
"277 440 OFFCURVE",
"337 440 CURVE SMOOTH",
"382 440 LINE",
"319 80 LINE",
"307 70 OFFCURVE",
"285 60 OFFCURVE",
"260 60 CURVE SMOOTH"
);
}
);
width = 490;
}
);
leftKerningGroup = g;
rightKerningGroup = g;
unicode = 0067;
},
{
glyphname = gbreve;
layers = (
{
hints = (
{
horizontal = 1;
place = "{-210, 60}";
},
{
horizontal = 1;
place = "{-10, 60}";
},
{
horizontal = 1;
place = "{450, 60}";
},
{
horizontal = 1;
place = "{570, 70}";
},
{
horizontal = 1;
place = "{680, -20}";
target = down;
type = TopGhost;
}
);
layerId = UUID0;
paths = (
{
closed = 1;
nodes = (
"302 -210 OFFCURVE",
"373 -150 OFFCURVE",
"407 40 CURVE SMOOTH",
"484 480 LINE",
"438 500 OFFCURVE",
"389 510 OFFCURVE",
"329 510 CURVE SMOOTH",
"194 510 OFFCURVE",
"124 450 OFFCURVE",
"89 250 CURVE SMOOTH",
"53 50 OFFCURVE",
"103 -10 OFFCURVE",
"208 -10 CURVE SMOOTH",
"248 -10 OFFCURVE",
"280 0 OFFCURVE",
"312 15 CURVE",
"290 -110 OFFCURVE",
"243 -150 OFFCURVE",
"153 -150 CURVE SMOOTH",
"53 -150 LINE",
"46 -190 LINE",
"74 -200 OFFCURVE",
"122 -210 OFFCURVE",
"162 -210 CURVE SMOOTH"
);
},
{
closed = 1;
nodes = (
"183 50 OFFCURVE",
"150 90 OFFCURVE",
"179 250 CURVE SMOOTH",
"207 410 OFFCURVE",
"254 450 OFFCURVE",
"319 450 CURVE SMOOTH",
"389 450 LINE",
"322 70 LINE",
"305 60 OFFCURVE",
"273 50 OFFCURVE",
"248 50 CURVE SMOOTH"
);
},
{
closed = 1;
nodes = (
"395 570 OFFCURVE",
"445 600 OFFCURVE",
"477 640 CURVE",
"444 680 LINE",
"421 660 OFFCURVE",
"382 640 OFFCURVE",
"342 640 CURVE SMOOTH",
"302 640 OFFCURVE",
"271 660 OFFCURVE",
"254 680 CURVE",
"207 640 LINE",
"225 600 OFFCURVE",
"265 570 OFFCURVE",
"330 570 CURVE SMOOTH"
);
}
);
width = 465;
},
{
hints = (
{
horizontal = 1;
place = "{-210, 70}";
},
{
horizontal = 1;
place = "{-10, 70}";
},
{
horizontal = 1;
place = "{440, 70}";
},
{
horizontal = 1;
place = "{565, 85}";
},
{
horizontal = 1;
place = "{690, -20}";
target = down;
type = TopGhost;
}
);
layerId = "97C2AB1A-35E1-4EAE-9807-DD7336879977";
paths = (
{
closed = 1;
nodes = (
"317 -210 OFFCURVE",
"400 -140 OFFCURVE",
"432 40 CURVE SMOOTH",
"509 480 LINE",
"463 500 OFFCURVE",
"419 510 OFFCURVE",
"349 510 CURVE SMOOTH",
"199 510 OFFCURVE",
"117 440 OFFCURVE",
"84 250 CURVE SMOOTH",
"50 60 OFFCURVE",
"108 -10 OFFCURVE",
"218 -10 CURVE SMOOTH",
"253 -10 OFFCURVE",
"285 0 OFFCURVE",
"307 15 CURVE",
"287 -100 OFFCURVE",
"240 -140 OFFCURVE",
"165 -140 CURVE SMOOTH",
"55 -140 LINE",
"46 -190 LINE",
"74 -200 OFFCURVE",
"122 -210 OFFCURVE",
"172 -210 CURVE SMOOTH"
);
},
{
closed = 1;
nodes = (
"210 60 OFFCURVE",
"177 100 OFFCURVE",
"204 250 CURVE SMOOTH",
"230 400 OFFCURVE",
"277 440 OFFCURVE",
"337 440 CURVE SMOOTH",
"382 440 LINE",
"319 80 LINE",
"307 70 OFFCURVE",
"285 60 OFFCURVE",
"260 60 CURVE SMOOTH"
);
},
{
closed = 1;
nodes = (
"404 565 OFFCURVE",
"454 595 OFFCURVE",
"492 640 CURVE",
"451 690 LINE",
"428 670 OFFCURVE",
"394 650 OFFCURVE",
"354 650 CURVE SMOOTH",
"314 650 OFFCURVE",
"288 670 OFFCURVE",
"271 690 CURVE",
"212 640 LINE",
"234 595 OFFCURVE",
"274 565 OFFCURVE",
"339 565 CURVE SMOOTH"
);
}
);
width = 490;
}
);
leftKerningGroup = g;
rightKerningGroup = g;
unicode = 011F;
},
{
glyphname = gcommaaccent;
layers = (
{
hints = (
{
horizontal = 1;
place = "{-210, 60}";
},
{
horizontal = 1;
place = "{-10, 60}";
},
{
horizontal = 1;
place = "{450, 60}";
},
{
horizontal = 1;
place = "{570, 150}";
}
);
layerId = UUID0;
paths = (
{
closed = 1;
nodes = (
"302 -210 OFFCURVE",
"373 -150 OFFCURVE",
"407 40 CURVE SMOOTH",
"484 480 LINE",
"438 500 OFFCURVE",
"389 510 OFFCURVE",
"329 510 CURVE SMOOTH",
"194 510 OFFCURVE",
"124 450 OFFCURVE",
"89 250 CURVE SMOOTH",
"53 50 OFFCURVE",
"103 -10 OFFCURVE",
"208 -10 CURVE SMOOTH",
"248 -10 OFFCURVE",
"280 0 OFFCURVE",
"312 15 CURVE",
"290 -110 OFFCURVE",
"243 -150 OFFCURVE",
"153 -150 CURVE SMOOTH",
"53 -150 LINE",
"46 -190 LINE",
"74 -200 OFFCURVE",
"122 -210 OFFCURVE",
"162 -210 CURVE SMOOTH"
);
},
{
closed = 1;
nodes = (
"183 50 OFFCURVE",
"150 90 OFFCURVE",
"179 250 CURVE SMOOTH",
"207 410 OFFCURVE",
"254 450 OFFCURVE",
"319 450 CURVE SMOOTH",
"389 450 LINE",
"322 70 LINE",
"305 60 OFFCURVE",
"273 50 OFFCURVE",
"248 50 CURVE SMOOTH"
);
},
{
closed = 1;
nodes = (
"380 570 LINE",
"406 720 LINE",
"346 720 LINE",
"290 570 LINE"
);
}
);
width = 465;
},
{
hints = (
{
horizontal = 1;
place = "{-210, 70}";
},
{
horizontal = 1;
place = "{-10, 70}";
},
{
horizontal = 1;
place = "{440, 70}";
},
{
horizontal = 1;
place = "{570, 150}";
}
);
layerId = "97C2AB1A-35E1-4EAE-9807-DD7336879977";
paths = (
{
closed = 1;
nodes = (
"317 -210 OFFCURVE",
"400 -140 OFFCURVE",
"432 40 CURVE SMOOTH",
"509 480 LINE",
"463 500 OFFCURVE",
"419 510 OFFCURVE",
"349 510 CURVE SMOOTH",
"199 510 OFFCURVE",
"117 440 OFFCURVE",
"84 250 CURVE SMOOTH",
"50 60 OFFCURVE",
"108 -10 OFFCURVE",
"218 -10 CURVE SMOOTH",
"253 -10 OFFCURVE",
"285 0 OFFCURVE",
"307 15 CURVE",
"287 -100 OFFCURVE",
"240 -140 OFFCURVE",
"165 -140 CURVE SMOOTH",
"55 -140 LINE",
"46 -190 LINE",
"74 -200 OFFCURVE",
"122 -210 OFFCURVE",
"172 -210 CURVE SMOOTH"
);
},
{
closed = 1;
nodes = (
"210 60 OFFCURVE",
"177 100 OFFCURVE",
"204 250 CURVE SMOOTH",
"230 400 OFFCURVE",
"277 440 OFFCURVE",
"337 440 CURVE SMOOTH",
"382 440 LINE",
"319 80 LINE",
"307 70 OFFCURVE",
"285 60 OFFCURVE",
"260 60 CURVE SMOOTH"
);
},
{
closed = 1;
nodes = (
"400 570 LINE",
"426 720 LINE",
"351 720 LINE",
"290 570 LINE"
);
}
);
width = 490;
}
);
leftKerningGroup = g;
rightKerningGroup = g;
unicode = 0123;
},
{
glyphname = h;
layers = (
{
hints = (
{
horizontal = 1;
place = "{450, 60}";
},
{
horizontal = 1;
place = "{450, 250}";
},
{
horizontal = 1;
place = "{0, 21}";
target = up;
type = BottomGhost;
}
);
layerId = UUID0;
paths = (
{
closed = 1;
nodes = (
"160 0 LINE",
"235 430 LINE",
"252 440 OFFCURVE",
"284 450 OFFCURVE",
"309 450 CURVE SMOOTH",
"364 450 OFFCURVE",
"400 430 OFFCURVE",
"388 360 CURVE SMOOTH",
"325 0 LINE",
"415 0 LINE",
"478 360 LINE SMOOTH",
"499 480 OFFCURVE",
"444 510 OFFCURVE",
"359 510 CURVE SMOOTH",
"314 510 OFFCURVE",
"278 500 OFFCURVE",
"245 485 CURVE",
"283 700 LINE",
"193 700 LINE",
"70 0 LINE"
);
}
);
width = 480;
},
{
hints = (
{
horizontal = 1;
place = "{440, 70}";
},
{
horizontal = 1;
place = "{0, 21}";
target = up;
type = BottomGhost;
},
{
horizontal = 1;
place = "{700, -20}";
target = down;
type = TopGhost;
}
);
layerId = "97C2AB1A-35E1-4EAE-9807-DD7336879977";
paths = (
{
closed = 1;
nodes = (
"190 0 LINE",
"264 420 LINE",
"275 430 OFFCURVE",
"297 440 OFFCURVE",
"322 440 CURVE SMOOTH",
"362 440 OFFCURVE",
"399 420 OFFCURVE",
"386 350 CURVE SMOOTH",
"325 0 LINE",
"445 0 LINE",
"506 350 LINE SMOOTH",
"529 480 OFFCURVE",
"464 510 OFFCURVE",
"379 510 CURVE SMOOTH",
"339 510 OFFCURVE",
"303 500 OFFCURVE",
"274 480 CURVE",
"313 700 LINE",
"193 700 LINE",
"70 0 LINE"
);
}
);
width = 510;
}
);
leftKerningGroup = h;
rightKerningGroup = n;
unicode = 0068;
},
{
glyphname = hbar;
layers = (
{
hints = (
{
horizontal = 1;
place = "{420, 60}";
},
{
horizontal = 1;
place = "{545, 65}";
},
{
horizontal = 1;
place = "{545, 155}";
},
{
horizontal = 1;
place = "{0, 21}";
target = up;
type = BottomGhost;
}
);
layerId = UUID0;
paths = (
{
closed = 1;
nodes = (
"170 0 LINE",
"240 400 LINE",
"257 410 OFFCURVE",
"289 420 OFFCURVE",
"314 420 CURVE SMOOTH",
"369 420 OFFCURVE",
"405 400 OFFCURVE",
"393 330 CURVE SMOOTH",
"335 0 LINE",
"425 0 LINE",
"483 330 LINE SMOOTH",
"504 450 OFFCURVE",
"449 480 OFFCURVE",
"364 480 CURVE SMOOTH",
"319 480 OFFCURVE",
"282 470 OFFCURVE",
"250 455 CURVE",
"266 545 LINE",
"286 545 LINE",
"326 545 OFFCURVE",
"377 555 OFFCURVE",
"409 565 CURVE",
"417 610 LINE",
"277 610 LINE",
"293 700 LINE",
"203 700 LINE",
"187 610 LINE",
"127 610 LINE",
"116 545 LINE",
"176 545 LINE",
"80 0 LINE"
);
}
);
width = 490;
},
{
hints = (
{
horizontal = 1;
place = "{410, 70}";
},
{
horizontal = 1;
place = "{536, 74}";
},
{
horizontal = 1;
place = "{536, 164}";
},
{
horizontal = 1;
place = "{0, 21}";
target = up;
type = BottomGhost;
}
);
layerId = "97C2AB1A-35E1-4EAE-9807-DD7336879977";
paths = (
{
closed = 1;
nodes = (
"195 0 LINE",
"263 390 LINE",
"275 400 OFFCURVE",
"297 410 OFFCURVE",
"322 410 CURVE SMOOTH",
"362 410 OFFCURVE",
"398 390 OFFCURVE",
"386 320 CURVE SMOOTH",
"330 0 LINE",
"450 0 LINE",
"506 320 LINE SMOOTH",
"529 450 OFFCURVE",
"464 480 OFFCURVE",
"379 480 CURVE SMOOTH",
"339 480 OFFCURVE",
"302 470 OFFCURVE",
"274 450 CURVE",
"289 536 LINE",
"309 536 LINE SMOOTH",
"344 536 OFFCURVE",
"396 546 OFFCURVE",
"428 556 CURVE",
"437 610 LINE",
"302 610 LINE",
"318 700 LINE",
"198 700 LINE",
"182 610 LINE",
"127 610 LINE",
"114 536 LINE",
"169 536 LINE",
"75 0 LINE"
);
}
);
width = 515;
}
);
leftKerningGroup = hbar;
rightKerningGroup = hbar;
unicode = 0127;
},
{
glyphname = i;
layers = (
{
anchors = (
{
name = bottom;
position = "{115, 0}";
}
);
hints = (
{
horizontal = 1;
place = "{570, 110}";
},
{
horizontal = 1;
place = "{500, -20}";
target = down;
type = TopGhost;
},
{
horizontal = 1;
place = "{0, 21}";
target = up;
type = BottomGhost;
}
);
layerId = UUID0;
paths = (
{
closed = 1;
nodes = (
"160 0 LINE",
"248 500 LINE",
"158 500 LINE",
"70 0 LINE"
);
},
{
closed = 1;
nodes = (
"260 570 LINE",
"279 680 LINE",
"189 680 LINE",
"170 570 LINE"
);
}
);
width = 230;
},
{
anchors = (
{
name = bottom;
position = "{128, 0}";
}
);
hints = (
{
horizontal = 1;
place = "{560, 120}";
},
{
horizontal = 1;
place = "{500, -20}";
target = down;
type = TopGhost;
},
{
horizontal = 1;
place = "{0, 21}";
target = up;
type = BottomGhost;
}
);
layerId = "97C2AB1A-35E1-4EAE-9807-DD7336879977";
paths = (
{
closed = 1;
nodes = (
"190 0 LINE",
"278 500 LINE",
"158 500 LINE",
"70 0 LINE"
);
},
{
closed = 1;
nodes = (
"288 560 LINE",
"309 680 LINE",
"189 680 LINE",
"168 560 LINE"
);
}
);
width = 260;
}
);
leftKerningGroup = idotless;
rightKerningGroup = idotless;
unicode = 0069;
},
{
glyphname = idotless;
layers = (
{
anchors = (
{
name = bottom;
position = "{113, 0}";
},
{
name = ogonek;
position = "{163, 10}";
},
{
name = top;
position = "{200, 500}";
}
);
hints = (
{
horizontal = 1;
place = "{500, -20}";
target = down;
type = TopGhost;
},
{
horizontal = 1;
place = "{0, 21}";
target = up;
type = BottomGhost;
}
);
layerId = UUID0;
paths = (
{
closed = 1;
nodes = (
"160 0 LINE",
"248 500 LINE",
"158 500 LINE",
"70 0 LINE"
);
}
);
width = 230;
},
{
anchors = (
{
name = bottom;
position = "{86, 0}";
},
{
name = ogonek;
position = "{190, 10}";
},
{
name = top;
position = "{216, 500}";
}
);
hints = (
{
horizontal = 1;
place = "{500, -20}";
target = down;
type = TopGhost;
},
{
horizontal = 1;
place = "{0, 21}";
target = up;
type = BottomGhost;
}
);
layerId = "97C2AB1A-35E1-4EAE-9807-DD7336879977";
paths = (
{
closed = 1;
nodes = (
"190 0 LINE",
"278 500 LINE",
"158 500 LINE",
"70 0 LINE"
);
}
);
width = 260;
}
);
leftKerningGroup = idotless;
rightKerningGroup = idotless;
unicode = 0131;
},
{
color = 9;
glyphname = iacute;
layers = (
{
hints = (
{
horizontal = 1;
place = "{560, 130}";
},
{
horizontal = 1;
place = "{0, 21}";
target = up;
type = BottomGhost;
},
{
horizontal = 1;
place = "{500, -20}";
target = down;
type = TopGhost;
}
);
layerId = UUID0;
paths = (
{
closed = 1;
nodes = (
"160 0 LINE",
"248 500 LINE",
"158 500 LINE",
"70 0 LINE"
);
},
{
closed = 1;
nodes = (
"243 560 LINE",
"336 690 LINE",
"241 690 LINE",
"183 560 LINE"
);
}
);
width = 230;
},
{
hints = (
{
horizontal = 1;
place = "{560, 130}";
},
{
horizontal = 1;
place = "{500, -20}";
target = down;
type = TopGhost;
},
{
horizontal = 1;
place = "{0, 21}";
target = up;
type = BottomGhost;
}
);
layerId = "97C2AB1A-35E1-4EAE-9807-DD7336879977";
paths = (
{
closed = 1;
nodes = (
"190 0 LINE",
"278 500 LINE",
"158 500 LINE",
"70 0 LINE"
);
},
{
closed = 1;
nodes = (
"263 560 LINE",
"361 690 LINE",
"246 690 LINE",
"188 560 LINE"
);
}
);
width = 260;
}
);
leftKerningGroup = idotless;
rightKerningGroup = idotless;
unicode = 00ED;
},
{
glyphname = icircumflex;
layers = (
{
hints = (
{
horizontal = 1;
place = "{550, 130}";
},
{
horizontal = 1;
place = "{0, 21}";
target = up;
type = BottomGhost;
},
{
horizontal = 1;
place = "{500, -20}";
target = down;
type = TopGhost;
}
);
layerId = UUID0;
paths = (
{
closed = 1;
nodes = (
"153 0 LINE",
"241 500 LINE",
"151 500 LINE",
"63 0 LINE"
);
},
{
closed = 1;
nodes = (
"141 550 LINE",
"217 624 LINE",
"266 550 LINE",
"326 550 LINE",
"274 680 LINE",
"179 680 LINE",
"81 550 LINE"
);
}
);
width = 215;
},
{
hints = (
{
horizontal = 1;
place = "{550, 130}";
},
{
horizontal = 1;
place = "{500, -20}";
target = down;
type = TopGhost;
},
{
horizontal = 1;
place = "{0, 21}";
target = up;
type = BottomGhost;
}
);
layerId = "97C2AB1A-35E1-4EAE-9807-DD7336879977";
paths = (
{
closed = 1;
nodes = (
"185 0 LINE",
"273 500 LINE",
"153 500 LINE",
"65 0 LINE"
);
},
{
closed = 1;
nodes = (
"162 550 LINE",
"231 620 LINE",
"274 550 LINE",
"351 550 LINE",
"294 680 LINE",
"189 680 LINE",
"86 550 LINE"
);
}
);
width = 245;
}
);
leftKerningGroup = idotless;
rightKerningGroup = idotless;
unicode = 00EE;
},
{
glyphname = idieresis;
layers = (
{
hints = (
{
horizontal = 1;
place = "{570, 110}";
},
{
horizontal = 1;
place = "{500, -20}";
target = down;
type = TopGhost;
},
{
horizontal = 1;
place = "{0, 21}";
target = up;
type = BottomGhost;
}
);
layerId = UUID0;
paths = (
{
closed = 1;
nodes = (
"160 0 LINE",
"248 500 LINE",
"158 500 LINE",
"70 0 LINE"
);
},
{
closed = 1;
nodes = (
"180 570 LINE",
"199 680 LINE",
"109 680 LINE",
"90 570 LINE"
);
},
{
closed = 1;
nodes = (
"340 570 LINE",
"359 680 LINE",
"269 680 LINE",
"250 570 LINE"
);
}
);
width = 230;
},
{
hints = (
{
horizontal = 1;
place = "{560, 120}";
},
{
horizontal = 1;
place = "{500, -20}";
target = down;
type = TopGhost;
},
{
horizontal = 1;
place = "{0, 21}";
target = up;
type = BottomGhost;
}
);
layerId = "97C2AB1A-35E1-4EAE-9807-DD7336879977";
paths = (
{
closed = 1;
nodes = (
"185 0 LINE",
"273 500 LINE",
"153 500 LINE",
"65 0 LINE"
);
},
{
closed = 1;
nodes = (
"198 560 LINE",
"219 680 LINE",
"109 680 LINE",
"88 560 LINE"
);
},
{
closed = 1;
nodes = (
"358 560 LINE",
"379 680 LINE",
"269 680 LINE",
"248 560 LINE"
);
}
);
width = 250;
}
);
leftKerningGroup = idotless;
rightKerningGroup = idotless;
unicode = 00EF;
},
{
color = 9;
glyphname = igrave;
layers = (
{
hints = (
{
horizontal = 1;
place = "{560, 130}";
},
{
horizontal = 1;
place = "{500, -20}";
target = down;
type = TopGhost;
},
{
horizontal = 1;
place = "{0, 21}";
target = up;
type = BottomGhost;
}
);
layerId = UUID0;
paths = (
{
closed = 1;
nodes = (
"160 0 LINE",
"248 500 LINE",
"158 500 LINE",
"70 0 LINE"
);
},
{
closed = 1;
nodes = (
"243 560 LINE",
"231 690 LINE",
"136 690 LINE",
"183 560 LINE"
);
}
);
width = 230;
},
{
hints = (
{
horizontal = 1;
place = "{560, 130}";
},
{
horizontal = 1;
place = "{500, -20}";
target = down;
type = TopGhost;
},
{
horizontal = 1;
place = "{0, 21}";
target = up;
type = BottomGhost;
}
);
layerId = "97C2AB1A-35E1-4EAE-9807-DD7336879977";
paths = (
{
closed = 1;
nodes = (
"190 0 LINE",
"278 500 LINE",
"158 500 LINE",
"70 0 LINE"
);
},
{
closed = 1;
nodes = (
"268 560 LINE",
"256 690 LINE",
"141 690 LINE",
"193 560 LINE"
);
}
);
width = 260;
}
);
leftKerningGroup = idotless;
rightKerningGroup = idotless;
unicode = 00EC;
},
